<svg xmlns="http://www.w3.org/2000/svg" width="134" height="45" viewBox="0 0 134 45">
    <defs>
        <linearGradient id="fmzh42ao3a" x1="0%" x2="100%" y1="49.17%" y2="51.517%">
            <stop offset="0%" stop-color="#FFD81D"/>
            <stop offset="100%" stop-color="#D09830"/>
        </linearGradient>
        <linearGradient id="1jujubj2tb" x1="96.847%" x2="8.431%" y1="50%" y2="50.152%">
            <stop offset="0%" stop-color="#FFD81D"/>
            <stop offset="100%" stop-color="#D09830"/>
        </linearGradient>
    </defs>
    <g fill="none" fill-rule="evenodd">
        <path fill="url(#fmzh42ao3a)" d="M76.717 1.003C88.18-.706 91.75 7.592 89.25 13.2c-1.815 4.07-6.567 5.804-10.709 4.287.364.864 1.219 1.678 2.164 1.857-.286.51-1.366.797-2.399.642.33 1.577 1.96 2.396 2.833 2.525-.218.23-.524.4-.905.477 3.015 2.6 7.115 1.34 9.864-1.008 2.722-2.325 4.557-5.981 4.557-9.559 0-9.148-9.43-14.834-17.937-11.418zM20.523 8.06v-.767h3.454c.665 0 1.221.057 1.67.172.447.116.805.346 1.074.691.827 1.066.71 3.393.71 4.69-.769-3.17-3.133-4.683-6.908-4.786zM27.43 25.54h-3.453V12.916c0-1.498.003-2.848-2.025-3.712 2.023.235 5.478 2.272 5.478 7.211v9.125zM126.28 8.06v-.767h3.454c.665 0 1.222.057 1.67.172.447.116.805.346 1.074.691.828 1.066.71 3.393.71 4.69-.769-3.17-3.133-4.683-6.908-4.786zm6.908 17.481h-3.454V12.916c0-1.498.003-2.848-2.025-3.712 2.023.235 5.479 2.272 5.479 7.211v9.125zM94.016 0c1.281 0 2.32 1.038 2.32 2.32 0 1.282-1.039 2.32-2.32 2.32-1.282 0-2.32-1.038-2.32-2.32 0-1.282 1.038-2.32 2.32-2.32zM79.47 1.366c-9.602.602-12.996 11.12-8.647 18.043 2.457 3.913 7.94 6.279 12.545 5.827-6.26-1.024-10.932-6.554-10.7-13.045.17-4.725 2.894-8.759 6.802-10.825zm23.88 7.46c.487-.485 1.152-.927 1.996-1.324.844-.396 1.842-.594 2.993-.594.973 0 1.861.179 2.667.537.806.358 1.452 1.074 1.938 2.15.665-.871 1.522-1.536 2.57-1.996 1.05-.461 2.112-.691 3.186-.691.716 0 1.4.096 2.054.288.652.191 1.221.55 1.707 1.074.486.525.876 1.234 1.17 2.13.295.895.442 2.034.442 3.415v11.512h-3.454V13.815c0-1.918-.268-3.262-.806-4.029-.537-.767-1.291-1.151-2.264-1.151-.384 0-.774.076-1.17.23-.397.154-.774.352-1.132.595-.358.243-.691.511-.998.805-.307.295-.55.582-.73.864.103.281.16.703.173 1.266.013.563.02 1.036.02 1.42v11.512h-3.454V13.815c0-1.918-.269-3.262-.806-4.029-.537-.767-1.292-1.151-2.264-1.151-.768 0-1.477.204-2.13.614-.652.409-1.221.882-1.707 1.42v14.658h-3.454v-13.43c0-1.151-.16-2.08-.48-2.783-.32-.703-1.055-1.055-2.206-1.055h-.768v-.767h3.454c.972 0 1.708.134 2.206.403.5.268.851.646 1.056 1.132h.192zm-51.434 0c.486-.485 1.151-.927 1.995-1.324.844-.396 1.842-.594 2.993-.594.819 0 1.619.096 2.399.288.78.191 1.477.55 2.091 1.074.614.525 1.107 1.234 1.477 2.13.372.895.557 2.034.557 3.415v11.512h-3.454V13.815c0-.947-.121-1.752-.364-2.417-.243-.666-.563-1.203-.96-1.612-.396-.41-.844-.704-1.343-.883-.499-.179-1.017-.268-1.554-.268-.768 0-1.477.204-2.13.614-.652.409-1.221.882-1.707 1.42v14.658h-3.454V4.605c0-1.15-.16-2.078-.48-2.782-.32-.704-1.055-1.055-2.206-1.055h-.768V0h3.454c.665 0 1.222.057 1.67.172.447.115.805.346 1.074.69.268.346.454.82.556 1.42.102.602.154 1.376.154 2.322v4.222zm-7.828 11.896c0 .819-.173 1.536-.519 2.15-.345.613-.812 1.132-1.4 1.554-.589.422-1.298.741-2.13.959-.831.218-1.72.326-2.667.326-1.535 0-2.789-.134-3.76-.403-.973-.268-1.702-.646-2.188-1.132-.486-.486-.767-1.036-.844-1.65-.077-.614-.115-1.407-.115-2.38h.767c.205 1.255.742 2.24 1.612 2.955.87.717 2.123 1.075 3.76 1.075 1.459 0 2.527-.255 3.205-.767.678-.512 1.017-1.151 1.017-1.92 0-.767-.288-1.412-.864-1.937-.575-.524-1.439-1.03-2.59-1.516l-2.302-.959c-1.459-.589-2.59-1.286-3.396-2.092-.806-.805-1.21-1.835-1.21-3.088 0-.82.16-1.536.48-2.15.32-.613.761-1.131 1.324-1.554.563-.422 1.228-.742 1.996-.959.767-.217 1.611-.326 2.533-.326 1.458 0 2.66.134 3.606.403.947.269 1.663.646 2.15 1.132.486.486.767 1.036.844 1.65.077.614.115 1.407.115 2.38h-.768c-.204-1.255-.735-2.24-1.592-2.956-.857-.716-2.053-1.074-3.588-1.074-1.254 0-2.207.256-2.859.767-.652.512-.979 1.151-.979 1.919 0 .665.27 1.272.806 1.823.538.55 1.292 1.03 2.265 1.439l2.302.96c1.637.664 2.878 1.393 3.722 2.187.844.792 1.267 1.854 1.267 3.184zM3.454 11.898c0-1.151-.16-2.08-.48-2.783C2.654 8.411 1.92 8.06.767 8.06H0v-.767h3.454c.972 0 1.707.134 2.206.403.5.268.85.646 1.056 1.132h.191c.487-.486 1.152-.928 1.996-1.325.844-.396 1.842-.594 2.993-.594.819 0 1.618.096 2.398.288.78.191 1.478.55 2.092 1.074.614.525 1.106 1.234 1.477 2.13.371.895.557 2.034.557 3.415v11.512h-3.454V13.815c0-.947-.122-1.752-.364-2.417-.243-.666-.563-1.203-.96-1.612-.396-.41-.844-.704-1.343-.883-.499-.179-1.017-.268-1.554-.268-.768 0-1.478.204-2.13.614-.652.409-1.221.882-1.708 1.42v14.658H3.454v-13.43z"/>
        <path fill="url(#1jujubj2tb)" d="M46.415 36.666v.304l-.792.122v.06c.244.123.447.299.609.53.162.232.243.502.243.81 0 .349-.06.641-.182.877-.122.235-.286.422-.493.56-.207.137-.453.237-.737.298-.284.06-.584.091-.9.091-.853 0-1.279.142-1.279.426 0 .284.426.426 1.278.426.366 0 .71.037 1.035.11.325.073.609.185.852.335.244.15.437.345.579.584.142.24.213.525.213.858 0 .35-.07.643-.207.883-.138.24-.327.434-.566.584-.24.15-.522.258-.846.323-.325.065-.678.097-1.06.097-.381 0-.734-.032-1.059-.097-.324-.065-.607-.173-.846-.323-.24-.15-.428-.345-.566-.584-.138-.24-.207-.534-.207-.883 0-.397.132-.73.396-.998s.578-.463.943-.584c-.122-.065-.233-.157-.335-.274-.101-.118-.152-.27-.152-.457s.049-.329.146-.426c.098-.097.191-.178.28-.244-.243-.121-.456-.316-.639-.584-.182-.268-.274-.6-.274-.998 0-.35.061-.641.183-.877.122-.235.286-.422.493-.56.207-.138.452-.237.736-.298.285-.06.585-.091.901-.091h2.253zm56.636 0c.365 0 .667.085.907.255.239.17.424.41.553.719l1.388 3.372 1.534-4.224h.609l-2.374 6.513c-.122.333-.25.606-.383.822-.134.215-.276.383-.427.505-.15.122-.314.205-.493.25-.178.044-.373.066-.584.066h-.365v-.365c.178 0 .349-.018.511-.055.162-.036.31-.101.444-.194.134-.094.258-.224.372-.39.113-.167.219-.38.316-.64l.244-.669-1.948-4.748c-.122-.308-.298-.54-.53-.694-.231-.154-.501-.247-.81-.28v-.243h1.036zm-59.437 4.93c-.308.122-.558.297-.748.524-.191.227-.286.54-.286.937 0 .487.148.842.444 1.066.296.223.676.334 1.138.334.463 0 .843-.111 1.139-.334.296-.224.444-.579.444-1.066 0-.811-.487-1.278-1.46-1.4l-.67-.06zm77.371-4.93c.463 0 .844.042 1.145.128.3.085.527.204.681.359.154.154.244.328.268.523.025.195.037.447.037.755h-.244c-.065-.398-.233-.71-.505-.937-.272-.228-.651-.341-1.138-.341-.398 0-.7.08-.907.243-.207.162-.31.365-.31.609 0 .21.085.404.255.578.17.175.41.327.718.457l.73.304c.52.211.914.442 1.182.694.267.252.401.588.401 1.01 0 .26-.054.487-.164.682-.11.195-.258.36-.444.493-.187.134-.412.236-.676.305-.264.069-.546.103-.846.103-.487 0-.885-.042-1.193-.128-.309-.085-.54-.205-.694-.359-.154-.154-.244-.329-.268-.523-.024-.195-.036-.447-.036-.755h.243c.065.398.235.71.511.937.276.228.674.341 1.193.341.463 0 .802-.081 1.017-.243.215-.163.323-.366.323-.61 0-.243-.092-.448-.274-.614-.183-.166-.457-.326-.822-.48l-.73-.305c-.463-.187-.822-.408-1.078-.664-.256-.255-.383-.582-.383-.98 0-.26.05-.487.152-.681.101-.195.241-.36.42-.493.178-.134.39-.236.633-.305s.511-.103.803-.103zm-7.652 0c.275 0 .541.03.797.091.256.06.483.183.682.365.199.183.357.443.475.78.117.336.176.777.176 1.32v3.287h-.609l-.426-.547h-.06c-.122.154-.321.304-.597.45-.276.146-.645.22-1.108.22-.17 0-.357-.027-.56-.08-.203-.053-.394-.144-.572-.274-.179-.13-.329-.304-.45-.523-.122-.22-.183-.495-.183-.828 0-.333.085-.609.255-.828.17-.22.398-.394.682-.524.284-.13.613-.22.986-.274.374-.052.767-.079 1.181-.079h.365c0-.422-.032-.769-.097-1.04-.065-.272-.154-.483-.268-.634-.113-.15-.25-.253-.408-.31-.158-.057-.326-.085-.505-.085-.34 0-.627.073-.858.219-.231.146-.392.418-.481.816h-.548c0-.211.012-.408.037-.59.024-.183.113-.352.267-.506.074-.073.177-.138.311-.195.134-.057.282-.101.444-.134.163-.032.335-.057.518-.073.182-.016.367-.024.554-.024zm-89.852 0c.828 0 1.441.231 1.839.694.397.462.596 1.124.596 1.984l-.024.487h-3.689c0 .333.037.641.11.925.073.284.18.53.322.737.142.207.315.367.518.48.203.114.434.171.694.171.397 0 .728-.085.992-.255.264-.171.501-.41.712-.719l.243.183c-.275.462-.594.791-.955.986-.361.195-.773.292-1.236.292-.43 0-.803-.079-1.12-.237-.316-.158-.582-.372-.797-.64-.215-.267-.376-.582-.481-.943-.106-.361-.158-.749-.158-1.163 0-.413.054-.801.164-1.162.11-.361.27-.676.48-.944.212-.267.467-.48.768-.639.3-.158.641-.237 1.022-.237zm37.484 0c.828 0 1.44.231 1.838.694.398.462.597 1.124.597 1.984l-.024.487h-3.69c0 .333.037.641.11.925.073.284.18.53.323.737.142.207.314.367.517.48.203.114.435.171.694.171.398 0 .729-.085.992-.255.264-.171.502-.41.713-.719l.243.183c-.276.462-.594.791-.956.986-.36.195-.773.292-1.235.292-.43 0-.804-.079-1.12-.237-.317-.158-.583-.372-.798-.64-.215-.267-.375-.582-.48-.943-.106-.361-.159-.749-.159-1.163 0-.413.055-.801.164-1.162.11-.361.27-.676.481-.944.211-.267.467-.48.767-.639.3-.158.642-.237 1.023-.237zm36.247 0c.276 0 .542.03.797.091.256.06.483.183.682.365.199.183.357.443.475.78.118.336.176.777.176 1.32v3.287h-.608l-.426-.547h-.061c-.122.154-.32.304-.597.45-.276.146-.645.22-1.108.22-.17 0-.357-.027-.56-.08-.203-.053-.393-.144-.572-.274-.178-.13-.329-.304-.45-.523-.122-.22-.183-.495-.183-.828 0-.333.085-.609.256-.828.17-.22.397-.394.681-.524.285-.13.613-.22.987-.274.373-.052.766-.079 1.18-.079h.366c0-.422-.033-.769-.098-1.04-.065-.272-.154-.483-.267-.634-.114-.15-.25-.253-.408-.31-.159-.057-.327-.085-.506-.085-.34 0-.627.073-.858.219-.231.146-.392.418-.48.816h-.549c0-.211.013-.408.037-.59.024-.183.114-.352.268-.506.073-.073.176-.138.31-.195.134-.057.282-.101.445-.134.162-.032.334-.057.517-.073.182-.016.367-.024.554-.024zM86.71 34.474c.211 0 .388.019.53.055.142.037.256.11.34.22.086.109.145.259.178.45.032.19.048.436.048.736v1.096c.187-.09.402-.172.645-.25.244-.077.536-.115.877-.115.398 0 .74.079 1.029.237.288.158.527.372.718.64.19.267.333.582.426.943.093.361.14.749.14 1.162 0 .414-.047.802-.14 1.163-.093.361-.231.676-.414.944-.182.267-.41.48-.682.639-.272.158-.59.237-.955.237-.455 0-.812-.073-1.072-.219-.26-.146-.45-.296-.572-.45h-.06l-.427.547h-.609v-6.574c0-.365-.05-.66-.152-.882-.101-.224-.334-.335-.7-.335h-.243v-.244h1.095zm-55.564 2.192c.463 0 .844.042 1.144.128.3.085.528.204.682.359.154.154.244.328.268.523.025.195.037.447.037.755h-.244c-.065-.398-.233-.71-.505-.937-.272-.228-.652-.341-1.138-.341-.398 0-.7.08-.907.243-.207.162-.31.365-.31.609 0 .21.084.404.255.578.17.175.41.327.718.457l.73.304c.52.211.914.442 1.181.694.268.252.402.588.402 1.01 0 .26-.055.487-.164.682-.11.195-.258.36-.445.493-.186.134-.411.236-.675.305-.264.069-.546.103-.846.103-.487 0-.885-.042-1.193-.128-.309-.085-.54-.205-.694-.359-.154-.154-.244-.329-.268-.523-.025-.195-.037-.447-.037-.755h.244c.065.398.235.71.511.937.276.228.674.341 1.193.341.463 0 .802-.081 1.017-.243.215-.163.322-.366.322-.61 0-.243-.09-.448-.273-.614-.183-.166-.457-.326-.822-.48l-.73-.305c-.463-.187-.823-.408-1.078-.664-.256-.255-.384-.582-.384-.98 0-.26.051-.487.153-.681.1-.195.241-.36.42-.493.178-.134.389-.236.633-.305.243-.069.511-.103.803-.103zm48.898-2.192l2.678 6.514c.098.227.19.42.274.578.086.158.18.286.286.383.106.098.22.17.341.22.122.048.268.08.439.097v.243c-.138.041-.3.061-.487.061-.138 0-.299-.016-.481-.048-.183-.033-.37-.104-.56-.213-.191-.11-.378-.27-.56-.481-.183-.211-.34-.491-.469-.84l-.304-.792h-3.41l-.973 2.313h-.548l3.409-8.035h.365zm-27.048 2.192c.26 0 .513.03.76.091.248.06.47.175.664.341.195.166.351.392.469.676.118.284.176.645.176 1.083v3.652H53.97v-3.652c0-.3-.039-.556-.116-.767-.077-.21-.178-.381-.304-.511s-.268-.223-.426-.28c-.159-.057-.323-.085-.493-.085-.244 0-.469.065-.676.194-.207.13-.388.28-.542.45v4.651h-1.095v-4.26c0-.366-.051-.66-.153-.883-.101-.223-.334-.335-.7-.335h-.243v-.243h1.096c.308 0 .541.042.7.127.158.085.27.205.334.36h.061c.154-.155.365-.295.633-.42.268-.126.585-.19.95-.19zm-39.918-2.192c.803 0 1.505.094 2.106.28.6.187 1.097.45 1.49.792.395.34.69.757.89 1.248.199.49.298 1.04.298 1.65 0 .592-.095 1.138-.286 1.637-.19.499-.473.927-.846 1.284-.374.357-.838.637-1.394.84-.556.203-1.203.304-1.942.304h-2.41v-6.574c0-.365-.051-.66-.153-.882-.101-.224-.335-.335-.7-.335h-.243v-.244h3.19zm24.053 2.314c.21 0 .387.018.53.054.141.037.255.11.34.22.085.11.144.26.177.45.032.19.048.436.048.736v4.261h-1.095v-4.26c0-.366-.051-.66-.153-.883-.101-.223-.334-.335-.7-.335h-.243v-.243h1.096zm32.424-.122c.122 0 .252.014.39.042.137.029.251.075.34.14.09.065.167.142.232.232.065.089.13.195.194.316l-.486.365c-.09-.121-.222-.213-.396-.273-.175-.061-.367-.092-.578-.092-.244 0-.467.055-.67.165-.203.11-.365.257-.487.444v4.504h-1.096v-4.26c0-.366-.05-.66-.152-.883-.101-.223-.335-.335-.7-.335h-.122v-.243h.974c.309 0 .542.044.7.133.159.09.27.228.335.414h.06c.123-.154.305-.304.549-.45.243-.146.548-.22.913-.22zm19.408.487c-.187 0-.38.038-.579.115-.198.077-.391.16-.578.25v3.896c.122.186.282.355.481.505.199.15.465.225.798.225.243 0 .452-.065.626-.195.175-.13.321-.306.439-.53.117-.222.203-.486.255-.79.053-.305.08-.632.08-.98 0-.35-.029-.676-.086-.98-.057-.305-.146-.569-.268-.792-.121-.223-.278-.4-.468-.53-.191-.13-.424-.194-.7-.194zM13.35 34.9c-.178 0-.369.016-.576.048-.205.033-.418.081-.635.146v6.83c.477.106.889.158 1.236.158.442 0 .858-.083 1.246-.25.387-.166.722-.405 1.004-.718.284-.312.505-.69.667-1.132.16-.442.242-.94.242-1.491 0-.536-.08-1.025-.235-1.467-.159-.442-.378-.822-.662-1.138-.282-.317-.619-.56-1.01-.73-.392-.171-.818-.256-1.277-.256zm84.896 4.808h-.365c-.61 0-1.086.112-1.43.335-.346.223-.518.518-.518.883 0 .195.032.365.097.511.065.146.15.268.256.365.105.098.227.169.365.213.138.045.284.067.438.067.3 0 .538-.075.712-.225.175-.15.323-.318.445-.505v-1.644zm16.12 0h-.365c-.609 0-1.085.112-1.43.335-.345.223-.518.518-.518.883 0 .195.033.365.098.511.065.146.15.268.255.365.106.098.228.169.366.213.138.045.284.067.438.067.3 0 .538-.075.712-.225.175-.15.323-.318.444-.505v-1.644zm-70.205-2.617c-.17 0-.328.024-.474.073-.146.049-.274.128-.384.237-.11.11-.197.254-.262.433-.065.178-.097.397-.097.657s.032.479.097.657c.065.179.153.323.262.433.11.11.238.188.384.237.146.049.304.073.474.073.17 0 .33-.024.475-.073.146-.049.274-.128.384-.237.11-.11.196-.254.261-.433.065-.178.098-.397.098-.657 0-.487-.118-.842-.353-1.065-.236-.224-.524-.335-.865-.335zm35.334-.913l-1.522 3.53h2.983l-1.46-3.53zm-56.015.974c-.186 0-.357.054-.51.164-.155.11-.289.262-.403.457-.113.194-.203.426-.267.694-.065.267-.098.56-.098.876h2.557c0-.706-.106-1.248-.317-1.625-.21-.378-.531-.566-.962-.566zm37.484 0c-.187 0-.357.054-.511.164-.154.11-.288.262-.402.457-.114.194-.203.426-.268.694-.065.267-.097.56-.097.876h2.556c0-.706-.105-1.248-.316-1.625-.211-.378-.532-.566-.962-.566zM37.472 34.73c.186 0 .347.077.48.231.134.155.201.337.201.548 0 .17-.05.305-.152.402-.101.097-.237.146-.408.146-.186 0-.347-.077-.48-.231-.135-.154-.201-.337-.201-.548 0-.17.05-.304.152-.402.101-.097.237-.146.408-.146z"/>
    </g>
</svg>
