<?xml version="1.0" standalone="no"?>
<!DOCTYPE svg PUBLIC "-//W3C//DTD SVG 1.1//EN" "http://www.w3.org/Graphics/SVG/1.1/DTD/svg11.dtd" >
<svg xmlns="http://www.w3.org/2000/svg" xmlns:xlink="http://www.w3.org/1999/xlink" version="1.1">
<metadata>
Created by FontForge 20170731 at Fri Aug 16 05:19:06 2019
 By Aleksey,,,
(c) 2017-2019 Apple Inc. All rights reserved.
</metadata>
<defs>
<font id="NewYorkLarge-Semibold" horiz-adv-x="0" >
  <font-face 
    font-family="New York Large"
    font-weight="600"
    font-stretch="normal"
    units-per-em="2048"
    panose-1="2 2 5 2 6 4 0 0 0 4"
    ascent="1638"
    descent="-410"
    x-height="994"
    cap-height="1444"
    bbox="-486 -516 3443 1989"
    underline-thickness="79"
    underline-position="-308"
    unicode-range="U+0020-1F16B"
  />
<missing-glyph horiz-adv-x="2048" 
d="M137 -494v2444h135v-2444h-135zM547 -494v2444h135v-2444h-135zM956 -494v2444h136v-2444h-136zM1366 -494v2444h136v-2444h-136zM1776 -494v2444h135v-2444h-135z" />
    <glyph glyph-name=".notdef" horiz-adv-x="2048" 
d="M137 -494v2444h135v-2444h-135zM547 -494v2444h135v-2444h-135zM956 -494v2444h136v-2444h-136zM1366 -494v2444h136v-2444h-136zM1776 -494v2444h135v-2444h-135z" />
    <glyph glyph-name=".null" 
 />
    <glyph glyph-name="nonmarkingreturn" 
 />
    <glyph glyph-name="space" unicode=" " horiz-adv-x="475" 
 />
    <glyph glyph-name="exclam" unicode="!" horiz-adv-x="665" 
d="M332 1463q71 0 115 -49.5t44 -129.5q0 -114 -58 -407l-79 -439h-44l-79 439q-56 288 -56 407q0 80 43.5 129.5t113.5 49.5zM331 -19q-60 0 -104 42.5t-44 102.5t44 102.5t104 42.5q62 0 105.5 -42t43.5 -103t-43.5 -103t-105.5 -42z" />
    <glyph glyph-name="quotedbl" unicode="&#x22;" horiz-adv-x="938" 
d="M268 1475q59 0 96 -37t38 -96q0 -9 -0.5 -17t-1.5 -18.5t-2 -17.5t-3.5 -20t-4.5 -20.5t-6 -25t-6.5 -27t-8.5 -33t-9 -36.5l-69 -275h-47l-68 275q-4 15 -11.5 46t-10 41t-7.5 30.5t-6 29t-3 22.5t-2.5 24t-0.5 22q0 59 37 96t96 37zM670 1475q59 0 96 -37t37 -96
q0 -12 -0.5 -22t-2.5 -24t-3.5 -22.5t-6.5 -29.5t-7 -30.5t-9.5 -40.5t-11.5 -46l-69 -275h-47l-68 275q-4 17 -11.5 46.5t-10 40t-7.5 30.5t-6.5 29t-3.5 23t-2.5 24t-0.5 22q1 59 38 96t96 37z" />
    <glyph glyph-name="numbersign" unicode="#" horiz-adv-x="1225" 
d="M274 0l28 410h-228l7 105h229l29 414h-229l7 105h229l29 410h109l-29 -410h356l29 410h109l-29 -410h231l-7 -105h-231l-29 -414h231l-7 -105h-231l-29 -410h-109l29 410h-357l-28 -410h-109zM419 515h356l29 414h-356z" />
    <glyph glyph-name="dollar" unicode="$" horiz-adv-x="1120" 
d="M531 12q-124 0 -237 28t-188 76l-12 317h56q40 -175 142 -258.5t240 -83.5v516l-97 38q-169 67 -251.5 165.5t-82.5 233.5q0 170 117 271.5t314 114.5v202h53v-200h3q112 0 212.5 -23.5t157.5 -55.5l12 -307h-55q-33 148 -117 227t-213 80v-463l103 -41
q181 -72 266.5 -171t85.5 -242q0 -179 -126.5 -293.5t-328.5 -128.5v-203h-53v201h-1zM336 1148q0 -78 47 -134t149 -102v438q-95 -12 -145.5 -66t-50.5 -136zM805 330q0 87 -50 145t-170 110v-491q102 14 161 78t59 158z" />
    <glyph glyph-name="percent" unicode="%" horiz-adv-x="1882" 
d="M406 673q-142 0 -236.5 107t-94.5 285q0 181 94.5 287t241.5 106q142 0 237 -107t95 -285q0 -182 -95 -287.5t-242 -105.5zM448 0l872 1444h114l-872 -1444h-114zM412 730q63 0 94.5 76.5t31.5 250.5q0 344 -132 344q-63 0 -94 -76t-31 -250q0 -345 131 -345zM1471 -14
q-143 0 -237.5 107t-94.5 286q0 181 95 287t241 106q142 0 237 -107.5t95 -285.5q0 -181 -95 -287t-241 -106zM1476 43q63 0 94.5 76.5t31.5 250.5q0 345 -132 345q-63 0 -94 -76.5t-31 -250.5q0 -345 131 -345z" />
    <glyph glyph-name="ampersand" unicode="&#x26;" horiz-adv-x="1628" 
d="M513 -23q-191 0 -313.5 109.5t-122.5 281.5q1 137 93 241t270 164q-91 103 -130.5 184t-39.5 169q0 146 118 245t308 99q185 0 292 -83t107 -213q0 -209 -335 -334q16 -15 33 -33l324 -322l100 152q49 73 56.5 115.5t-20.5 63.5t-98 31v59l429 1v-59q-79 -11 -133.5 -53
t-153.5 -172l-137 -181l152 -152q122 -119 186.5 -167.5t120.5 -66.5v-56h-408l-224 223q-113 -126 -224.5 -186t-249.5 -60zM521 1213q0 -74 43.5 -145t152.5 -184q155 100 157 280q0 97 -48 160.5t-130 63.5q-79 0 -127 -46.5t-48 -128.5zM332 487q0 -153 101 -253
t245 -100t271 127l-362 360q-41 40 -106 107q-149 -86 -149 -241z" />
    <glyph glyph-name="quotesingle" unicode="'" horiz-adv-x="536" 
d="M268 1475q59 0 96 -37t38 -96q0 -9 -0.5 -17t-1.5 -18.5t-2 -17.5t-3.5 -20t-4.5 -20.5t-6 -25t-6.5 -27t-8.5 -33t-9 -36.5l-69 -275h-47l-68 275q-4 15 -11.5 46t-10 41t-7.5 30.5t-6 29t-3 22.5t-2.5 24t-0.5 22q0 59 37 96t96 37z" />
    <glyph glyph-name="parenleft" unicode="(" horiz-adv-x="706" 
d="M350 650q0 -290 85 -529.5t237 -400.5h-69q-221 120 -369 374t-148 556t148 556t369 374h69q-152 -160 -237 -400t-85 -530z" />
    <glyph glyph-name="parenright" unicode=")" horiz-adv-x="706" 
d="M356 650q0 290 -85 530t-237 400h68q222 -119 370 -373.5t148 -556.5t-148 -556t-370 -374h-68q152 161 237 400.5t85 529.5z" />
    <glyph glyph-name="asterisk" unicode="*" horiz-adv-x="774" 
d="M373 1134l-61 201q-21 58 4.5 96t70.5 38q44 0 69 -38t5 -96l-61 -201h-27zM406 1132l138 153q44 47 87.5 44t66.5 -42q11 -25 10 -51t-24.5 -49t-64.5 -31l-200 -48zM355 1108l-200 47q-41 8 -65 31.5t-25 49.5t11 51q22 39 66 42t88 -44l138 -153zM368 1078l-138 -153
q-44 -47 -87.5 -44t-66.5 42q-11 25 -10 51t25 49.5t64 31.5l200 48zM419 1103l201 -48q40 -8 64 -31.5t25 -49.5t-11 -51q-22 -39 -66 -41.5t-87 44.5l-139 153zM401 1075l61 -200q20 -59 -5 -97t-70 -38q-44 0 -69 38t-5 97l61 200h27z" />
    <glyph glyph-name="plus" unicode="+" horiz-adv-x="1201" 
d="M120 524v118h421v422h119v-422h421v-118h-421v-422h-119v422h-421z" />
    <glyph glyph-name="comma" unicode="," horiz-adv-x="528" 
d="M122 -256l-19 53q66 17 107 58.5t41 99.5q0 59 -43 97.5t-111 43.5q0 85 44.5 141.5t120.5 56.5q77 0 124 -58t47 -151q0 -130 -91 -223t-220 -118z" />
    <glyph glyph-name="hyphen" unicode="&#x2011;" horiz-adv-x="733" 
d="M637 517h-542v132h542v-132z" />
    <glyph glyph-name="hyphen" unicode="-" horiz-adv-x="733" 
d="M637 517h-542v132h542v-132z" />
    <glyph glyph-name="period" unicode="." horiz-adv-x="528" 
d="M264 -19q-65 0 -111 46.5t-46 111.5t46 111.5t111 46.5t111 -46.5t46 -111.5t-46 -111.5t-111 -46.5z" />
    <glyph glyph-name="slash" unicode="/" horiz-adv-x="706" 
d="M37 -280l498 1860h135l-498 -1860h-135z" />
    <glyph glyph-name="zero" unicode="0" horiz-adv-x="1336" 
d="M665 -25q-116 0 -217.5 50t-179 142.5t-122.5 235.5t-45 318q0 180 44.5 324t122.5 235.5t181 140t223 48.5q116 0 217.5 -50t179 -142.5t122.5 -235.5t45 -318q0 -180 -44.5 -323.5t-122.5 -235.5t-181 -140.5t-223 -48.5zM674 56q126 0 189 153t63 486
q-1 343 -68.5 518t-194.5 175q-125 0 -188.5 -153t-63.5 -486q0 -342 68 -517.5t195 -175.5z" />
    <glyph glyph-name="one" unicode="1" horiz-adv-x="855" 
d="M577 1446v-1231q0 -79 41.5 -109.5t171.5 -46.5v-59h-704v59q130 16 171.5 46.5t41.5 109.5v1035l-225 -62v53l380 205h123z" />
    <glyph glyph-name="two" unicode="2" horiz-adv-x="1034" 
d="M959 0h-910v165l228 242q203 223 282 358.5t79 268.5q0 122 -67.5 195t-182.5 73q-105 0 -182 -57.5t-115 -158.5l-55 23q48 169 172 264.5t311 95.5t299.5 -102.5t112.5 -269.5q0 -99 -50.5 -193t-149.5 -196t-281 -254l-258 -227h767v-227z" />
    <glyph glyph-name="three" unicode="3" horiz-adv-x="1104" 
d="M479 -25q-181 0 -303 84t-122 205q0 55 37.5 92.5t91.5 37.5t91 -36.5t37 -90.5q0 -49 -32.5 -84.5t-79.5 -39.5q83 -76 214 -76q127 0 212.5 88t84.5 234q-1 156 -96.5 247t-251.5 91q-53 0 -100 -9v65q420 62 420 299q0 103 -64 162t-175 59q-106 0 -187.5 -52.5
t-123.5 -149.5l-54 25q48 157 173 250t308 93t293 -85t110 -227q0 -122 -94 -209.5t-248 -113.5q175 -20 280 -134.5t105 -279.5q0 -136 -74 -239t-192 -154.5t-260 -51.5z" />
    <glyph glyph-name="four" unicode="4" horiz-adv-x="1208" 
d="M698 0v340h-646v127l686 979h213v-912h217v-194h-217v-340h-253zM699 533v728l-476 -728h476z" />
    <glyph glyph-name="five" unicode="5" horiz-adv-x="1110" 
d="M489 -25q-180 0 -296 84.5t-116 201.5q0 55 37 92.5t92 37.5q54 0 91.5 -36.5t37.5 -90.5q0 -50 -33.5 -85.5t-81.5 -38.5q77 -72 207 -72q126 0 212.5 93t86.5 250q0 150 -78 245t-201 95q-88 0 -155 -32t-104 -89l-61 1l146 813h688v-229h-639l-104 -476q56 70 151 111
t215 41q188 0 311.5 -121.5t123.5 -309.5q0 -110 -43 -202.5t-115.5 -153.5t-168.5 -95t-203 -34z" />
    <glyph glyph-name="six" unicode="6" horiz-adv-x="1250" 
d="M1165 453q0 -212 -145 -345t-380 -133q-246 0 -394.5 164t-147.5 456q1 174 69 330t191.5 274t310.5 187t411 69l1 -58q-168 -11 -300.5 -79t-217 -179t-129.5 -253t-48 -307q28 139 123 220.5t252 81.5q181 0 292.5 -119.5t111.5 -308.5zM876 392q0 160 -62 257t-175 97
q-108 0 -177 -81.5t-69 -223.5q0 -103 27 -188.5t84.5 -141t136.5 -55.5q109 0 172 92t63 244z" />
    <glyph glyph-name="seven" unicode="7" horiz-adv-x="997" 
d="M411 0h-275v12l700 1202h-794v230h886v-195z" />
    <glyph glyph-name="eight" unicode="8" horiz-adv-x="1248" 
d="M618 -25q-230 0 -373.5 97t-143.5 256q0 128 94 220t256 122q-147 64 -229 164t-82 235q0 177 138.5 288.5t356.5 111.5q219 0 345.5 -94.5t126.5 -241.5q0 -113 -88 -191.5t-233 -108.5q182 -77 271.5 -183t89.5 -255q0 -179 -152.5 -299.5t-376.5 -120.5zM621 903
l113 -48q65 38 100 104t35 149q0 120 -65.5 199.5t-176.5 79.5t-174.5 -59.5t-63.5 -154.5q0 -89 55.5 -153.5t176.5 -116.5zM343 366q0 -134 79.5 -221t204.5 -87q117 0 192.5 66.5t76.5 171.5q1 99 -60 167t-210 132l-123 53q-80 -37 -120 -110.5t-40 -171.5z" />
    <glyph glyph-name="nine" unicode="9" horiz-adv-x="1250" 
d="M86 991q0 211 145 344.5t380 133.5q246 0 394.5 -162t147.5 -453q-1 -175 -69 -332t-191.5 -275.5t-310.5 -188t-411 -69.5l-1 58q169 11 301.5 79t216.5 179t129 252.5t48 307.5q-28 -140 -124 -221.5t-254 -81.5q-178 0 -289.5 120.5t-111.5 308.5zM375 1053
q0 -160 61.5 -258t173.5 -98q110 0 179 82.5t69 223.5q0 163 -64.5 274t-183.5 111q-109 0 -172 -92.5t-63 -242.5z" />
    <glyph glyph-name="colon" unicode=":" horiz-adv-x="528" 
d="M264 653q-65 0 -111 46.5t-46 111.5t46 111.5t111 46.5t111 -46.5t46 -111.5t-46 -111.5t-111 -46.5zM264 -19q-65 0 -111 46.5t-46 111.5q0 66 46 112t111 46t111 -46t46 -112q0 -65 -46 -111.5t-111 -46.5z" />
    <glyph glyph-name="semicolon" unicode=";" horiz-adv-x="528" 
d="M264 657q-64 0 -110.5 46.5t-46.5 110.5q0 66 46 112t111 46t111 -46t46 -112q0 -65 -46 -111t-111 -46zM122 -256l-19 53q66 17 107 58.5t41 99.5q0 59 -43 97.5t-111 43.5q0 85 44.5 141.5t120.5 56.5q77 0 124 -58t47 -151q0 -130 -91 -223t-220 -118z" />
    <glyph glyph-name="less" unicode="&#x3c;" horiz-adv-x="1197" 
d="M1111 185v-126l-1021 488v59l1021 488v-118l-845 -395z" />
    <glyph glyph-name="equal" unicode="=" horiz-adv-x="1201" 
d="M120 740v119h961v-119h-961zM120 307v119h961v-119h-961z" />
    <glyph glyph-name="greater" unicode="&#x3e;" horiz-adv-x="1197" 
d="M85 968v126l1021 -488v-59l-1021 -488v117l845 396z" />
    <glyph glyph-name="question" unicode="?" horiz-adv-x="755" 
d="M280 1465q165 0 277.5 -121.5t112.5 -319.5q0 -185 -100 -305.5t-260 -156.5l6 -120h-48l-70 385q190 5 285.5 51.5t94.5 136.5q-1 109 -126 164.5t-356 55.5q-11 30 -11 64q0 72 51.5 118.5t143.5 47.5zM309 -19q-62 0 -105.5 42t-43.5 103q0 60 43.5 102t105.5 42
q61 0 104 -42t43 -102q0 -61 -43 -103t-104 -42z" />
    <glyph glyph-name="at" unicode="@" horiz-adv-x="2012" 
d="M562 373q0 154 56 294.5t161.5 231t234.5 90.5q159 0 212 -142l134 122h120l-151 -703q-32 -157 90 -157q69 0 140.5 38t133 107t101 180.5t39.5 242.5q0 202 -96.5 354t-266 232t-386.5 80q-182 0 -348.5 -69t-289.5 -189t-196 -292.5t-73 -369.5q0 -173 57.5 -318
t156.5 -242.5t233.5 -151t287.5 -53.5q262 0 431 100v-61q-75 -58 -196 -89t-252 -31q-132 0 -254.5 37.5t-223 111t-175 174t-116 233.5t-41.5 283q0 216 79.5 405.5t214.5 320.5t318 206.5t385 75.5q242 0 434 -91.5t300.5 -260t108.5 -386.5q0 -146 -46.5 -273
t-125.5 -214.5t-185 -137.5t-222 -50q-136 0 -198 64t-51 177q0 2 3.5 20.5t3.5 19.5q-48 -120 -133 -185.5t-181 -65.5q-108 0 -168 88.5t-60 243.5zM810 363q0 -195 99 -195q70 0 131.5 75.5t83.5 176.5l73 345q-3 63 -33.5 99t-82.5 36q-59 0 -111.5 -51.5t-86.5 -131.5
t-53.5 -173.5t-19.5 -180.5z" />
    <glyph glyph-name="A" unicode="A" horiz-adv-x="1433" 
d="M1244 266q43 -117 80 -155.5t119 -51.5v-59h-626v59q104 14 125 55t-18 157l-77 225h-474l-68 -204q-30 -89 -30 -134t30.5 -66.5t105.5 -32.5v-59h-421v59q59 9 90.5 29.5t57.5 65t61 142.5l420 1151h198zM400 574h420l-212 617z" />
    <glyph glyph-name="B" unicode="B" horiz-adv-x="1409" 
d="M1328 418q0 -136 -92.5 -232.5t-237 -141t-322.5 -44.5h-619v59q95 14 121 38t26 92v1066q0 68 -26 92t-121 38v59h619q277 0 430.5 -89t153.5 -256q0 -138 -115.5 -219.5t-290.5 -95.5q218 -12 346 -106t128 -260zM953 1075q0 135 -84 213t-260 84l-104 3v-580l151 1
q144 1 220.5 72.5t76.5 206.5zM1008 402q0 148 -91.5 234.5t-260.5 88.5l-151 1v-657l104 3q191 6 295 90t104 240z" />
    <glyph glyph-name="C" unicode="C" horiz-adv-x="1429" 
d="M91 726q0 173 60 315t165 234.5t246 143t304 50.5q159 0 278.5 -27.5t184.5 -72.5l12 -360h-56q-40 182 -142 279.5t-258 97.5q-214 0 -337 -175t-123 -468q0 -189 54 -343t161 -248t248 -94q153 0 256 97t145 290h56l-11 -360q-63 -46 -191.5 -78t-273.5 -32
q-164 0 -306 52.5t-247 147.5t-165 237.5t-60 313.5z" />
    <glyph glyph-name="D" unicode="D" horiz-adv-x="1584" 
d="M1503 746q0 -173 -68.5 -315.5t-185.5 -235.5t-272.5 -144t-330.5 -51h-589v59q95 14 121 38t26 92v1066q0 68 -26 92t-121 38v59h582q192 0 351 -46t273 -133.5t177 -220t63 -298.5zM1170 725q1 289 -150.5 464t-419.5 183l-95 3v-1306l95 3q266 8 418 181.5t152 471.5z
" />
    <glyph glyph-name="E" unicode="E" horiz-adv-x="1279" 
d="M1154 1444l14 -376h-56q-41 172 -120.5 231.5t-277.5 68.5l-209 7v-602l237 4q80 3 111 43t56 161h52v-485h-52q-22 120 -54 161t-113 44l-237 4v-636l236 9q90 4 148 14t105 31t76.5 60t50.5 93.5t39 139.5h57l-16 -416h-1144v59q95 14 121 38t26 92v1066q0 68 -26 92
t-121 38v59h1097z" />
    <glyph glyph-name="F" unicode="F" horiz-adv-x="1180" 
d="M1124 1444l13 -376h-57q-39 173 -117 232t-271 68l-187 7v-614l207 4q79 3 110 42.5t55 161.5h53v-485h-53q-21 121 -53 161.5t-112 42.5l-207 4v-489q0 -75 29.5 -103t130.5 -41v-59h-608v59q95 14 121 38t26 92v1066q0 68 -26 92t-121 38v59h1067z" />
    <glyph glyph-name="G" unicode="G" horiz-adv-x="1559" 
d="M91 724q0 175 60.5 317.5t165.5 235t246.5 142.5t305.5 50q161 0 282.5 -27.5t187.5 -72.5l11 -359h-56q-41 181 -144.5 278.5t-262.5 97.5q-216 0 -339 -175t-123 -468q0 -190 53.5 -344t159.5 -247.5t247 -93.5q155 0 238 66v384q0 68 -27 90.5t-126 32.5v59h565v-59
q-92 -10 -117 -33t-25 -91v-392q-88 -64 -231 -102t-298 -38q-221 0 -396 91t-276 262.5t-101 395.5z" />
    <glyph glyph-name="H" unicode="H" horiz-adv-x="1647" 
d="M505 183q0 -65 25.5 -88t113.5 -36v-59h-587v59q95 14 121 38t26 92v1066q0 68 -26 92t-121 38v59h587v-60q-88 -13 -113.5 -36t-25.5 -87v-485h637v485q0 65 -25 88t-113 36v59h586v-59q-94 -14 -120.5 -38t-26.5 -92v-1066q0 -68 26.5 -92t120.5 -38v-59h-586v59
q88 13 113 36t25 88v518h-637v-518z" />
    <glyph glyph-name="I" unicode="I" horiz-adv-x="710" 
d="M505 189q0 -68 26.5 -92t120.5 -38v-59h-595v59q95 14 121 38t26 92v1066q0 68 -26 92t-121 38v59h595v-59q-94 -14 -120.5 -38t-26.5 -92v-1066z" />
    <glyph glyph-name="J" unicode="J" horiz-adv-x="710" 
d="M505 264q0 -130 -35 -229.5t-110 -177.5t-171.5 -136t-240.5 -120l-26 52q108 71 168 152.5t87 195.5t27 288v966q0 68 -26 92t-121 38v59h595v-59q-94 -14 -120.5 -38t-26.5 -92v-991z" />
    <glyph glyph-name="K" unicode="&#x212a;" horiz-adv-x="1426" 
d="M505 183q0 -65 25.5 -88t113.5 -36v-59h-587v59q95 14 121 38t26 92v1066q0 68 -26 92t-121 38v59h587v-60q-88 -13 -113.5 -36t-25.5 -87v-482l129 1l348 417q81 97 73 136.5t-113 51.5v59h455v-59q-90 -19 -157 -64.5t-179 -163.5l-216 -231l342 -586q93 -158 141 -212
t103 -72v-56h-380l-416 707h-130v-524z" />
    <glyph glyph-name="K" unicode="K" horiz-adv-x="1426" 
d="M505 183q0 -65 25.5 -88t113.5 -36v-59h-587v59q95 14 121 38t26 92v1066q0 68 -26 92t-121 38v59h587v-60q-88 -13 -113.5 -36t-25.5 -87v-482l129 1l348 417q81 97 73 136.5t-113 51.5v59h455v-59q-90 -19 -157 -64.5t-179 -163.5l-216 -231l342 -586q93 -158 141 -212
t103 -72v-56h-380l-416 707h-130v-524z" />
    <glyph glyph-name="L" unicode="L" horiz-adv-x="1184" 
d="M1126 0h-1069v59q95 14 121 38t26 92v1066q0 68 -26 92t-121 38v59h608v-59q-102 -13 -131 -40t-29 -100v-1176l174 6q99 5 161 21t111 57.5t79.5 109t55.5 178.5h56z" />
    <glyph glyph-name="M" unicode="M" horiz-adv-x="1851" 
d="M538 1444l399 -1107l368 1108l473 -1v-59q-91 -13 -118.5 -38t-25.5 -92l31 -1066q2 -70 28.5 -93.5t119.5 -36.5v-59h-588v59q91 12 117.5 36t24.5 91l-29 1068l-351 -968l-88 -286h-148l-461 1256l-6 -1006q-1 -107 25 -142t121 -49v-59h-404v59q94 13 120.5 48
t31.5 141l32 981q3 79 -24.5 111t-113.5 45v59h466z" />
    <glyph glyph-name="N" unicode="N" horiz-adv-x="1503" 
d="M487 1444l753 -1138l-18 883q-2 112 -29.5 147.5t-125.5 48.5v59h408v-59q-94 -14 -119.5 -49.5t-27.5 -144.5l-11 -1191h-239l-816 1230l18 -975q1 -59 6 -90.5t22 -55t45.5 -33.5t80.5 -17v-59h-408v59q94 14 120 50t27 144l9 974q1 79 -27 110.5t-114 47.5v59h446z
" />
    <glyph glyph-name="O" unicode="O" horiz-adv-x="1681" 
d="M91 721q0 156 54 293t150 238t237.5 159t307.5 58q151 0 287 -53t239 -147.5t163.5 -236t60.5 -308.5q0 -209 -92 -379t-264 -270t-393 -100q-151 0 -287.5 53t-239 148t-163 236.5t-60.5 308.5zM425 737q0 -194 51 -347.5t148 -242.5t226 -89q105 0 184 48.5t127 137
t71 204.5t23 260q0 194 -50.5 347.5t-147.5 242t-226 88.5q-85 0 -153 -32t-114.5 -89t-78 -138.5t-46 -178.5t-14.5 -211z" />
    <glyph glyph-name="P" unicode="P" horiz-adv-x="1364" 
d="M1283 1022q0 -144 -83.5 -247t-223 -152.5t-321.5 -49.5h-150v-370q0 -75 29.5 -103t130.5 -41v-59h-608v59q95 14 121 38t26 92v1066q0 68 -26 92t-121 38v59h598q301 0 464.5 -108t163.5 -314zM964 1007q0 164 -94.5 260.5t-282.5 104.5l-82 3v-733l82 3
q187 8 282 102.5t95 259.5z" />
    <glyph glyph-name="Q" unicode="Q" horiz-adv-x="1681" 
d="M91 721q0 156 54 293t150 238t237.5 159t308.5 58q151 0 287 -53t238.5 -147.5t163 -236t60.5 -308.5q0 -250 -132.5 -442.5t-359.5 -266.5l87 -71q140 -112 233 -151t184 -28v-55q-138 -79 -289 -79q-103 0 -192 44.5t-228 174.5l-141 130q-137 15 -257 73.5t-210 152.5
t-142 227t-52 288zM425 737q0 -194 51 -347.5t148 -242.5t226 -89q105 0 184 48.5t126.5 137t71 204.5t23.5 260q1 194 -50 347.5t-148.5 242t-226.5 88.5q-105 0 -184 -48t-126.5 -136.5t-71 -204.5t-23.5 -260z" />
    <glyph glyph-name="R" unicode="R" horiz-adv-x="1395" 
d="M1264 1054q1 -127 -77.5 -217t-211.5 -126l197 -392q53 -101 90.5 -156.5t62.5 -76t57 -30.5v-56h-359l-326 648h-192v-465q0 -63 25.5 -86.5t113.5 -37.5v-59h-587v59q94 15 120.5 39t26.5 91v1066q0 69 -26 93t-121 37v59h610q294 0 445 -103.5t152 -286.5zM960 1036
q0 151 -90 240t-271 96l-94 3v-659l113 4q161 6 251.5 87t90.5 229z" />
    <glyph glyph-name="S" unicode="S" horiz-adv-x="1223" 
d="M585 -25q-148 0 -273.5 30.5t-201.5 78.5l-12 356h55q40 -183 156.5 -282.5t272.5 -99.5q127 0 204 67.5t77 177.5q0 99 -63 166t-199 114l-121 40q-381 127 -381 429q0 192 150 304.5t395 112.5q134 0 241.5 -27.5t165.5 -69.5l10 -331h-56q-36 166 -130 255.5
t-230 89.5q-131 0 -202.5 -62t-71.5 -164q0 -94 64 -155.5t197 -106.5l120 -41q194 -65 288.5 -174t94.5 -267q0 -133 -74 -234.5t-198 -154t-278 -52.5z" />
    <glyph glyph-name="T" unicode="T" horiz-adv-x="1352" 
d="M1296 1444l13 -376h-56q-18 90 -42.5 144t-69 89t-105 50t-158.5 21l-51 3v-1172q0 -75 29 -103t130 -41v-59h-619v59q100 13 129 41t29 103v1172l-51 -3q-98 -6 -157.5 -21t-104.5 -49.5t-70 -89t-43 -144.5h-56l13 376h1240z" />
    <glyph glyph-name="U" unicode="U" horiz-adv-x="1521" 
d="M173 1260q0 65 -25.5 88.5t-113.5 36.5v59h587v-59q-94 -14 -120.5 -38t-26.5 -92v-695q0 -224 106.5 -339.5t284.5 -115.5q182 0 287.5 121t103.5 341l-8 623q-2 110 -29.5 145.5t-126.5 49.5v59h403v-60q-91 -13 -116 -48t-27 -144l-8 -643q-4 -264 -155.5 -419
t-422.5 -155q-97 0 -183.5 21t-162 67t-130 112.5t-86 162.5t-31.5 213v709z" />
    <glyph glyph-name="V" unicode="V" horiz-adv-x="1428" 
d="M188 1178q-42 116 -79.5 155t-118.5 52v59h626v-59q-103 -14 -124.5 -55t16.5 -157l315 -920l301 899q43 130 23 173.5t-130 59.5v59h421v-59q-59 -9 -91 -29t-57.5 -65.5t-60.5 -142.5l-418 -1151h-199z" />
    <glyph glyph-name="W" unicode="W" horiz-adv-x="2202" 
d="M184 1178q-37 117 -75 156t-118 51v59h621v-59q-103 -14 -124 -54.5t12 -153.5l261 -899l252 898q18 63 22.5 97.5t-8 58.5t-40 34.5t-81.5 18.5v59h589v-59q-42 -6 -65.5 -14.5t-39 -21t-17 -36.5t3.5 -53.5t19 -79.5l257 -902l249 877q16 55 21.5 88.5t3 60t-19 41.5
t-42.5 24t-71 16v59h419v-59q-85 -13 -123 -55.5t-82 -181.5l-366 -1151h-195l-343 1139l-354 -1139h-192z" />
    <glyph glyph-name="X" unicode="X" horiz-adv-x="1406" 
d="M283 297l272 395l-323 508q-59 94 -101 130t-114 55v59h625v-59q-44 -7 -69 -15.5t-38.5 -21t-11 -33.5t14.5 -47t38 -67l233 -366l205 332q31 50 46.5 82t20.5 57t-8 39.5t-38 23.5t-70 16v59h426v-59q-84 -13 -135 -55t-142 -175l-264 -385l335 -527q58 -93 102 -129
t118 -55v-59h-630v59q102 16 114 54t-48 130l-244 383l-217 -346q-32 -51 -47.5 -83.5t-20.5 -58t8 -40t38.5 -23.5t70.5 -16v-59h-428v59q84 13 135.5 56t146.5 182z" />
    <glyph glyph-name="Y" unicode="Y" horiz-adv-x="1374" 
d="M218 1187q-69 114 -109.5 149.5t-115.5 48.5v59h618v-59q-100 -14 -113.5 -54t47.5 -147l257 -452l233 432q45 84 53.5 126.5t-17.5 63.5t-99 31v59h409v-59q-78 -14 -122 -54t-122 -170l-298 -501v-457q0 -75 29 -103t130 -41v-59h-619v59q101 13 130 41t29 103v441z
" />
    <glyph glyph-name="Z" unicode="Z" horiz-adv-x="1287" 
d="M1197 0h-1122v56l785 1319l-279 -9q-96 -4 -159.5 -14.5t-111 -29.5t-77 -54.5t-49 -81.5t-36.5 -118h-55l15 376h1090v-56l-786 -1319l284 10q99 4 162 13.5t115.5 30.5t85 59.5t56 93.5t42.5 140h55z" />
    <glyph glyph-name="bracketleft" unicode="[" horiz-adv-x="706" 
d="M179 -284v1868l461 -4v-61l-222 -6v-1726l222 -6v-61z" />
    <glyph glyph-name="backslash" unicode="\" horiz-adv-x="706" 
d="M535 -280l-498 1860h135l498 -1860h-135z" />
    <glyph glyph-name="bracketright" unicode="]" horiz-adv-x="706" 
d="M527 1584v-1868l-461 4v61l221 6v1726l-221 6v61z" />
    <glyph glyph-name="asciicircum" unicode="^" horiz-adv-x="1196" 
d="M568 1444h60l440 -584l-83 -75l-388 515l-389 -514l-79 74z" />
    <glyph glyph-name="underscore" unicode="_" horiz-adv-x="1024" 
d="M27 -343v126h970v-126h-970z" />
    <glyph glyph-name="grave" unicode="`" horiz-adv-x="1024" 
d="M568 1119l-367 363v9h298l144 -372h-75z" />
    <glyph glyph-name="a" unicode="a" horiz-adv-x="1127" 
d="M369 -20q-129 0 -210.5 68.5t-81.5 176.5q0 118 95 193t311 121l208 44v94q0 131 -62 190t-179 59q-85 0 -156 -33q38 -12 62 -45t24 -75q0 -53 -38.5 -90t-95.5 -37q-56 0 -94.5 36t-38.5 90q0 103 120.5 172t309.5 69q201 0 311 -81.5t110 -247.5v-481
q0 -61 27.5 -90.5t73.5 -29.5q25 0 44 7v-56q-69 -49 -186 -49q-86 0 -148 40.5t-77 113.5q-36 -70 -125 -114.5t-204 -44.5zM353 271q0 -80 45.5 -125t118.5 -45q120 0 174 90v323l-94 -21q-133 -30 -188.5 -83t-55.5 -139z" />
    <glyph glyph-name="b" unicode="b" horiz-adv-x="1239" 
d="M1157 507q0 -120 -37 -220t-101.5 -166.5t-150.5 -103.5t-183 -37q-100 0 -177.5 40.5t-114.5 105.5l-111 -126h-135v1282q0 45 -11 61t-53 29l-60 18v54l402 48l-1 -662q38 84 126.5 134t199.5 50q173 0 290 -137t117 -370zM870 481q0 186 -70.5 293t-184.5 107
q-132 0 -190 -104v-603q22 -41 70.5 -68.5t109.5 -27.5q119 0 192 108t73 295z" />
    <glyph glyph-name="c" unicode="c" horiz-adv-x="1041" 
d="M594 -20q-144 0 -260 62t-184 180t-68 271q0 152 70.5 271.5t192.5 184t272 64.5q170 0 265.5 -71t95.5 -178q0 -60 -39 -99t-95 -39t-94.5 38t-38.5 93q0 51 32 88t80 42q-59 37 -144 37q-139 0 -224 -103.5t-85 -275.5q0 -198 104 -314.5t264 -116.5q73 0 138.5 24
t107.5 64v-60q-55 -74 -158 -118t-232 -44z" />
    <glyph glyph-name="d" unicode="d" horiz-adv-x="1261" 
d="M82 487q0 119 36.5 219t100 166.5t148.5 103.5t181 37q87 0 158 -32t107 -85v386q0 45 -11 61t-53 29l-61 18v54l404 47v-1295q0 -45 11.5 -61t53.5 -29l60 -18v-54l-400 -45v177q-39 -85 -127.5 -135.5t-200.5 -50.5q-173 0 -290 137t-117 370zM369 512q0 -186 70 -293
t184 -107q133 0 190 105v604q-20 41 -69.5 68t-110.5 27q-119 0 -191.5 -108t-72.5 -296z" />
    <glyph glyph-name="e" unicode="e" horiz-adv-x="1092" 
d="M82 493q0 231 138 375.5t362 144.5q202 0 317 -114.5t115 -306.5q0 -35 -4 -69h-646q15 -190 119 -300.5t266 -110.5q74 0 138.5 24.5t106.5 66.5v-60q-55 -75 -159.5 -119t-236.5 -44q-223 0 -369.5 140.5t-146.5 372.5zM581 934q-103 0 -161 -89.5t-58 -252.5l400 3
q1 12 1 44q0 138 -46.5 216.5t-135.5 78.5z" />
    <glyph glyph-name="f" unicode="f" horiz-adv-x="733" 
d="M456 172q0 -59 24.5 -79.5t114.5 -33.5v-59h-541v59q79 11 101.5 30t22.5 71v737h-124v48l125 47v128q0 184 98.5 283.5t257.5 99.5q119 0 183.5 -48.5t64.5 -124.5q0 -46 -31.5 -77.5t-76.5 -31.5q-46 0 -77 31t-31 78q0 59 48 89q-14 2 -22 2q-137 0 -137 -215v-223
l257 11v-97l-257 11v-736z" />
    <glyph glyph-name="g" unicode="g" horiz-adv-x="1148" 
d="M91 677q0 149 130 242.5t327 93.5q129 0 231 -40l346 21v-96l-268 17q69 -31 110 -93.5t41 -140.5q0 -149 -130.5 -238t-322.5 -89q-55 0 -118 10q-113 -27 -113 -105q0 -93 164 -93h191q197 0 301 -75.5t104 -215.5q0 -161 -151.5 -262.5t-380.5 -101.5
q-231 0 -365.5 66t-134.5 175q0 82 83 135t250 67q-127 2 -205.5 55t-78.5 141q1 87 74.5 147t205.5 83q-129 24 -209.5 102t-80.5 195zM366 688q0 -119 52 -190t137 -71q82 0 131.5 68.5t49.5 183.5q0 119 -50.5 190t-138.5 71q-85 0 -133 -68.5t-48 -183.5zM290 -223
q0 -83 72 -135t196 -52q132 0 212.5 54t80.5 143q0 153 -217 153h-184q-77 -10 -118.5 -53t-41.5 -110z" />
    <glyph glyph-name="h" unicode="h" horiz-adv-x="1297" 
d="M456 1492l-2 -659q42 82 130.5 131t207.5 49q157 0 249 -81.5t92 -235.5v-534q0 -53 22.5 -72t102.5 -31v-59h-514v59q71 10 91 28t20 69v505q0 108 -52.5 164t-149.5 56q-68 0 -119.5 -27.5t-77.5 -73.5v-624q0 -51 19.5 -68.5t90.5 -28.5v-59h-513v59q79 12 101.5 31
t22.5 72v1120q0 45 -11 61t-53 29l-60 18v54z" />
    <glyph glyph-name="i" unicode="i" horiz-adv-x="624" 
d="M296 1163q-63 0 -107.5 42t-44.5 103q0 62 44 104t108 42t108.5 -42t44.5 -104q0 -61 -44.5 -103t-108.5 -42zM456 1006v-844q0 -53 22.5 -72t101.5 -31v-59h-527v59q79 12 101.5 31t22.5 72v634q0 45 -11 61t-53 29l-60 18v54z" />
    <glyph glyph-name="j" unicode="j" horiz-adv-x="597" 
d="M285 1163q-63 0 -107.5 42t-44.5 103q0 62 44 104t108 42t108 -42t44 -104q0 -61 -44.5 -103t-107.5 -42zM445 1006v-812q0 -160 -35 -265.5t-111.5 -186.5t-223.5 -175l-68 -44l-34 49q115 101 154.5 221t39.5 350v653q0 45 -11 61t-53 29l-61 18v54z" />
    <glyph glyph-name="k" unicode="k" horiz-adv-x="1189" 
d="M844 0l-281 489l-107 1v-334q0 -51 19.5 -68.5t90.5 -28.5v-59h-513v59q79 12 101.5 31t22.5 72v1120q0 45 -11 61t-53 29l-60 18v54l403 48v-931l104 2l208 219q68 70 59 103.5t-101 48.5v60h424v-60q-83 -17 -144 -52t-172 -134l-72 -66l238 -412q63 -114 104.5 -157
t91.5 -57v-56h-352z" />
    <glyph glyph-name="l" unicode="l" horiz-adv-x="625" 
d="M456 1492v-1330q0 -53 22.5 -72t101.5 -31v-59h-527v59q79 12 101.5 31t22.5 72v1120q0 45 -11 61t-53 29l-60 18v54z" />
    <glyph glyph-name="m" unicode="m" horiz-adv-x="1933" 
d="M452 1006v-176q41 82 128.5 132.5t204.5 50.5q118 0 200.5 -48t111.5 -136q40 82 130.5 133t208.5 51q154 0 243.5 -82t89.5 -237v-532q0 -52 23 -71.5t102 -31.5v-59h-514v59q72 11 91.5 28.5t19.5 68.5v503q0 110 -50 166t-143 56q-133 0 -191 -93q6 -34 6 -75v-557
q0 -51 19.5 -69t91.5 -28v-59h-500v59q71 10 91 28t20 69v503q0 110 -49.5 166t-140.5 56q-66 0 -114.5 -27.5t-74.5 -73.5v-624q0 -51 19.5 -69t90.5 -28v-59h-513v59q79 12 101.5 31t22.5 72v634q0 45 -11 61t-53 29l-60 18v54z" />
    <glyph glyph-name="n" unicode="n" horiz-adv-x="1297" 
d="M452 1006v-176q42 83 131 133t209 50q157 0 249 -81.5t92 -235.5v-534q0 -53 22.5 -72t102.5 -31v-59h-514v59q71 10 91 28t20 69v505q0 108 -52.5 164t-149.5 56q-68 0 -119.5 -27.5t-77.5 -73.5v-624q0 -51 19.5 -68.5t90.5 -28.5v-59h-513v59q79 12 101.5 31t22.5 72
v634q0 45 -11 61t-53 29l-60 18v54z" />
    <glyph glyph-name="o" unicode="o" horiz-adv-x="1241" 
d="M616 -20q-152 0 -273 63t-191 180.5t-70 269.5q0 151 71 270.5t194.5 184.5t277.5 65q152 0 273.5 -63t191.5 -180t70 -269q0 -151 -71 -270.5t-195 -185t-278 -65.5zM626 60q112 0 174.5 114t62.5 313q0 205 -67.5 326t-179.5 121q-114 0 -176 -114t-62 -313
q0 -205 68 -326t180 -121z" />
    <glyph glyph-name="p" unicode="p" horiz-adv-x="1257" 
d="M1175 507q0 -119 -37 -219t-100.5 -167t-149 -104t-181.5 -37q-86 0 -157 32.5t-107 85.5v-386q0 -59 24.5 -79.5t114.5 -33.5v-59h-542v59q80 11 102.5 30t22.5 71v1096q0 45 -11.5 61t-52.5 29l-61 18v54l400 48v-180q38 84 126.5 135.5t200.5 51.5q83 0 157 -34.5
t130 -98t88.5 -160t32.5 -213.5zM888 481q0 184 -70.5 292t-185.5 108q-133 0 -189 -105v-603q21 -42 70 -68.5t111 -26.5q119 0 191.5 109t72.5 294z" />
    <glyph glyph-name="q" unicode="q" horiz-adv-x="1240" 
d="M82 487q0 239 135.5 383.5t336.5 144.5q98 0 176 -41t116 -104l111 124h135v-1294q0 -52 22.5 -71t101.5 -30v-59h-541v59q89 13 113.5 33.5t24.5 79.5l4 456q-39 -86 -127.5 -136.5t-200.5 -50.5q-173 0 -290 137t-117 369zM369 514q0 -186 70 -293t184 -107
q135 0 190 104v603q-21 41 -69.5 68.5t-109.5 27.5q-120 0 -192.5 -108t-72.5 -295z" />
    <glyph glyph-name="r" unicode="r" horiz-adv-x="902" 
d="M453 1006l-1 -252q80 133 148.5 194t139.5 61q61 0 92 -39t31 -101q0 -60 -21 -95q-46 16 -127 16q-78 0 -151 -22t-109 -57l1 -539q0 -60 24 -80t114 -33v-59h-541v59q79 11 101.5 30t22.5 71v636q0 45 -11.5 61t-52.5 29l-60 18v54z" />
    <glyph glyph-name="s" unicode="s" horiz-adv-x="968" 
d="M89 707q0 143 115.5 224.5t312.5 81.5q105 0 189.5 -18.5t129.5 -45.5l5 -256h-56q-25 115 -94.5 177.5t-169.5 62.5q-88 0 -138.5 -37.5t-50.5 -101.5q0 -59 44 -94.5t137 -64.5l84 -24q146 -44 219.5 -120.5t73.5 -197.5q0 -143 -123 -227t-310 -84q-110 0 -208 23
t-157 59l-10 272h57q27 -127 113 -201t199 -74q89 0 142.5 41.5t53.5 106.5q0 61 -41 99.5t-135 67.5l-84 25q-145 44 -221.5 117t-76.5 189z" />
    <glyph glyph-name="t" unicode="t" horiz-adv-x="735" 
d="M164 285v612h-123v48l359 270h40v-233l265 12v-97l-265 11v-607q0 -199 153 -199q75 0 126 41v-60q-35 -42 -110.5 -72.5t-158.5 -30.5q-128 0 -207 73.5t-79 231.5z" />
    <glyph glyph-name="u" unicode="u" horiz-adv-x="1265" 
d="M432 1006v-670q0 -110 51.5 -167t146.5 -57q64 0 113 28t76 73v583q0 45 -11 61t-53 29l-61 18v54l403 48v-810q0 -45 11.5 -61t52.5 -29l60 -18v-54l-400 -45v174q-41 -83 -128.5 -133t-205.5 -50q-153 0 -243 82.5t-90 238.5v495q0 45 -11 61t-53 29l-61 18v54z" />
    <glyph glyph-name="v" unicode="v" horiz-adv-x="1078" 
d="M161 771q-36 90 -65.5 119.5t-94.5 43.5v60h556v-60q-92 -11 -109.5 -43.5t16.5 -132.5l176 -497l174 494q35 102 17.5 135t-108.5 44v60h354v-60q-66 -12 -96.5 -45.5t-74.5 -144.5l-294 -746h-147z" />
    <glyph glyph-name="w" unicode="w" horiz-adv-x="1689" 
d="M160 771q-31 89 -62 119t-97 44v60h535v-60q-79 -10 -94 -43t16 -133l149 -478l157 478q31 99 17 132.5t-89 43.5v60h504v-60q-76 -9 -90 -42.5t17 -133.5l152 -478l154 475q32 102 16.5 135.5t-94.5 43.5v60h337v-60q-66 -12 -97 -45.5t-71 -143.5l-271 -747h-146
l-257 725l-265 -725h-145z" />
    <glyph glyph-name="x" unicode="x" horiz-adv-x="1080" 
d="M910 190q48 -67 81.5 -93.5t85.5 -37.5v-59h-536v59q88 10 99.5 38.5t-41.5 107.5l-143 200l-136 -199q-35 -53 -39.5 -82t17 -43t77.5 -22v-59h-372v59q73 16 114 47t109 122l185 242l-241 337q-47 66 -79.5 91t-82.5 36v60h533v-60q-88 -9 -100.5 -37.5t39.5 -103.5
l142 -199l138 200q50 77 38.5 103t-97.5 37v60h365v-60q-69 -13 -108 -43t-102 -115l-188 -246z" />
    <glyph glyph-name="y" unicode="y" horiz-adv-x="1074" 
d="M161 771q-37 91 -66.5 120.5t-93.5 42.5v60h550v-60q-91 -11 -108 -43t17 -127l174 -479l174 475q35 98 18 130.5t-108 43.5v60h356v-60q-67 -12 -98 -44.5t-75 -140.5l-207 -507l-107 -260l-157 -442h-225v5q65 77 146.5 200t138.5 230z" />
    <glyph glyph-name="z" unicode="z" horiz-adv-x="958" 
d="M75 994h821v-54l-531 -873l207 7q131 6 188 58.5t86 203.5h56l-7 -336h-839v54l528 872l-175 -6q-139 -7 -195.5 -54.5t-91.5 -184.5h-55z" />
    <glyph glyph-name="braceleft" unicode="{" horiz-adv-x="706" 
d="M463 996q0 -158 -78 -241.5t-242 -103.5q164 -20 242 -103.5t78 -241.5v-252q0 -66 7 -111t26.5 -84.5t59 -59t100.5 -19.5v-60h-42q-195 0 -293.5 92t-98.5 268v328q0 112 -52 164t-143 52v54q91 0 143 51.5t52 162.5v329q0 175 98.5 267t293.5 92h42v-60
q-61 0 -100.5 -19.5t-59 -59t-26.5 -84t-7 -110.5v-251z" />
    <glyph glyph-name="bar" unicode="|" horiz-adv-x="706" 
d="M286 -280v1860h135v-1860h-135z" />
    <glyph glyph-name="braceright" unicode="}" horiz-adv-x="706" 
d="M243 996v251q0 66 -7 110.5t-26 84t-58.5 59t-100.5 19.5v60h41q195 0 293.5 -92t98.5 -267v-329q0 -110 52 -162t142 -52v-54q-91 0 -142.5 -52t-51.5 -164v-328q0 -176 -98.5 -268t-293.5 -92h-41v60q49 0 84 14t56 36.5t32.5 59t15.5 74.5t4 90v252q0 158 78 241.5
t242 103.5q-164 20 -242 103.5t-78 241.5z" />
    <glyph glyph-name="asciitilde" unicode="&#x223c;" horiz-adv-x="1196" 
d="M862 513q75 0 118 59.5t44 183.5h104q0 -179 -71 -269.5t-196 -90.5q-52 0 -110 25t-108.5 60.5t-100 71.5t-100.5 61t-93 25q-74 0 -117 -59t-44 -184h-104q0 180 71 270.5t196 90.5q52 0 110 -25t108.5 -61t99.5 -72t100 -61t93 -25z" />
    <glyph glyph-name="asciitilde" unicode="~" horiz-adv-x="1196" 
d="M862 513q75 0 118 59.5t44 183.5h104q0 -179 -71 -269.5t-196 -90.5q-52 0 -110 25t-108.5 60.5t-100 71.5t-100.5 61t-93 25q-74 0 -117 -59t-44 -184h-104q0 180 71 270.5t196 90.5q52 0 110 -25t108.5 -61t99.5 -72t100 -61t93 -25z" />
    <glyph glyph-name="exclamdown" unicode="&#xa1;" horiz-adv-x="665" 
d="M333 968q61 0 105 -42.5t44 -102.5q0 -61 -44 -103.5t-105 -42.5t-104.5 42.5t-43.5 103.5q0 60 43.5 102.5t104.5 42.5zM332 -514q-71 0 -114 49t-43 129q0 115 58 408l79 439h43l79 -440q57 -291 57 -407q0 -80 -44 -129t-115 -49z" />
    <glyph glyph-name="cent" unicode="&#xa2;" horiz-adv-x="1056" 
d="M633 0h-54v205q-214 4 -355.5 144t-141.5 367q0 220 140 364t357 158v206h54v-205q168 -2 265 -66.5t97 -168.5q0 -56 -37.5 -94t-92.5 -38t-92.5 38t-37.5 93q0 42 24.5 75t62.5 44q-57 30 -137 30q-29 0 -52 -4v-795q51 -14 105 -14q78 0 147.5 24t113.5 65v-59
q-51 -70 -147.5 -113t-218.5 -50v-206zM365 770q0 -145 57.5 -247.5t156.5 -149.5v762q-99 -34 -156.5 -130t-57.5 -235z" />
    <glyph glyph-name="sterling" unicode="&#xa3;" horiz-adv-x="1201" 
d="M120 748h186q-32 60 -50 98t-34.5 99.5t-16.5 119.5q0 99 39.5 177.5t107 126.5t154 73.5t183.5 25.5q169 0 279 -71.5t110 -188.5q0 -56 -38.5 -93.5t-93.5 -37.5q-56 0 -93.5 37t-37.5 92q0 48 29.5 83t73.5 41q-69 50 -173 50q-116 0 -184.5 -65t-68.5 -189
q0 -59 16.5 -119.5t49 -143t43.5 -115.5h304v-54h-288q14 -63 14 -109q0 -117 -78.5 -210.5t-211.5 -145.5h739l-2 -229h-937v180q116 44 186 124t70 185q0 83 -62 205h-215v54z" />
    <glyph glyph-name="currency" unicode="&#xa4;" horiz-adv-x="1201" 
d="M599 173q-131 0 -236 75l-154 -157l-84 85l153 156q-82 108 -82 244t82 245l-153 157l84 84l154 -158q105 76 237 76q133 0 238 -77l154 159l85 -84l-155 -158q81 -106 81 -244q0 -136 -80 -243l154 -157l-85 -85l-154 158q-106 -76 -239 -76zM599 281q121 0 204.5 85
t83.5 210q0 126 -83 210.5t-204 84.5t-204.5 -84.5t-83.5 -210.5q0 -125 83.5 -210t203.5 -85z" />
    <glyph glyph-name="yen" unicode="&#xa5;" horiz-adv-x="1201" 
d="M127 492h334v224h-334v54h308l-232 417q-63 113 -105.5 149.5t-116.5 48.5v59h589v-59q-94 -13 -106.5 -50.5t41.5 -140.5l199 -384l184 359q43 84 49.5 126t-19.5 61.5t-96 28.5v59h397v-59q-80 -14 -123 -53t-115 -165l-224 -397h316v-54h-334v-224h334v-54h-334v-235
q0 -75 29 -103t129 -41v-59h-595v59q101 13 130 41t29 103v235h-334v54z" />
    <glyph glyph-name="brokenbar" unicode="&#xa6;" horiz-adv-x="706" 
d="M286 789v791h135v-791h-135zM286 -280v791h135v-791h-135z" />
    <glyph glyph-name="section" unicode="&#xa7;" horiz-adv-x="1071" 
d="M97 579q0 122 92.5 199t230.5 77q23 0 34 -1q-142 68 -209.5 143t-67.5 183q0 134 109.5 212t284.5 78q94 0 171 -19t121 -46l5 -237h-56q-25 109 -86.5 165.5t-152.5 56.5q-84 0 -129.5 -38.5t-45.5 -106.5q-1 -66 45.5 -111t149.5 -93l86 -40q160 -72 231.5 -151.5
t71.5 -195.5q0 -123 -94.5 -197.5t-236.5 -74.5q-15 0 -23 1q132 -64 196.5 -144.5t64.5 -185.5q0 -141 -114.5 -221t-284.5 -80q-195 0 -329 84l-8 248h56q27 -120 98.5 -185.5t178.5 -65.5q88 0 135 43t47 116q0 66 -42 111.5t-142 92.5l-87 40q-78 35 -130 67.5
t-92.5 73.5t-59 90.5t-18.5 111.5zM771 580q0 116 -142 191q-87 47 -156 47q-71 0 -118 -46t-47 -117q0 -113 143 -189q86 -47 155 -47q71 0 118 45t47 116z" />
    <glyph glyph-name="dieresis" unicode="&#xa8;" horiz-adv-x="1024" 
d="M287 1179q-58 0 -97.5 37t-39.5 93q0 55 40 92.5t97 37.5t96.5 -37.5t39.5 -92.5q0 -56 -39.5 -93t-96.5 -37zM737 1179q-57 0 -96.5 37t-39.5 93q0 55 39.5 92.5t96.5 37.5t97 -37.5t40 -92.5q0 -56 -39.5 -93t-97.5 -37z" />
    <glyph glyph-name="copyright" unicode="&#xa9;" horiz-adv-x="1678" 
d="M839 -25q-151 0 -289.5 59.5t-239 160t-160 239t-59.5 289.5t59.5 289.5t160 239t239 160t289.5 59.5t289.5 -59.5t239 -160t160 -239t59.5 -289.5t-59.5 -289.5t-160 -239t-239 -160t-289.5 -59.5zM839 30q138 0 265 55t219.5 148t147 221.5t54.5 268.5t-54.5 268.5
t-147 221.5t-219.5 148t-265 55q-139 0 -266 -55t-219 -148t-146.5 -221.5t-54.5 -268.5t54.5 -268.5t146.5 -221.5t219 -148t266 -55zM490 723q0 172 112 271.5t285 99.5q161 0 230 -48l5 -195h-34q-20 91 -68 141t-121 50q-97 0 -152 -85t-55 -227q0 -138 56.5 -232.5
t152.5 -94.5q70 0 119 50.5t70 146.5h34l-5 -196q-31 -23 -95 -37.5t-136 -14.5q-173 0 -285.5 101t-112.5 270z" />
    <glyph glyph-name="a.sups" unicode="&#xaa;" horiz-adv-x="702" 
d="M227 846q-74 0 -120 36.5t-46 94.5q0 61 55 103.5t180 67.5l115 23v43q0 128 -131 128q-30 0 -64 -9q37 -24 37 -67q0 -34 -24 -57t-60 -23q-37 0 -61 21.5t-24 55.5q0 58 71 98t185 40q255 0 255 -189v-235q0 -30 15 -45.5t39 -15.5q15 0 24 3v-40q-42 -30 -116 -30
q-53 0 -92 23t-48 64q-20 -40 -71 -65t-119 -25zM245 1007q0 -37 22.5 -58t58.5 -21q59 0 85 40v156l-42 -8q-67 -15 -95.5 -41t-28.5 -68z" />
    <glyph glyph-name="guillemetleft" unicode="&#xab;" horiz-adv-x="1086" 
d="M66 502v26l407 425h97l-259 -435l259 -441h-97zM486 502v26l407 425h97l-259 -435l259 -441h-97z" />
    <glyph glyph-name="logicalnot" unicode="&#xac;" horiz-adv-x="1201" 
d="M120 524v118h961v-540h-119v422h-842z" />
    <glyph glyph-name="registered" unicode="&#xae;" horiz-adv-x="1678" 
d="M839 -25q-151 0 -289.5 59.5t-239 160t-160 239t-59.5 289.5t59.5 289.5t160 239t239 160t289.5 59.5t289.5 -59.5t239 -160t160 -239t59.5 -289.5t-59.5 -289.5t-160 -239t-239 -160t-289.5 -59.5zM839 30q138 0 265 55t219.5 148t147 221.5t54.5 268.5t-54.5 268.5
t-147 221.5t-219.5 148t-265 55q-139 0 -266 -55t-219 -148t-146.5 -221.5t-54.5 -268.5t54.5 -268.5t146.5 -221.5t219 -148t266 -55zM1148 886q0 -61 -36.5 -105t-101.5 -64l93 -192q35 -68 54.5 -92.5t42.5 -31.5v-36h-207l-152 315h-78v-215q0 -31 12 -43t54 -19v-38
h-319v38q45 7 58 20t13 46v508q0 34 -13 46.5t-58 19.5v38h333q151 0 227.5 -52t77.5 -143zM965 876q0 72 -41.5 114.5t-122.5 45.5l-38 1v-314l45 2q71 2 114 41.5t43 109.5z" />
    <glyph glyph-name="macron" unicode="&#xaf;" horiz-adv-x="1024" 
d="M209 1218v153h606v-153h-606z" />
    <glyph glyph-name="degree" unicode="&#xb0;" horiz-adv-x="774" 
d="M387 816q-124 0 -210.5 84t-86.5 206t87 206.5t210 84.5q124 0 211 -84.5t87 -206.5t-87 -206t-211 -84zM387 899q83 0 142 59.5t59 147.5t-59 147.5t-142 59.5t-141.5 -59.5t-58.5 -147.5t58.5 -147.5t141.5 -59.5z" />
    <glyph glyph-name="plusminus" unicode="&#xb1;" horiz-adv-x="1201" 
d="M541 307v319h-421v119h421v319h119v-319h421v-119h-421v-319h-119zM120 102v120h961v-120h-961z" />
    <glyph glyph-name="two.sups" unicode="&#xb2;" horiz-adv-x="678" 
d="M599 869h-533v110l136 126q103 101 144 165.5t41 128.5q0 57 -36.5 92t-96.5 35q-57 0 -98 -29.5t-62 -79.5l-38 17q29 96 102 151t184 55q109 0 175 -57t66 -147q-1 -78 -63.5 -148.5t-212.5 -169.5l-142 -99h434v-150z" />
    <glyph glyph-name="three.sups" unicode="&#xb3;" horiz-adv-x="717" 
d="M321 855q-110 0 -180.5 48t-70.5 117q0 34 23 56.5t58 22.5q33 0 56 -22t23 -55q0 -27 -17 -48t-43 -26q41 -30 103 -30q69 0 113.5 41.5t44.5 111.5q0 76 -52 121t-135 45q-32 0 -55 -5v48q226 25 226 140q0 49 -34 78t-94 29q-58 0 -103 -27t-68 -77l-37 20
q29 90 104 143.5t184 53.5q107 0 171.5 -46t64.5 -121q0 -65 -51 -110t-137 -59q98 -13 155.5 -71t57.5 -141q0 -111 -89 -174t-218 -63z" />
    <glyph glyph-name="acute" unicode="&#xb4;" horiz-adv-x="1024" 
d="M456 1119h-74l151 372h287v-9z" />
    <glyph glyph-name="mugreek" unicode="&#x3bc;" horiz-adv-x="1233" 
d="M137 -460v603q0 699 -3 851h285q-19 -307 -19 -599q0 -139 55.5 -206.5t151.5 -67.5q65 0 112.5 28.5t69.5 81.5l-9 763h287q-4 -99 -12.5 -382t-8.5 -330q-1 -92 26 -131t85 -39q36 0 54 13v-58q-34 -37 -89 -59.5t-117 -22.5q-86 0 -139 50t-64 141
q-24 -85 -98.5 -140.5t-173.5 -55.5q-84 0 -146 35q6 -260 33 -475h-280z" />
    <glyph glyph-name="mugreek" unicode="&#xb5;" horiz-adv-x="1233" 
d="M137 -460v603q0 699 -3 851h285q-19 -307 -19 -599q0 -139 55.5 -206.5t151.5 -67.5q65 0 112.5 28.5t69.5 81.5l-9 763h287q-4 -99 -12.5 -382t-8.5 -330q-1 -92 26 -131t85 -39q36 0 54 13v-58q-34 -37 -89 -59.5t-117 -22.5q-86 0 -139 50t-64 141
q-24 -85 -98.5 -140.5t-173.5 -55.5q-84 0 -146 35q6 -260 33 -475h-280z" />
    <glyph glyph-name="paragraph" unicode="&#xb6;" horiz-adv-x="1302" 
d="M637 -220v771h-74q-85 0 -169 30t-155.5 86t-116 146.5t-44.5 199.5q0 85 28 156.5t75 121.5t109.5 85t131.5 51.5t141 16.5h171v-1664h-97zM958 1444h279v-59q-116 -11 -149 -37.5t-33 -109.5v-1458h-97v1664z" />
    <glyph glyph-name="middledot" unicode="&#x2e31;" horiz-adv-x="528" 
d="M264 425q-65 0 -111 46.5t-46 111.5t46 111.5t111 46.5t111 -46.5t46 -111.5t-46 -111.5t-111 -46.5z" />
    <glyph glyph-name="middledot" unicode="&#x2027;" horiz-adv-x="528" 
d="M264 425q-65 0 -111 46.5t-46 111.5t46 111.5t111 46.5t111 -46.5t46 -111.5t-46 -111.5t-111 -46.5z" />
    <glyph glyph-name="middledot" unicode="&#xb7;" horiz-adv-x="528" 
d="M264 425q-65 0 -111 46.5t-46 111.5t46 111.5t111 46.5t111 -46.5t46 -111.5t-46 -111.5t-111 -46.5z" />
    <glyph glyph-name="cedilla" unicode="&#xb8;" horiz-adv-x="1024" 
d="M483 -466q-69 0 -124.5 21.5t-83.5 57.5v58q50 -36 130 -36q48 0 78.5 20.5t30.5 57.5t-31 57.5t-81 20.5q-30 0 -47 -7l-1 50l154 197h51v-31l-80 -104q9 1 27 1q92 0 154.5 -49t62.5 -132q0 -85 -70.5 -133.5t-169.5 -48.5z" />
    <glyph glyph-name="one.sups" unicode="&#xb9;" horiz-adv-x="628" 
d="M412 1627v-632q0 -42 24.5 -59t97.5 -25v-42h-432v42q74 8 98 24.5t24 59.5v505l-129 -32v38l232 121h85z" />
    <glyph glyph-name="o.sups" unicode="&#xba;" horiz-adv-x="759" 
d="M377 846q-137 0 -225 75.5t-88 198.5q0 124 90 202t228 78t225.5 -75.5t87.5 -198.5t-90 -201.5t-228 -78.5zM382 901q56 0 85.5 57t29.5 160q0 106 -32.5 166.5t-87.5 60.5q-56 0 -85.5 -57t-29.5 -161q0 -105 32 -165.5t88 -60.5z" />
    <glyph glyph-name="guillemetright" unicode="&#xbb;" horiz-adv-x="1086" 
d="M578 529v-27l-408 -425h-96l259 436l-259 440h96zM998 529v-27l-408 -425h-96l259 436l-259 440h96z" />
    <glyph glyph-name="onequarter" unicode="&#xbc;" horiz-adv-x="1531" 
d="M412 1445v-633q0 -42 24.5 -58.5t97.5 -24.5v-42h-432v42q74 8 98 24.5t24 58.5v506l-129 -32v38l232 121h85zM307 0l872 1444h114l-872 -1444h-114zM1203 0v162h-354v94l372 502h151v-470h117v-126h-116v-162h-170zM1203 288v358l-248 -358h248z" />
    <glyph glyph-name="onehalf" unicode="&#xbd;" horiz-adv-x="1603" 
d="M412 1445v-633q0 -42 24.5 -58.5t97.5 -24.5v-42h-432v42q74 8 98 24.5t24 58.5v506l-129 -32v38l232 121h85zM307 0l872 1444h114l-872 -1444h-114zM1523 0h-532v110l135 126q103 101 144 165.5t41 128.5q0 57 -36 92t-97 35q-56 0 -97.5 -29t-62.5 -80l-38 17
q29 96 102 151t185 55q109 0 174.5 -57t65.5 -147q0 -78 -62.5 -148.5t-213.5 -169.5l-142 -99h434v-150z" />
    <glyph glyph-name="threequarters" unicode="&#xbe;" horiz-adv-x="1571" 
d="M321 673q-110 0 -180.5 48t-70.5 117q0 34 23 56t58 22q33 0 56 -21.5t23 -54.5q0 -27 -17 -48t-43 -26q41 -30 103 -30q69 0 113.5 41.5t44.5 111.5q0 76 -52 121t-135 45q-32 0 -55 -5v48q226 25 226 140q0 49 -34 77.5t-94 28.5q-124 0 -171 -103l-37 20
q29 90 104 143.5t184 53.5q107 0 171.5 -46t64.5 -121q0 -65 -51 -110t-137 -59q98 -13 155.5 -71t57.5 -141q0 -111 -89 -174t-218 -63zM347 0l872 1444h114l-872 -1444h-114zM1244 0v162h-355v94l373 502h151v-470h117v-126h-117v-162h-169zM1243 288l1 358l-248 -358h247
z" />
    <glyph glyph-name="questiondown" unicode="&#xbf;" horiz-adv-x="755" 
d="M446 968q61 0 105 -42.5t44 -102.5t-44 -102t-105 -42q-62 0 -105 41.5t-43 102.5q0 60 43.5 102.5t104.5 42.5zM475 -516q-80 0 -151.5 31t-124.5 87t-84 140t-31 183q0 185 100 305.5t261 156.5l-6 120h48l69 -385q-190 -5 -285 -52t-94 -137q1 -109 125.5 -164.5
t356.5 -55.5q11 -30 11 -63q0 -72 -51.5 -119t-143.5 -47z" />
    <glyph glyph-name="Agrave" unicode="&#xc0;" horiz-adv-x="1433" 
d="M781 1542l-348 278v7h298l124 -285h-74zM1244 266q43 -117 80 -155.5t119 -51.5v-59h-626v59q104 14 125 55t-18 157l-77 225h-474l-68 -204q-30 -89 -30 -134t30.5 -66.5t105.5 -32.5v-59h-421v59q59 9 90.5 29.5t57.5 65t61 142.5l420 1151h198zM400 574h420l-212 617z
" />
    <glyph glyph-name="Aacute" unicode="&#xc1;" horiz-adv-x="1433" 
d="M669 1542h-74l132 286h287v-7zM1244 266q43 -117 80 -155.5t119 -51.5v-59h-626v59q104 14 125 55t-18 157l-77 225h-474l-68 -204q-30 -89 -30 -134t30.5 -66.5t105.5 -32.5v-59h-421v59q59 9 90.5 29.5t57.5 65t61 142.5l420 1151h198zM400 574h420l-212 617z" />
    <glyph glyph-name="Acircumflex" unicode="&#xc2;" horiz-adv-x="1433" 
d="M506 1542h-72l209 285h166l209 -285h-75l-217 142zM1244 266q43 -117 80 -155.5t119 -51.5v-59h-626v59q104 14 125 55t-18 157l-77 225h-474l-68 -204q-30 -89 -30 -134t30.5 -66.5t105.5 -32.5v-59h-421v59q59 9 90.5 29.5t57.5 65t61 142.5l420 1151h198zM400 574h420
l-212 617z" />
    <glyph glyph-name="Atilde" unicode="&#xc3;" horiz-adv-x="1433" 
d="M830 1557q-69 0 -151 57l-29 20q-54 37 -87 37t-50.5 -28t-19.5 -93h-68q-4 138 42.5 203t127.5 65q67 0 152 -57l29 -20q53 -36 87 -36q33 0 50 27.5t20 92.5h67q5 -138 -42 -203t-128 -65zM1244 266q43 -117 80 -155.5t119 -51.5v-59h-626v59q104 14 125 55t-18 157
l-77 225h-474l-68 -204q-30 -89 -30 -134t30.5 -66.5t105.5 -32.5v-59h-421v59q59 9 90.5 29.5t57.5 65t61 142.5l420 1151h198zM400 574h420l-212 617z" />
    <glyph glyph-name="Adieresis" unicode="&#xc4;" horiz-adv-x="1433" 
d="M545 1571q-50 0 -84 32.5t-34 81.5t34 81.5t84 32.5q49 0 83 -33t34 -81t-34 -81t-83 -33zM882 1571q-50 0 -84 32.5t-34 81.5t34 81.5t84 32.5q49 0 83 -33t34 -81t-34 -81t-83 -33zM1244 266q43 -117 80 -155.5t119 -51.5v-59h-626v59q104 14 125 55t-18 157l-77 225
h-474l-68 -204q-30 -89 -30 -134t30.5 -66.5t105.5 -32.5v-59h-421v59q59 9 90.5 29.5t57.5 65t61 142.5l420 1151h198zM400 574h420l-212 617z" />
    <glyph glyph-name="Aring" unicode="&#x212b;" horiz-adv-x="1433" 
d="M459 1733q0 80 73 130t181 50t180.5 -50t72.5 -130t-72 -129t-181 -49t-181.5 49t-72.5 129zM624 1733q0 -54 24.5 -87t64.5 -33q39 0 63.5 33t24.5 87q0 53 -25 87t-63 34q-40 0 -64.5 -34t-24.5 -87zM1244 266q43 -117 80 -155.5t119 -51.5v-59h-626v59q104 14 125 55
t-18 157l-77 225h-474l-68 -204q-30 -89 -30 -134t30.5 -66.5t105.5 -32.5v-59h-421v59q59 9 90.5 29.5t57.5 65t61 142.5l420 1151h198zM400 574h420l-212 617z" />
    <glyph glyph-name="Aring" unicode="&#xc5;" horiz-adv-x="1433" 
d="M459 1733q0 80 73 130t181 50t180.5 -50t72.5 -130t-72 -129t-181 -49t-181.5 49t-72.5 129zM624 1733q0 -54 24.5 -87t64.5 -33q39 0 63.5 33t24.5 87q0 53 -25 87t-63 34q-40 0 -64.5 -34t-24.5 -87zM1244 266q43 -117 80 -155.5t119 -51.5v-59h-626v59q104 14 125 55
t-18 157l-77 225h-474l-68 -204q-30 -89 -30 -134t30.5 -66.5t105.5 -32.5v-59h-421v59q59 9 90.5 29.5t57.5 65t61 142.5l420 1151h198zM400 574h420l-212 617z" />
    <glyph glyph-name="AE" unicode="&#xc6;" horiz-adv-x="1941" 
d="M1815 1444l14 -375h-56q-22 89 -48 142t-72 88t-107.5 49.5t-161.5 19.5l-177 7l6 -602l200 4q79 3 109.5 42.5t53.5 161.5h53l3 -485h-52q-23 121 -54.5 161.5t-111.5 43.5l-201 4l6 -636l201 9q87 4 143 14.5t101 31.5t73 60t48.5 93t37.5 139h56l-14 -416h-1068v59
q89 13 114 36t25 88l-4 424h-443l-148 -308q-43 -90 -48 -137.5t22.5 -70t97.5 -32.5v-59h-429v59q83 13 130.5 57t117.5 184l576 1144h1007zM859 1374l-332 -688h404l-6 688h-66z" />
    <glyph glyph-name="Ccedilla" unicode="&#xc7;" horiz-adv-x="1429" 
d="M91 726q0 173 60 315t165 234.5t246 143t304 50.5q159 0 278.5 -27.5t184.5 -72.5l12 -360h-56q-40 182 -142 279.5t-258 97.5q-214 0 -337 -175t-123 -468q0 -189 54 -343t161 -248t248 -94q153 0 256 97t145 290h56l-11 -360q-60 -43 -178 -74t-255 -35l-63 -80
q8 1 25 1q92 0 154.5 -49t62.5 -132q0 -85 -70.5 -133.5t-169.5 -48.5q-69 0 -124.5 21.5t-83.5 57.5l1 58q48 -36 129 -36q48 0 78.5 20.5t30.5 57.5t-31 57.5t-81 20.5q-29 0 -47 -7l-1 50l114 142q-156 7 -290 62.5t-232.5 150t-155 233t-56.5 304.5z" />
    <glyph glyph-name="Egrave" unicode="&#xc8;" horiz-adv-x="1279" 
d="M735 1542l-348 278v7h298l124 -285h-74zM1154 1444l14 -376h-56q-41 172 -120.5 231.5t-277.5 68.5l-209 7v-602l237 4q80 3 111 43t56 161h52v-485h-52q-22 120 -54 161t-113 44l-237 4v-636l236 9q90 4 148 14t105 31t76.5 60t50.5 93.5t39 139.5h57l-16 -416h-1144v59
q95 14 121 38t26 92v1066q0 68 -26 92t-121 38v59h1097z" />
    <glyph glyph-name="Eacute" unicode="&#xc9;" horiz-adv-x="1279" 
d="M623 1542h-74l132 286h287v-7zM1154 1444l14 -376h-56q-41 172 -120.5 231.5t-277.5 68.5l-209 7v-602l237 4q80 3 111 43t56 161h52v-485h-52q-22 120 -54 161t-113 44l-237 4v-636l236 9q90 4 148 14t105 31t76.5 60t50.5 93.5t39 139.5h57l-16 -416h-1144v59
q95 14 121 38t26 92v1066q0 68 -26 92t-121 38v59h1097z" />
    <glyph glyph-name="Ecircumflex" unicode="&#xca;" horiz-adv-x="1279" 
d="M460 1542h-72l209 285h166l209 -285h-75l-217 142zM1154 1444l14 -376h-56q-41 172 -120.5 231.5t-277.5 68.5l-209 7v-602l237 4q80 3 111 43t56 161h52v-485h-52q-22 120 -54 161t-113 44l-237 4v-636l236 9q90 4 148 14t105 31t76.5 60t50.5 93.5t39 139.5h57
l-16 -416h-1144v59q95 14 121 38t26 92v1066q0 68 -26 92t-121 38v59h1097z" />
    <glyph glyph-name="Edieresis" unicode="&#xcb;" horiz-adv-x="1279" 
d="M499 1571q-50 0 -84 32.5t-34 81.5t34 81.5t84 32.5q49 0 83 -33t34 -81t-34 -81t-83 -33zM836 1571q-50 0 -84 32.5t-34 81.5t34 81.5t84 32.5q49 0 83 -33t34 -81t-34 -81t-83 -33zM1154 1444l14 -376h-56q-41 172 -120.5 231.5t-277.5 68.5l-209 7v-602l237 4
q80 3 111 43t56 161h52v-485h-52q-22 120 -54 161t-113 44l-237 4v-636l236 9q90 4 148 14t105 31t76.5 60t50.5 93.5t39 139.5h57l-16 -416h-1144v59q95 14 121 38t26 92v1066q0 68 -26 92t-121 38v59h1097z" />
    <glyph glyph-name="Igrave" unicode="&#xcc;" horiz-adv-x="710" 
d="M423 1542l-348 278v7h298l124 -285h-74zM505 189q0 -68 26.5 -92t120.5 -38v-59h-595v59q95 14 121 38t26 92v1066q0 68 -26 92t-121 38v59h595v-59q-94 -14 -120.5 -38t-26.5 -92v-1066z" />
    <glyph glyph-name="Iacute" unicode="&#xcd;" horiz-adv-x="710" 
d="M311 1542h-74l132 286h287v-7zM505 189q0 -68 26.5 -92t120.5 -38v-59h-595v59q95 14 121 38t26 92v1066q0 68 -26 92t-121 38v59h595v-59q-94 -14 -120.5 -38t-26.5 -92v-1066z" />
    <glyph glyph-name="Icircumflex" unicode="&#xce;" horiz-adv-x="710" 
d="M149 1542h-73l209 285h167l208 -285h-75l-217 142zM505 189q0 -68 26.5 -92t120.5 -38v-59h-595v59q95 14 121 38t26 92v1066q0 68 -26 92t-121 38v59h595v-59q-94 -14 -120.5 -38t-26.5 -92v-1066z" />
    <glyph glyph-name="Idieresis" unicode="&#xcf;" horiz-adv-x="710" 
d="M187 1571q-50 0 -84 32.5t-34 81.5t34 81.5t84 32.5q49 0 83 -33t34 -81t-34 -81t-83 -33zM524 1571q-50 0 -84 32.5t-34 81.5t34 81.5t84 32.5q49 0 83 -33t34 -81t-34 -81t-83 -33zM505 189q0 -68 26.5 -92t120.5 -38v-59h-595v59q95 14 121 38t26 92v1066q0 68 -26 92
t-121 38v59h595v-59q-94 -14 -120.5 -38t-26.5 -92v-1066z" />
    <glyph glyph-name="Dbar" unicode="&#x110;" horiz-adv-x="1584" 
d="M57 704v72h147v479q0 68 -26 92t-121 38v59h582q192 0 351 -46t273 -133.5t177 -220t63 -298.5q0 -173 -68.5 -315.5t-185.5 -235.5t-272.5 -144t-330.5 -51h-589v59q95 14 121 38t26 92v515h-147zM1170 725q1 289 -150.5 464t-419.5 183l-95 3v-599h292v-72h-292v-635
l95 3q266 8 418 181.5t152 471.5z" />
    <glyph glyph-name="Dbar" unicode="&#xd0;" horiz-adv-x="1584" 
d="M57 704v72h147v479q0 68 -26 92t-121 38v59h582q192 0 351 -46t273 -133.5t177 -220t63 -298.5q0 -173 -68.5 -315.5t-185.5 -235.5t-272.5 -144t-330.5 -51h-589v59q95 14 121 38t26 92v515h-147zM1170 725q1 289 -150.5 464t-419.5 183l-95 3v-599h292v-72h-292v-635
l95 3q266 8 418 181.5t152 471.5z" />
    <glyph glyph-name="Ntilde" unicode="&#xd1;" horiz-adv-x="1503" 
d="M898 1557q-70 0 -152 57l-29 20q-54 37 -87 37t-50 -28t-20 -93h-67q-5 138 41.5 203t127.5 65q67 0 152 -57l29 -20q53 -36 88 -36q32 0 49 27.5t20 92.5h67q5 -138 -42 -203t-127 -65zM487 1444l753 -1138l-18 883q-2 112 -29.5 147.5t-125.5 48.5v59h408v-59
q-94 -14 -119.5 -49.5t-27.5 -144.5l-11 -1191h-239l-816 1230l18 -975q1 -59 6 -90.5t22 -55t45.5 -33.5t80.5 -17v-59h-408v59q94 14 120 50t27 144l9 974q1 79 -27 110.5t-114 47.5v59h446z" />
    <glyph glyph-name="Ograve" unicode="&#xd2;" horiz-adv-x="1681" 
d="M904 1542l-348 278v7h298l124 -285h-74zM91 721q0 156 54 293t150 238t237.5 159t307.5 58q151 0 287 -53t239 -147.5t163.5 -236t60.5 -308.5q0 -209 -92 -379t-264 -270t-393 -100q-151 0 -287.5 53t-239 148t-163 236.5t-60.5 308.5zM425 737q0 -194 51 -347.5
t148 -242.5t226 -89q105 0 184 48.5t127 137t71 204.5t23 260q0 194 -50.5 347.5t-147.5 242t-226 88.5q-85 0 -153 -32t-114.5 -89t-78 -138.5t-46 -178.5t-14.5 -211z" />
    <glyph glyph-name="Oacute" unicode="&#xd3;" horiz-adv-x="1681" 
d="M792 1542h-75l133 286h287v-7zM91 721q0 156 54 293t150 238t237.5 159t307.5 58q151 0 287 -53t239 -147.5t163.5 -236t60.5 -308.5q0 -209 -92 -379t-264 -270t-393 -100q-151 0 -287.5 53t-239 148t-163 236.5t-60.5 308.5zM425 737q0 -194 51 -347.5t148 -242.5
t226 -89q105 0 184 48.5t127 137t71 204.5t23 260q0 194 -50.5 347.5t-147.5 242t-226 88.5q-85 0 -153 -32t-114.5 -89t-78 -138.5t-46 -178.5t-14.5 -211z" />
    <glyph glyph-name="Ocircumflex" unicode="&#xd4;" horiz-adv-x="1681" 
d="M629 1542h-72l209 285h166l209 -285h-75l-218 142zM91 721q0 156 54 293t150 238t237.5 159t307.5 58q151 0 287 -53t239 -147.5t163.5 -236t60.5 -308.5q0 -209 -92 -379t-264 -270t-393 -100q-151 0 -287.5 53t-239 148t-163 236.5t-60.5 308.5zM425 737
q0 -194 51 -347.5t148 -242.5t226 -89q105 0 184 48.5t127 137t71 204.5t23 260q0 194 -50.5 347.5t-147.5 242t-226 88.5q-85 0 -153 -32t-114.5 -89t-78 -138.5t-46 -178.5t-14.5 -211z" />
    <glyph glyph-name="Otilde" unicode="&#xd5;" horiz-adv-x="1681" 
d="M953 1557q-69 0 -151 57l-29 20q-54 37 -88 37q-65 0 -69 -121h-68q-4 138 42.5 203t126.5 65q69 0 152 -57l30 -20q53 -36 87 -36q33 0 50 27.5t20 92.5h67q4 -138 -42.5 -203t-127.5 -65zM91 721q0 156 54 293t150 238t237.5 159t307.5 58q151 0 287 -53t239 -147.5
t163.5 -236t60.5 -308.5q0 -209 -92 -379t-264 -270t-393 -100q-151 0 -287.5 53t-239 148t-163 236.5t-60.5 308.5zM425 737q0 -194 51 -347.5t148 -242.5t226 -89q105 0 184 48.5t127 137t71 204.5t23 260q0 194 -50.5 347.5t-147.5 242t-226 88.5q-85 0 -153 -32
t-114.5 -89t-78 -138.5t-46 -178.5t-14.5 -211z" />
    <glyph glyph-name="Odieresis" unicode="&#xd6;" horiz-adv-x="1681" 
d="M667 1571q-49 0 -83 33t-34 81t34 81t83 33q50 0 84 -32.5t34 -81.5t-34 -81.5t-84 -32.5zM1004 1571q-49 0 -83 33t-34 81t34 81t83 33q50 0 84 -32.5t34 -81.5t-34 -81.5t-84 -32.5zM91 721q0 156 54 293t150 238t237.5 159t307.5 58q151 0 287 -53t239 -147.5
t163.5 -236t60.5 -308.5q0 -209 -92 -379t-264 -270t-393 -100q-151 0 -287.5 53t-239 148t-163 236.5t-60.5 308.5zM425 737q0 -194 51 -347.5t148 -242.5t226 -89q105 0 184 48.5t127 137t71 204.5t23 260q0 194 -50.5 347.5t-147.5 242t-226 88.5q-85 0 -153 -32
t-114.5 -89t-78 -138.5t-46 -178.5t-14.5 -211z" />
    <glyph glyph-name="multiply" unicode="&#xd7;" horiz-adv-x="1201" 
d="M1052 218l-86 -86l-367 367l-366 -365l-81 82l365 365l-367 367l85 86l368 -367l365 366l82 -82l-366 -366z" />
    <glyph glyph-name="Oslash" unicode="&#xd8;" horiz-adv-x="1681" 
d="M91 721q0 156 54 293t150 238t237.5 159t307.5 58q276 0 479 -161l130 144l56 -52l-129 -142q214 -211 214 -534q0 -209 -92 -379t-264 -270t-393 -100q-276 0 -479 161l-131 -144l-55 52l129 142q-101 100 -157.5 236t-56.5 299zM425 737q0 -201 55 -357l689 762
q-56 116 -142.5 180t-195.5 64q-85 0 -153 -32t-114.5 -89t-78 -138.5t-46 -178.5t-14.5 -211zM1255 708q0 203 -54 356l-689 -762q56 -116 142.5 -180t195.5 -64q105 0 184 48.5t126.5 137t71 204.5t23.5 260z" />
    <glyph glyph-name="Ugrave" unicode="&#xd9;" horiz-adv-x="1521" 
d="M900 1542l-348 278v7h297l124 -285h-73zM173 1260q0 65 -25.5 88.5t-113.5 36.5v59h587v-59q-94 -14 -120.5 -38t-26.5 -92v-695q0 -224 106.5 -339.5t284.5 -115.5q182 0 287.5 121t103.5 341l-8 623q-2 110 -29.5 145.5t-126.5 49.5v59h403v-60q-91 -13 -116 -48
t-27 -144l-8 -643q-4 -264 -155.5 -419t-422.5 -155q-97 0 -183.5 21t-162 67t-130 112.5t-86 162.5t-31.5 213v709z" />
    <glyph glyph-name="Uacute" unicode="&#xda;" horiz-adv-x="1521" 
d="M787 1542h-74l132 286h287v-7zM173 1260q0 65 -25.5 88.5t-113.5 36.5v59h587v-59q-94 -14 -120.5 -38t-26.5 -92v-695q0 -224 106.5 -339.5t284.5 -115.5q182 0 287.5 121t103.5 341l-8 623q-2 110 -29.5 145.5t-126.5 49.5v59h403v-60q-91 -13 -116 -48t-27 -144
l-8 -643q-4 -264 -155.5 -419t-422.5 -155q-97 0 -183.5 21t-162 67t-130 112.5t-86 162.5t-31.5 213v709z" />
    <glyph glyph-name="Ucircumflex" unicode="&#xdb;" horiz-adv-x="1521" 
d="M625 1542h-72l208 285h167l209 -285h-75l-218 142zM173 1260q0 65 -25.5 88.5t-113.5 36.5v59h587v-59q-94 -14 -120.5 -38t-26.5 -92v-695q0 -224 106.5 -339.5t284.5 -115.5q182 0 287.5 121t103.5 341l-8 623q-2 110 -29.5 145.5t-126.5 49.5v59h403v-60
q-91 -13 -116 -48t-27 -144l-8 -643q-4 -264 -155.5 -419t-422.5 -155q-97 0 -183.5 21t-162 67t-130 112.5t-86 162.5t-31.5 213v709z" />
    <glyph glyph-name="Udieresis" unicode="&#xdc;" horiz-adv-x="1521" 
d="M663 1571q-49 0 -83.5 33t-34.5 81t34.5 81t83.5 33t83.5 -33t34.5 -81t-34.5 -81t-83.5 -33zM1000 1571q-49 0 -83.5 33t-34.5 81t34.5 81t83.5 33t83.5 -33t34.5 -81t-34.5 -81t-83.5 -33zM173 1260q0 65 -25.5 88.5t-113.5 36.5v59h587v-59q-94 -14 -120.5 -38
t-26.5 -92v-695q0 -224 106.5 -339.5t284.5 -115.5q182 0 287.5 121t103.5 341l-8 623q-2 110 -29.5 145.5t-126.5 49.5v59h403v-60q-91 -13 -116 -48t-27 -144l-8 -643q-4 -264 -155.5 -419t-422.5 -155q-97 0 -183.5 21t-162 67t-130 112.5t-86 162.5t-31.5 213v709z" />
    <glyph glyph-name="Yacute" unicode="&#xdd;" horiz-adv-x="1374" 
d="M723 1542h-74l132 286h287v-7zM218 1187q-69 114 -109.5 149.5t-115.5 48.5v59h618v-59q-100 -14 -113.5 -54t47.5 -147l257 -452l233 432q45 84 53.5 126.5t-17.5 63.5t-99 31v59h409v-59q-78 -14 -122 -54t-122 -170l-298 -501v-457q0 -75 29 -103t130 -41v-59h-619v59
q101 13 130 41t29 103v441z" />
    <glyph glyph-name="Thorn" unicode="&#xde;" horiz-adv-x="1345" 
d="M1282 747q0 -133 -80.5 -227.5t-219.5 -140.5t-323 -46h-154v-130q0 -75 29.5 -103t130.5 -41v-59h-608v59q94 14 120.5 38t26.5 91v1068q0 67 -26.5 91t-120.5 38v59h608v-59q-101 -13 -130.5 -41t-29.5 -103v-104h154q295 0 459 -97.5t164 -292.5zM962 729
q0 151 -96.5 241t-277.5 96l-83 3v-668l83 3q181 7 277.5 90.5t96.5 234.5z" />
    <glyph glyph-name="germandbls" unicode="&#xdf;" horiz-adv-x="1371" 
d="M454 0h-407v59q79 11 101.5 30t22.5 71l1 812q0 257 147 394.5t396 137.5q204 0 327.5 -73t123.5 -190q0 -61 -34 -107.5t-82 -76.5t-96.5 -58t-82.5 -65.5t-34 -85.5t30.5 -81.5t113.5 -75.5l75 -38q127 -65 186.5 -147.5t59.5 -190.5q0 -153 -109.5 -244t-270.5 -91
q-93 0 -184 21t-141 52v287h56q19 -124 93.5 -202t169.5 -78q77 0 120 42.5t43 112.5q0 67 -39.5 118t-134.5 100l-75 38q-104 55 -151.5 112.5t-47.5 138.5q0 53 23.5 98t58 74.5t75.5 63.5t75.5 65.5t58 80t23.5 106.5q0 96 -62 155t-168 59q-128 0 -195.5 -91t-67.5 -269
z" />
    <glyph glyph-name="agrave" unicode="&#xe0;" horiz-adv-x="1127" 
d="M582 1119l-368 363v9h298l144 -372h-74zM369 -20q-129 0 -210.5 68.5t-81.5 176.5q0 118 95 193t311 121l208 44v94q0 131 -62 190t-179 59q-85 0 -156 -33q38 -12 62 -45t24 -75q0 -53 -38.5 -90t-95.5 -37q-56 0 -94.5 36t-38.5 90q0 103 120.5 172t309.5 69
q201 0 311 -81.5t110 -247.5v-481q0 -61 27.5 -90.5t73.5 -29.5q25 0 44 7v-56q-69 -49 -186 -49q-86 0 -148 40.5t-77 113.5q-36 -70 -125 -114.5t-204 -44.5zM353 271q0 -80 45.5 -125t118.5 -45q120 0 174 90v323l-94 -21q-133 -30 -188.5 -83t-55.5 -139z" />
    <glyph glyph-name="aacute" unicode="&#xe1;" horiz-adv-x="1127" 
d="M470 1119h-75l151 372h287v-9zM369 -20q-129 0 -210.5 68.5t-81.5 176.5q0 118 95 193t311 121l208 44v94q0 131 -62 190t-179 59q-85 0 -156 -33q38 -12 62 -45t24 -75q0 -53 -38.5 -90t-95.5 -37q-56 0 -94.5 36t-38.5 90q0 103 120.5 172t309.5 69q201 0 311 -81.5
t110 -247.5v-481q0 -61 27.5 -90.5t73.5 -29.5q25 0 44 7v-56q-69 -49 -186 -49q-86 0 -148 40.5t-77 113.5q-36 -70 -125 -114.5t-204 -44.5zM353 271q0 -80 45.5 -125t118.5 -45q120 0 174 90v323l-94 -21q-133 -30 -188.5 -83t-55.5 -139z" />
    <glyph glyph-name="acircumflex" unicode="&#xe2;" horiz-adv-x="1127" 
d="M289 1119h-75l230 372h162l230 -372h-76l-234 191zM369 -20q-129 0 -210.5 68.5t-81.5 176.5q0 118 95 193t311 121l208 44v94q0 131 -62 190t-179 59q-85 0 -156 -33q38 -12 62 -45t24 -75q0 -53 -38.5 -90t-95.5 -37q-56 0 -94.5 36t-38.5 90q0 103 120.5 172t309.5 69
q201 0 311 -81.5t110 -247.5v-481q0 -61 27.5 -90.5t73.5 -29.5q25 0 44 7v-56q-69 -49 -186 -49q-86 0 -148 40.5t-77 113.5q-36 -70 -125 -114.5t-204 -44.5zM353 271q0 -80 45.5 -125t118.5 -45q120 0 174 90v323l-94 -21q-133 -30 -188.5 -83t-55.5 -139z" />
    <glyph glyph-name="atilde" unicode="&#xe3;" horiz-adv-x="1127" 
d="M649 1169q-73 0 -160 62l-31 23q-57 40 -92 40t-53.5 -30.5t-20.5 -102.5h-69q-5 149 44 219t134 70q70 0 160 -62l31 -23q55 -40 93 -40q35 0 53 30.5t21 101.5h68q5 -148 -44 -218t-134 -70zM369 -20q-129 0 -210.5 68.5t-81.5 176.5q0 118 95 193t311 121l208 44v94
q0 131 -62 190t-179 59q-85 0 -156 -33q38 -12 62 -45t24 -75q0 -53 -38.5 -90t-95.5 -37q-56 0 -94.5 36t-38.5 90q0 103 120.5 172t309.5 69q201 0 311 -81.5t110 -247.5v-481q0 -61 27.5 -90.5t73.5 -29.5q25 0 44 7v-56q-69 -49 -186 -49q-86 0 -148 40.5t-77 113.5
q-36 -70 -125 -114.5t-204 -44.5zM353 271q0 -80 45.5 -125t118.5 -45q120 0 174 90v323l-94 -21q-133 -30 -188.5 -83t-55.5 -139z" />
    <glyph glyph-name="adieresis" unicode="&#xe4;" horiz-adv-x="1127" 
d="M300 1179q-58 0 -97.5 37t-39.5 93q0 55 40 92.5t97 37.5t97 -37.5t40 -92.5q0 -56 -39.5 -93t-97.5 -37zM750 1179q-57 0 -96.5 37t-39.5 93q0 55 39.5 92.5t96.5 37.5t97 -37.5t40 -92.5q0 -56 -39.5 -93t-97.5 -37zM369 -20q-129 0 -210.5 68.5t-81.5 176.5
q0 118 95 193t311 121l208 44v94q0 131 -62 190t-179 59q-85 0 -156 -33q38 -12 62 -45t24 -75q0 -53 -38.5 -90t-95.5 -37q-56 0 -94.5 36t-38.5 90q0 103 120.5 172t309.5 69q201 0 311 -81.5t110 -247.5v-481q0 -61 27.5 -90.5t73.5 -29.5q25 0 44 7v-56
q-69 -49 -186 -49q-86 0 -148 40.5t-77 113.5q-36 -70 -125 -114.5t-204 -44.5zM353 271q0 -80 45.5 -125t118.5 -45q120 0 174 90v323l-94 -21q-133 -30 -188.5 -83t-55.5 -139z" />
    <glyph glyph-name="aring" unicode="&#xe5;" horiz-adv-x="1127" 
d="M244 1313q0 88 80 142.5t201 54.5t201 -54.5t80 -142.5t-80 -142.5t-201 -54.5q-120 0 -200.5 54.5t-80.5 142.5zM427 1313q0 -61 27 -98t71 -37t71.5 37.5t27.5 97.5q0 59 -28 97t-71 38t-70.5 -38t-27.5 -97zM369 -20q-129 0 -210.5 68.5t-81.5 176.5q0 118 95 193
t311 121l208 44v94q0 131 -62 190t-179 59q-85 0 -156 -33q38 -12 62 -45t24 -75q0 -53 -38.5 -90t-95.5 -37q-56 0 -94.5 36t-38.5 90q0 103 120.5 172t309.5 69q201 0 311 -81.5t110 -247.5v-481q0 -61 27.5 -90.5t73.5 -29.5q25 0 44 7v-56q-69 -49 -186 -49
q-86 0 -148 40.5t-77 113.5q-36 -70 -125 -114.5t-204 -44.5zM353 271q0 -80 45.5 -125t118.5 -45q120 0 174 90v323l-94 -21q-133 -30 -188.5 -83t-55.5 -139z" />
    <glyph glyph-name="ae" unicode="&#xe6;" horiz-adv-x="1658" 
d="M373 -20q-132 0 -214.5 66.5t-82.5 181.5q0 122 100.5 203t317.5 120l202 36v68q0 137 -66.5 204.5t-182.5 67.5q-83 0 -151 -30q36 -13 58.5 -44t22.5 -70q0 -54 -39.5 -90.5t-97.5 -36.5q-56 0 -93 35.5t-37 88.5q0 98 113 165.5t289 67.5q116 0 201.5 -34t125.5 -101
q54 64 137.5 99.5t182.5 35.5q196 0 309 -113.5t113 -302.5q0 -33 -4 -69h-634q15 -193 118 -304.5t263 -111.5q73 0 136 24t105 64v-59q-55 -72 -158 -116.5t-231 -44.5q-148 0 -272 76t-176 208q-21 -137 -116.5 -210.5t-238.5 -73.5zM1155 934q-97 0 -154.5 -87.5
t-59.5 -249.5l388 2q0 6 0.5 20.5t0.5 22.5q0 138 -43.5 215t-131.5 77zM503 103q84 0 138.5 61.5t54.5 186.5v168l-100 -19q-131 -27 -189 -83t-58 -144q0 -80 41.5 -125t112.5 -45z" />
    <glyph glyph-name="ccedilla" unicode="&#xe7;" horiz-adv-x="1041" 
d="M566 -466q-69 0 -124.5 21.5t-83.5 57.5l1 58q48 -36 129 -36q48 0 78.5 20.5t30.5 57.5t-31 57.5t-81 20.5q-29 0 -47 -7l-1 50l118 147q-206 13 -339.5 152.5t-133.5 359.5q0 152 70.5 271.5t192.5 184t272 64.5q170 0 265.5 -71t95.5 -178q0 -60 -39 -99t-95 -39
t-94.5 38t-38.5 93q0 51 32 88t80 42q-59 37 -144 37q-139 0 -224 -103.5t-85 -275.5q0 -198 104 -314.5t264 -116.5q73 0 138.5 24t107.5 64v-60q-51 -69 -144 -112t-209 -49l-67 -85q8 1 25 1q93 0 155.5 -49t62.5 -132q0 -85 -70.5 -133.5t-170.5 -48.5z" />
    <glyph glyph-name="egrave" unicode="&#xe8;" horiz-adv-x="1092" 
d="M639 1119l-367 363v9h298l144 -372h-75zM82 493q0 231 138 375.5t362 144.5q202 0 317 -114.5t115 -306.5q0 -35 -4 -69h-646q15 -190 119 -300.5t266 -110.5q74 0 138.5 24.5t106.5 66.5v-60q-55 -75 -159.5 -119t-236.5 -44q-223 0 -369.5 140.5t-146.5 372.5zM581 934
q-103 0 -161 -89.5t-58 -252.5l400 3q1 12 1 44q0 138 -46.5 216.5t-135.5 78.5z" />
    <glyph glyph-name="eacute" unicode="&#xe9;" horiz-adv-x="1092" 
d="M527 1119h-75l151 372h288v-9zM82 493q0 231 138 375.5t362 144.5q202 0 317 -114.5t115 -306.5q0 -35 -4 -69h-646q15 -190 119 -300.5t266 -110.5q74 0 138.5 24.5t106.5 66.5v-60q-55 -75 -159.5 -119t-236.5 -44q-223 0 -369.5 140.5t-146.5 372.5zM581 934
q-103 0 -161 -89.5t-58 -252.5l400 3q1 12 1 44q0 138 -46.5 216.5t-135.5 78.5z" />
    <glyph glyph-name="ecircumflex" unicode="&#xea;" horiz-adv-x="1092" 
d="M347 1119h-75l230 372h162l230 -372h-76l-235 191zM82 493q0 231 138 375.5t362 144.5q202 0 317 -114.5t115 -306.5q0 -35 -4 -69h-646q15 -190 119 -300.5t266 -110.5q74 0 138.5 24.5t106.5 66.5v-60q-55 -75 -159.5 -119t-236.5 -44q-223 0 -369.5 140.5
t-146.5 372.5zM581 934q-103 0 -161 -89.5t-58 -252.5l400 3q1 12 1 44q0 138 -46.5 216.5t-135.5 78.5z" />
    <glyph glyph-name="edieresis" unicode="&#xeb;" horiz-adv-x="1092" 
d="M358 1179q-58 0 -97.5 37t-39.5 93q0 55 40 92.5t97 37.5t96.5 -37.5t39.5 -92.5q0 -56 -39.5 -93t-96.5 -37zM808 1179q-58 0 -97.5 37t-39.5 93q0 55 40 92.5t97 37.5t97 -37.5t40 -92.5q0 -56 -39.5 -93t-97.5 -37zM82 493q0 231 138 375.5t362 144.5
q202 0 317 -114.5t115 -306.5q0 -35 -4 -69h-646q15 -190 119 -300.5t266 -110.5q74 0 138.5 24.5t106.5 66.5v-60q-55 -75 -159.5 -119t-236.5 -44q-223 0 -369.5 140.5t-146.5 372.5zM581 934q-103 0 -161 -89.5t-58 -252.5l400 3q1 12 1 44q0 138 -46.5 216.5
t-135.5 78.5z" />
    <glyph glyph-name="igrave" unicode="&#xec;" horiz-adv-x="624" 
d="M353 1119l-368 363v9h298l144 -372h-74zM456 1006v-844q0 -53 22.5 -72t101.5 -31v-59h-527v59q79 12 101.5 31t22.5 72v634q0 45 -11 61t-53 29l-60 18v54z" />
    <glyph glyph-name="iacute" unicode="&#xed;" horiz-adv-x="624" 
d="M241 1119h-75l151 372h287v-9zM456 1006v-844q0 -53 22.5 -72t101.5 -31v-59h-527v59q79 12 101.5 31t22.5 72v634q0 45 -11 61t-53 29l-60 18v54z" />
    <glyph glyph-name="icircumflex" unicode="&#xee;" horiz-adv-x="624" 
d="M84 1119h-68l208 372h145l207 -372h-68l-211 191zM456 1006v-844q0 -53 22.5 -72t101.5 -31v-59h-527v59q79 12 101.5 31t22.5 72v634q0 45 -11 61t-53 29l-60 18v54z" />
    <glyph glyph-name="idieresis" unicode="&#xef;" horiz-adv-x="624" 
d="M71 1179q-57 0 -96.5 37t-39.5 93q0 55 39.5 92.5t96.5 37.5t97 -37.5t40 -92.5q0 -56 -39.5 -93t-97.5 -37zM521 1179q-57 0 -96.5 37t-39.5 93q0 55 39.5 92.5t96.5 37.5t97 -37.5t40 -92.5q0 -56 -39.5 -93t-97.5 -37zM456 1006v-844q0 -53 22.5 -72t101.5 -31v-59
h-527v59q79 12 101.5 31t22.5 72v634q0 45 -11 61t-53 29l-60 18v54z" />
    <glyph glyph-name="eth" unicode="&#xf0;" horiz-adv-x="1242" 
d="M609 -20q-237 0 -382.5 139.5t-145.5 370.5q0 219 130 356.5t321 137.5q231 0 309 -177q-69 268 -268 450l-265 -164l-36 59l245 153q-107 84 -249 152l35 57q178 -63 320 -144l232 145l36 -60l-201 -125q232 -145 351.5 -336.5t119.5 -420.5q0 -139 -46 -253.5
t-123.5 -187.5t-176 -112.5t-206.5 -39.5zM619 60q110 0 179.5 105t69.5 330q0 192 -61.5 294.5t-179.5 102.5q-114 0 -180 -106t-66 -296q0 -195 63 -312.5t175 -117.5z" />
    <glyph glyph-name="ntilde" unicode="&#xf1;" horiz-adv-x="1297" 
d="M779 1169q-73 0 -160 62l-31 23q-57 40 -93 40q-35 0 -53 -30.5t-21 -102.5h-68q-5 149 44 219t133 70q71 0 161 -62l31 -23q55 -40 92 -40q35 0 53.5 30.5t20.5 101.5h68q5 -149 -43.5 -218.5t-133.5 -69.5zM452 1006v-176q42 83 131 133t209 50q157 0 249 -81.5
t92 -235.5v-534q0 -53 22.5 -72t102.5 -31v-59h-514v59q71 10 91 28t20 69v505q0 108 -52.5 164t-149.5 56q-68 0 -119.5 -27.5t-77.5 -73.5v-624q0 -51 19.5 -68.5t90.5 -28.5v-59h-513v59q79 12 101.5 31t22.5 72v634q0 45 -11 61t-53 29l-60 18v54z" />
    <glyph glyph-name="ograve" unicode="&#xf2;" horiz-adv-x="1241" 
d="M676 1119l-368 363v9h299l144 -372h-75zM616 -20q-152 0 -273 63t-191 180.5t-70 269.5q0 151 71 270.5t194.5 184.5t277.5 65q152 0 273.5 -63t191.5 -180t70 -269q0 -151 -71 -270.5t-195 -185t-278 -65.5zM626 60q112 0 174.5 114t62.5 313q0 205 -67.5 326
t-179.5 121q-114 0 -176 -114t-62 -313q0 -205 68 -326t180 -121z" />
    <glyph glyph-name="oacute" unicode="&#xf3;" horiz-adv-x="1241" 
d="M564 1119h-75l151 372h288v-9zM616 -20q-152 0 -273 63t-191 180.5t-70 269.5q0 151 71 270.5t194.5 184.5t277.5 65q152 0 273.5 -63t191.5 -180t70 -269q0 -151 -71 -270.5t-195 -185t-278 -65.5zM626 60q112 0 174.5 114t62.5 313q0 205 -67.5 326t-179.5 121
q-114 0 -176 -114t-62 -313q0 -205 68 -326t180 -121z" />
    <glyph glyph-name="ocircumflex" unicode="&#xf4;" horiz-adv-x="1241" 
d="M383 1119h-74l230 372h161l231 -372h-77l-234 191zM616 -20q-152 0 -273 63t-191 180.5t-70 269.5q0 151 71 270.5t194.5 184.5t277.5 65q152 0 273.5 -63t191.5 -180t70 -269q0 -151 -71 -270.5t-195 -185t-278 -65.5zM626 60q112 0 174.5 114t62.5 313q0 205 -67.5 326
t-179.5 121q-114 0 -176 -114t-62 -313q0 -205 68 -326t180 -121z" />
    <glyph glyph-name="otilde" unicode="&#xf5;" horiz-adv-x="1241" 
d="M744 1169q-74 0 -160 62l-32 23q-55 40 -92 40q-35 0 -53.5 -30.5t-20.5 -102.5h-68q-5 149 43.5 219t133.5 70q71 0 161 -62l31 -23q53 -40 92 -40q35 0 53.5 30.5t20.5 101.5h68q5 -149 -43.5 -218.5t-133.5 -69.5zM616 -20q-152 0 -273 63t-191 180.5t-70 269.5
q0 151 71 270.5t194.5 184.5t277.5 65q152 0 273.5 -63t191.5 -180t70 -269q0 -151 -71 -270.5t-195 -185t-278 -65.5zM626 60q112 0 174.5 114t62.5 313q0 205 -67.5 326t-179.5 121q-114 0 -176 -114t-62 -313q0 -205 68 -326t180 -121z" />
    <glyph glyph-name="odieresis" unicode="&#xf6;" horiz-adv-x="1241" 
d="M394 1179q-57 0 -96.5 37t-39.5 93q0 55 39.5 92.5t96.5 37.5t97 -37.5t40 -92.5q0 -56 -39.5 -93t-97.5 -37zM845 1179q-58 0 -97.5 37t-39.5 93q0 55 40 92.5t97 37.5t96.5 -37.5t39.5 -92.5q0 -56 -39.5 -93t-96.5 -37zM616 -20q-152 0 -273 63t-191 180.5t-70 269.5
q0 151 71 270.5t194.5 184.5t277.5 65q152 0 273.5 -63t191.5 -180t70 -269q0 -151 -71 -270.5t-195 -185t-278 -65.5zM626 60q112 0 174.5 114t62.5 313q0 205 -67.5 326t-179.5 121q-114 0 -176 -114t-62 -313q0 -205 68 -326t180 -121z" />
    <glyph glyph-name="divide" unicode="&#xf7;" horiz-adv-x="1201" 
d="M601 814q-57 0 -97.5 41t-40.5 98q0 58 40.5 98.5t97.5 40.5t97 -40.5t40 -98.5q0 -57 -40 -98t-97 -41zM120 524v118h961v-118h-961zM601 75q-57 0 -97.5 41t-40.5 98t40.5 98t97.5 41t97 -41t40 -98t-40 -98t-97 -41z" />
    <glyph glyph-name="oslash" unicode="&#xf8;" horiz-adv-x="1234" 
d="M613 -20q-197 0 -335 103l-90 -96l-52 50l88 93q-142 142 -142 362q0 228 153.5 373.5t385.5 145.5q197 0 337 -104l94 99l53 -50l-92 -97q139 -142 139 -360q0 -150 -70.5 -269t-193.5 -184.5t-275 -65.5zM370 506q0 -105 21 -199l428 453q-32 84 -85.5 129t-121.5 45
q-115 0 -178.5 -114t-63.5 -314zM622 58q115 0 178.5 114t63.5 314q0 106 -20 194l-428 -452q33 -82 86 -126t120 -44z" />
    <glyph glyph-name="ugrave" unicode="&#xf9;" horiz-adv-x="1265" 
d="M683 1119l-368 363v9h298l144 -372h-74zM432 1006v-670q0 -110 51.5 -167t146.5 -57q64 0 113 28t76 73v583q0 45 -11 61t-53 29l-61 18v54l403 48v-810q0 -45 11.5 -61t52.5 -29l60 -18v-54l-400 -45v174q-41 -83 -128.5 -133t-205.5 -50q-153 0 -243 82.5t-90 238.5
v495q0 45 -11 61t-53 29l-61 18v54z" />
    <glyph glyph-name="uacute" unicode="&#xfa;" horiz-adv-x="1265" 
d="M571 1119h-75l151 372h287v-9zM432 1006v-670q0 -110 51.5 -167t146.5 -57q64 0 113 28t76 73v583q0 45 -11 61t-53 29l-61 18v54l403 48v-810q0 -45 11.5 -61t52.5 -29l60 -18v-54l-400 -45v174q-41 -83 -128.5 -133t-205.5 -50q-153 0 -243 82.5t-90 238.5v495
q0 45 -11 61t-53 29l-61 18v54z" />
    <glyph glyph-name="ucircumflex" unicode="&#xfb;" horiz-adv-x="1265" 
d="M390 1119h-75l230 372h162l230 -372h-76l-234 191zM432 1006v-670q0 -110 51.5 -167t146.5 -57q64 0 113 28t76 73v583q0 45 -11 61t-53 29l-61 18v54l403 48v-810q0 -45 11.5 -61t52.5 -29l60 -18v-54l-400 -45v174q-41 -83 -128.5 -133t-205.5 -50q-153 0 -243 82.5
t-90 238.5v495q0 45 -11 61t-53 29l-61 18v54z" />
    <glyph glyph-name="udieresis" unicode="&#xfc;" horiz-adv-x="1265" 
d="M401 1179q-58 0 -97.5 37t-39.5 93q0 55 40 92.5t97 37.5t97 -37.5t40 -92.5q0 -56 -39.5 -93t-97.5 -37zM851 1179q-57 0 -96.5 37t-39.5 93q0 55 39.5 92.5t96.5 37.5t97 -37.5t40 -92.5q0 -56 -39.5 -93t-97.5 -37zM432 1006v-670q0 -110 51.5 -167t146.5 -57
q64 0 113 28t76 73v583q0 45 -11 61t-53 29l-61 18v54l403 48v-810q0 -45 11.5 -61t52.5 -29l60 -18v-54l-400 -45v174q-41 -83 -128.5 -133t-205.5 -50q-153 0 -243 82.5t-90 238.5v495q0 45 -11 61t-53 29l-61 18v54z" />
    <glyph glyph-name="yacute" unicode="&#xfd;" horiz-adv-x="1074" 
d="M528 1119h-75l151 372h288v-9zM161 771q-37 91 -66.5 120.5t-93.5 42.5v60h550v-60q-91 -11 -108 -43t17 -127l174 -479l174 475q35 98 18 130.5t-108 43.5v60h356v-60q-67 -12 -98 -44.5t-75 -140.5l-207 -507l-107 -260l-157 -442h-225v5q65 77 146.5 200t138.5 230z
" />
    <glyph glyph-name="thorn" unicode="&#xfe;" horiz-adv-x="1239" 
d="M1157 507q0 -119 -37 -219t-100.5 -167t-149 -104t-181.5 -37q-87 0 -157.5 32.5t-106.5 85.5v-386q0 -59 24.5 -79.5t114.5 -33.5v-59h-541v59q79 11 101.5 30t22.5 71v1582q0 45 -11.5 61t-52.5 29l-60 18v54l402 47l-3 -665q39 84 127 135.5t200 51.5q83 0 157 -34.5
t130 -98t88.5 -160t32.5 -213.5zM870 481q0 184 -70.5 292t-185.5 108q-132 0 -189 -105v-603q21 -41 70 -68t110 -27q120 0 192.5 109t72.5 294z" />
    <glyph glyph-name="ydieresis" unicode="&#xff;" horiz-adv-x="1074" 
d="M358 1179q-57 0 -96.5 37t-39.5 93q0 55 39.5 92.5t96.5 37.5t97 -37.5t40 -92.5q0 -56 -39.5 -93t-97.5 -37zM809 1179q-58 0 -97.5 37t-39.5 93q0 55 40 92.5t97 37.5t96.5 -37.5t39.5 -92.5q0 -56 -39.5 -93t-96.5 -37zM161 771q-37 91 -66.5 120.5t-93.5 42.5v60h550
v-60q-91 -11 -108 -43t17 -127l174 -479l174 475q35 98 18 130.5t-108 43.5v60h356v-60q-67 -12 -98 -44.5t-75 -140.5l-207 -507l-107 -260l-157 -442h-225v5q65 77 146.5 200t138.5 230z" />
    <glyph glyph-name="Amacron" unicode="&#x100;" horiz-adv-x="1433" 
d="M440 1601v132h546v-132h-546zM1244 266q43 -117 80 -155.5t119 -51.5v-59h-626v59q104 14 125 55t-18 157l-77 225h-474l-68 -204q-30 -89 -30 -134t30.5 -66.5t105.5 -32.5v-59h-421v59q59 9 90.5 29.5t57.5 65t61 142.5l420 1151h198zM400 574h420l-212 617z" />
    <glyph glyph-name="amacron" unicode="&#x101;" horiz-adv-x="1127" 
d="M222 1218v153h606v-153h-606zM369 -20q-129 0 -210.5 68.5t-81.5 176.5q0 118 95 193t311 121l208 44v94q0 131 -62 190t-179 59q-85 0 -156 -33q38 -12 62 -45t24 -75q0 -53 -38.5 -90t-95.5 -37q-56 0 -94.5 36t-38.5 90q0 103 120.5 172t309.5 69q201 0 311 -81.5
t110 -247.5v-481q0 -61 27.5 -90.5t73.5 -29.5q25 0 44 7v-56q-69 -49 -186 -49q-86 0 -148 40.5t-77 113.5q-36 -70 -125 -114.5t-204 -44.5zM353 271q0 -80 45.5 -125t118.5 -45q120 0 174 90v323l-94 -21q-133 -30 -188.5 -83t-55.5 -139z" />
    <glyph glyph-name="Abreve" unicode="&#x102;" horiz-adv-x="1433" 
d="M713 1579q-128 0 -202.5 77t-74.5 181q0 20 4 50h64v-4q0 -68 58 -112t150 -44q93 0 151 43.5t58 112.5v4h64q4 -30 4 -50q0 -104 -74 -181t-202 -77zM1244 266q43 -117 80 -155.5t119 -51.5v-59h-626v59q104 14 125 55t-18 157l-77 225h-474l-68 -204q-30 -89 -30 -134
t30.5 -66.5t105.5 -32.5v-59h-421v59q59 9 90.5 29.5t57.5 65t61 142.5l420 1151h198zM400 574h420l-212 617z" />
    <glyph glyph-name="abreve" unicode="&#x103;" horiz-adv-x="1127" 
d="M525 1146q-143 0 -224.5 87t-81.5 207q0 34 4 58h69v-6q0 -76 65 -125t168 -49q104 0 169 49t65 125v6h68q4 -24 4 -58q0 -120 -81.5 -207t-224.5 -87zM369 -20q-129 0 -210.5 68.5t-81.5 176.5q0 118 95 193t311 121l208 44v94q0 131 -62 190t-179 59q-85 0 -156 -33
q38 -12 62 -45t24 -75q0 -53 -38.5 -90t-95.5 -37q-56 0 -94.5 36t-38.5 90q0 103 120.5 172t309.5 69q201 0 311 -81.5t110 -247.5v-481q0 -61 27.5 -90.5t73.5 -29.5q25 0 44 7v-56q-69 -49 -186 -49q-86 0 -148 40.5t-77 113.5q-36 -70 -125 -114.5t-204 -44.5zM353 271
q0 -80 45.5 -125t118.5 -45q120 0 174 90v323l-94 -21q-133 -30 -188.5 -83t-55.5 -139z" />
    <glyph glyph-name="Aogonek" unicode="&#x104;" horiz-adv-x="1433" 
d="M1145 -482q-89 0 -148 53.5t-59 139.5q0 79 46.5 155t125.5 134h-293v59q104 14 125 55t-18 157l-77 225h-474l-68 -204q-30 -89 -30 -134t30.5 -66.5t105.5 -32.5v-59h-421v59q59 9 90.5 29.5t57.5 65t61 142.5l420 1151h198l427 -1181q43 -117 80 -155.5t119 -51.5v-59
h-266q-40 -58 -40 -154q0 -82 39 -137t94 -55q50 0 78 30v-58q-24 -49 -78.5 -78.5t-124.5 -29.5zM400 574h420l-212 617z" />
    <glyph glyph-name="aogonek" unicode="&#x105;" horiz-adv-x="1128" 
d="M369 -20q-129 0 -210.5 68.5t-81.5 176.5q0 118 95 193t311 121l208 44v94q0 131 -62 190t-179 59q-85 0 -156 -33q38 -12 62 -45t24 -75q0 -53 -38.5 -90t-95.5 -37q-56 0 -94.5 36t-38.5 90q0 103 120.5 172t309.5 69q201 0 311 -81.5t110 -247.5v-481
q0 -61 27.5 -90.5t73.5 -29.5q25 0 44 7v-56q-95 -76 -138 -141.5t-43 -132.5q0 -52 29 -81t73 -29q58 0 86 28v-58q-29 -47 -86.5 -74.5t-128.5 -27.5q-85 0 -142 47t-57 124q0 79 61.5 152t199.5 148q-26 -2 -40 -2q-86 0 -148 40t-77 112q-36 -70 -125 -114.5t-204 -44.5
zM353 271q0 -80 45.5 -125t118.5 -45q120 0 174 90v323l-94 -21q-133 -30 -188.5 -83t-55.5 -139z" />
    <glyph glyph-name="Cacute" unicode="&#x106;" horiz-adv-x="1429" 
d="M813 1542h-74l132 286h287v-7zM91 726q0 173 60 315t165 234.5t246 143t304 50.5q159 0 278.5 -27.5t184.5 -72.5l12 -360h-56q-40 182 -142 279.5t-258 97.5q-214 0 -337 -175t-123 -468q0 -189 54 -343t161 -248t248 -94q153 0 256 97t145 290h56l-11 -360
q-63 -46 -191.5 -78t-273.5 -32q-164 0 -306 52.5t-247 147.5t-165 237.5t-60 313.5z" />
    <glyph glyph-name="cacute" unicode="&#x107;" horiz-adv-x="1041" 
d="M546 1119h-75l151 372h288v-9zM594 -20q-144 0 -260 62t-184 180t-68 271q0 152 70.5 271.5t192.5 184t272 64.5q170 0 265.5 -71t95.5 -178q0 -60 -39 -99t-95 -39t-94.5 38t-38.5 93q0 51 32 88t80 42q-59 37 -144 37q-139 0 -224 -103.5t-85 -275.5q0 -198 104 -314.5
t264 -116.5q73 0 138.5 24t107.5 64v-60q-55 -74 -158 -118t-232 -44z" />
    <glyph glyph-name="Ccircumflex" unicode="&#x108;" horiz-adv-x="1429" 
d="M651 1542h-72l208 285h167l209 -285h-75l-218 142zM91 726q0 173 60 315t165 234.5t246 143t304 50.5q159 0 278.5 -27.5t184.5 -72.5l12 -360h-56q-40 182 -142 279.5t-258 97.5q-214 0 -337 -175t-123 -468q0 -189 54 -343t161 -248t248 -94q153 0 256 97t145 290h56
l-11 -360q-63 -46 -191.5 -78t-273.5 -32q-164 0 -306 52.5t-247 147.5t-165 237.5t-60 313.5z" />
    <glyph glyph-name="ccircumflex" unicode="&#x109;" horiz-adv-x="1041" 
d="M366 1119h-75l230 372h162l230 -372h-76l-235 191zM594 -20q-144 0 -260 62t-184 180t-68 271q0 152 70.5 271.5t192.5 184t272 64.5q170 0 265.5 -71t95.5 -178q0 -60 -39 -99t-95 -39t-94.5 38t-38.5 93q0 51 32 88t80 42q-59 37 -144 37q-139 0 -224 -103.5
t-85 -275.5q0 -198 104 -314.5t264 -116.5q73 0 138.5 24t107.5 64v-60q-55 -74 -158 -118t-232 -44z" />
    <glyph glyph-name="Cdotaccent" unicode="&#x10a;" horiz-adv-x="1429" 
d="M857 1567q-51 0 -87 34t-36 84t36 83.5t87 33.5q52 0 88 -33.5t36 -83.5t-36 -84t-88 -34zM91 726q0 173 60 315t165 234.5t246 143t304 50.5q159 0 278.5 -27.5t184.5 -72.5l12 -360h-56q-40 182 -142 279.5t-258 97.5q-214 0 -337 -175t-123 -468q0 -189 54 -343
t161 -248t248 -94q153 0 256 97t145 290h56l-11 -360q-63 -46 -191.5 -78t-273.5 -32q-164 0 -306 52.5t-247 147.5t-165 237.5t-60 313.5z" />
    <glyph glyph-name="cdotaccent" unicode="&#x10b;" horiz-adv-x="1041" 
d="M602 1170q-61 0 -103 39.5t-42 98.5t42 99t103 40t103 -40t42 -99t-42 -98.5t-103 -39.5zM594 -20q-144 0 -260 62t-184 180t-68 271q0 152 70.5 271.5t192.5 184t272 64.5q170 0 265.5 -71t95.5 -178q0 -60 -39 -99t-95 -39t-94.5 38t-38.5 93q0 51 32 88t80 42
q-59 37 -144 37q-139 0 -224 -103.5t-85 -275.5q0 -198 104 -314.5t264 -116.5q73 0 138.5 24t107.5 64v-60q-55 -74 -158 -118t-232 -44z" />
    <glyph glyph-name="Ccaron" unicode="&#x10c;" horiz-adv-x="1429" 
d="M1089 1840h72l-209 -286h-166l-209 286h75l217 -142zM91 726q0 173 60 315t165 234.5t246 143t304 50.5q159 0 278.5 -27.5t184.5 -72.5l12 -360h-56q-40 182 -142 279.5t-258 97.5q-214 0 -337 -175t-123 -468q0 -189 54 -343t161 -248t248 -94q153 0 256 97t145 290h56
l-11 -360q-63 -46 -191.5 -78t-273.5 -32q-164 0 -306 52.5t-247 147.5t-165 237.5t-60 313.5z" />
    <glyph glyph-name="ccaron" unicode="&#x10d;" horiz-adv-x="1041" 
d="M838 1508h75l-230 -372h-162l-230 372h76l234 -191zM594 -20q-144 0 -260 62t-184 180t-68 271q0 152 70.5 271.5t192.5 184t272 64.5q170 0 265.5 -71t95.5 -178q0 -60 -39 -99t-95 -39t-94.5 38t-38.5 93q0 51 32 88t80 42q-59 37 -144 37q-139 0 -224 -103.5
t-85 -275.5q0 -198 104 -314.5t264 -116.5q73 0 138.5 24t107.5 64v-60q-55 -74 -158 -118t-232 -44z" />
    <glyph glyph-name="Dcaron" unicode="&#x10e;" horiz-adv-x="1584" 
d="M987 1840h72l-208 -286h-167l-209 286h76l217 -142zM1503 746q0 -173 -68.5 -315.5t-185.5 -235.5t-272.5 -144t-330.5 -51h-589v59q95 14 121 38t26 92v1066q0 68 -26 92t-121 38v59h582q192 0 351 -46t273 -133.5t177 -220t63 -298.5zM1170 725q1 289 -150.5 464
t-419.5 183l-95 3v-1306l95 3q266 8 418 181.5t152 471.5z" />
    <glyph glyph-name="dcaron" unicode="&#x10f;" horiz-adv-x="1261" 
d="M1281 1095h-59l45 413h214zM82 487q0 119 36.5 219t100 166.5t148.5 103.5t181 37q87 0 158 -32t107 -85v386q0 45 -11 61t-53 29l-61 18v54l404 47v-1295q0 -45 11.5 -61t53.5 -29l60 -18v-54l-400 -45v177q-39 -85 -127.5 -135.5t-200.5 -50.5q-173 0 -290 137
t-117 370zM369 512q0 -186 70 -293t184 -107q133 0 190 105v604q-20 41 -69.5 68t-110.5 27q-119 0 -191.5 -108t-72.5 -296z" />
    <glyph glyph-name="dbar" unicode="&#x111;" horiz-adv-x="1262" 
d="M82 487q0 119 36.5 219t100 166.5t148.5 103.5t181 37q87 0 158 -32t107 -85v323h-258v72h258v178l279 22v-200h125v-72h-125v-1023q0 -45 11.5 -61t53.5 -29l60 -18v-54l-400 -45v177q-39 -85 -127.5 -135.5t-200.5 -50.5q-173 0 -290 136.5t-117 370.5zM369 512
q0 -186 70 -293t184 -107q134 0 190 105v604q-20 41 -69.5 68t-110.5 27q-119 0 -191.5 -108.5t-72.5 -295.5z" />
    <glyph glyph-name="Emacron" unicode="&#x112;" horiz-adv-x="1279" 
d="M394 1601v132h546v-132h-546zM1154 1444l14 -376h-56q-41 172 -120.5 231.5t-277.5 68.5l-209 7v-602l237 4q80 3 111 43t56 161h52v-485h-52q-22 120 -54 161t-113 44l-237 4v-636l236 9q90 4 148 14t105 31t76.5 60t50.5 93.5t39 139.5h57l-16 -416h-1144v59
q95 14 121 38t26 92v1066q0 68 -26 92t-121 38v59h1097z" />
    <glyph glyph-name="emacron" unicode="&#x113;" horiz-adv-x="1092" 
d="M280 1218v153h606v-153h-606zM82 493q0 231 138 375.5t362 144.5q202 0 317 -114.5t115 -306.5q0 -35 -4 -69h-646q15 -190 119 -300.5t266 -110.5q74 0 138.5 24.5t106.5 66.5v-60q-55 -75 -159.5 -119t-236.5 -44q-223 0 -369.5 140.5t-146.5 372.5zM581 934
q-103 0 -161 -89.5t-58 -252.5l400 3q1 12 1 44q0 138 -46.5 216.5t-135.5 78.5z" />
    <glyph glyph-name="Ebreve" unicode="&#x114;" horiz-adv-x="1279" 
d="M667 1579q-128 0 -202.5 77t-74.5 181q0 20 4 50h64v-4q0 -68 58 -112t150 -44q93 0 151 43.5t58 112.5v4h64q4 -30 4 -50q0 -104 -74 -181t-202 -77zM1154 1444l14 -376h-56q-41 172 -120.5 231.5t-277.5 68.5l-209 7v-602l237 4q80 3 111 43t56 161h52v-485h-52
q-22 120 -54 161t-113 44l-237 4v-636l236 9q90 4 148 14t105 31t76.5 60t50.5 93.5t39 139.5h57l-16 -416h-1144v59q95 14 121 38t26 92v1066q0 68 -26 92t-121 38v59h1097z" />
    <glyph glyph-name="ebreve" unicode="&#x115;" horiz-adv-x="1092" 
d="M583 1146q-143 0 -224.5 87t-81.5 207q0 34 4 58h68v-6q0 -76 65 -125t169 -49t168.5 49t64.5 125v6h68q5 -22 5 -58q0 -120 -81.5 -207t-224.5 -87zM82 493q0 231 138 375.5t362 144.5q202 0 317 -114.5t115 -306.5q0 -35 -4 -69h-646q15 -190 119 -300.5t266 -110.5
q74 0 138.5 24.5t106.5 66.5v-60q-55 -75 -159.5 -119t-236.5 -44q-223 0 -369.5 140.5t-146.5 372.5zM581 934q-103 0 -161 -89.5t-58 -252.5l400 3q1 12 1 44q0 138 -46.5 216.5t-135.5 78.5z" />
    <glyph glyph-name="Edotaccent" unicode="&#x116;" horiz-adv-x="1279" 
d="M667 1567q-52 0 -88 34t-36 84t36 83.5t88 33.5q51 0 87 -33.5t36 -83.5t-36 -84t-87 -34zM1154 1444l14 -376h-56q-41 172 -120.5 231.5t-277.5 68.5l-209 7v-602l237 4q80 3 111 43t56 161h52v-485h-52q-22 120 -54 161t-113 44l-237 4v-636l236 9q90 4 148 14t105 31
t76.5 60t50.5 93.5t39 139.5h57l-16 -416h-1144v59q95 14 121 38t26 92v1066q0 68 -26 92t-121 38v59h1097z" />
    <glyph glyph-name="edotaccent" unicode="&#x117;" horiz-adv-x="1092" 
d="M583 1170q-61 0 -103 39.5t-42 98.5q0 60 42 99.5t103 39.5t103 -40t42 -99t-42 -98.5t-103 -39.5zM82 493q0 231 138 375.5t362 144.5q202 0 317 -114.5t115 -306.5q0 -35 -4 -69h-646q15 -190 119 -300.5t266 -110.5q74 0 138.5 24.5t106.5 66.5v-60
q-55 -75 -159.5 -119t-236.5 -44q-223 0 -369.5 140.5t-146.5 372.5zM581 934q-103 0 -161 -89.5t-58 -252.5l400 3q1 12 1 44q0 138 -46.5 216.5t-135.5 78.5z" />
    <glyph glyph-name="Eogonek" unicode="&#x118;" horiz-adv-x="1279" 
d="M1013 -482q-89 0 -147.5 53.5t-58.5 139.5q0 79 46.5 155t124.5 134h-921v59q95 14 121 38t26 92v1066q0 68 -26 92t-121 38v59h1097l14 -376h-56q-41 172 -120.5 231.5t-277.5 68.5l-209 7v-602l237 4q80 3 111 43t56 161h52v-485h-52q-22 120 -54 161t-113 44l-237 4
v-636l236 9q90 4 148 14t105 31t76.5 60t50.5 93.5t39 139.5h57l-16 -416h-156q-40 -58 -40 -154q0 -82 39 -137t94 -55q50 0 78 30l1 -58q-24 -49 -79 -78.5t-125 -29.5z" />
    <glyph glyph-name="eogonek" unicode="&#x119;" horiz-adv-x="1094" 
d="M82 493q0 231 138 375.5t362 144.5q202 0 317 -114.5t115 -306.5q0 -35 -4 -69h-645q16 -191 119 -301t265 -110q74 0 138.5 24.5t106.5 66.5v-60q-7 -9 -79 -97q-115 -131 -115 -256q0 -64 32.5 -102.5t82.5 -38.5q46 0 74 28l1 -58q-29 -47 -86.5 -74t-125.5 -27
q-87 0 -144.5 51t-57.5 132q0 157 223 308l15 10q-95 -39 -216 -39q-223 0 -369.5 140.5t-146.5 372.5zM581 934q-102 0 -160 -89t-58 -253l399 3q1 12 1 44q0 138 -46.5 216.5t-135.5 78.5z" />
    <glyph glyph-name="Ecaron" unicode="&#x11a;" horiz-adv-x="1279" 
d="M898 1840h72l-208 -286h-167l-209 286h75l218 -142zM1154 1444l14 -376h-56q-41 172 -120.5 231.5t-277.5 68.5l-209 7v-602l237 4q80 3 111 43t56 161h52v-485h-52q-22 120 -54 161t-113 44l-237 4v-636l236 9q90 4 148 14t105 31t76.5 60t50.5 93.5t39 139.5h57
l-16 -416h-1144v59q95 14 121 38t26 92v1066q0 68 -26 92t-121 38v59h1097z" />
    <glyph glyph-name="ecaron" unicode="&#x11b;" horiz-adv-x="1092" 
d="M819 1508h75l-230 -372h-162l-230 372h76l234 -191zM82 493q0 231 138 375.5t362 144.5q202 0 317 -114.5t115 -306.5q0 -35 -4 -69h-646q15 -190 119 -300.5t266 -110.5q74 0 138.5 24.5t106.5 66.5v-60q-55 -75 -159.5 -119t-236.5 -44q-223 0 -369.5 140.5
t-146.5 372.5zM581 934q-103 0 -161 -89.5t-58 -252.5l400 3q1 12 1 44q0 138 -46.5 216.5t-135.5 78.5z" />
    <glyph glyph-name="Gcircumflex" unicode="&#x11c;" horiz-adv-x="1559" 
d="M647 1542h-72l209 285h166l209 -285h-75l-217 142zM91 724q0 175 60.5 317.5t165.5 235t246.5 142.5t305.5 50q161 0 282.5 -27.5t187.5 -72.5l11 -359h-56q-41 181 -144.5 278.5t-262.5 97.5q-216 0 -339 -175t-123 -468q0 -190 53.5 -344t159.5 -247.5t247 -93.5
q155 0 238 66v384q0 68 -27 90.5t-126 32.5v59h565v-59q-92 -10 -117 -33t-25 -91v-392q-88 -64 -231 -102t-298 -38q-221 0 -396 91t-276 262.5t-101 395.5z" />
    <glyph glyph-name="gcircumflex" unicode="&#x11d;" horiz-adv-x="1148" 
d="M328 1119h-75l230 372h162l230 -372h-76l-234 191zM91 677q0 149 130 242.5t327 93.5q129 0 231 -40l346 21v-96l-268 17q69 -31 110 -93.5t41 -140.5q0 -149 -130.5 -238t-322.5 -89q-55 0 -118 10q-113 -27 -113 -105q0 -93 164 -93h191q197 0 301 -75.5t104 -215.5
q0 -161 -151.5 -262.5t-380.5 -101.5q-231 0 -365.5 66t-134.5 175q0 82 83 135t250 67q-127 2 -205.5 55t-78.5 141q1 87 74.5 147t205.5 83q-129 24 -209.5 102t-80.5 195zM366 688q0 -119 52 -190t137 -71q82 0 131.5 68.5t49.5 183.5q0 119 -50.5 190t-138.5 71
q-85 0 -133 -68.5t-48 -183.5zM290 -223q0 -83 72 -135t196 -52q132 0 212.5 54t80.5 143q0 153 -217 153h-184q-77 -10 -118.5 -53t-41.5 -110z" />
    <glyph glyph-name="Gbreve" unicode="&#x11e;" horiz-adv-x="1559" 
d="M854 1579q-128 0 -202.5 77t-74.5 181q0 20 4 50h64v-4q0 -68 58 -112t150 -44q93 0 151 43.5t58 112.5v4h64q4 -30 4 -50q0 -104 -74 -181t-202 -77zM91 724q0 175 60.5 317.5t165.5 235t246.5 142.5t305.5 50q161 0 282.5 -27.5t187.5 -72.5l11 -359h-56
q-41 181 -144.5 278.5t-262.5 97.5q-216 0 -339 -175t-123 -468q0 -190 53.5 -344t159.5 -247.5t247 -93.5q155 0 238 66v384q0 68 -27 90.5t-126 32.5v59h565v-59q-92 -10 -117 -33t-25 -91v-392q-88 -64 -231 -102t-298 -38q-221 0 -396 91t-276 262.5t-101 395.5z" />
    <glyph glyph-name="gbreve" unicode="&#x11f;" horiz-adv-x="1148" 
d="M564 1146q-143 0 -224.5 87t-81.5 207q0 36 5 58h68v-6q0 -76 65 -125t168 -49q104 0 169 49t65 125v6h68q4 -24 4 -58q0 -120 -81.5 -207t-224.5 -87zM91 677q0 149 130 242.5t327 93.5q129 0 231 -40l346 21v-96l-268 17q69 -31 110 -93.5t41 -140.5
q0 -149 -130.5 -238t-322.5 -89q-55 0 -118 10q-113 -27 -113 -105q0 -93 164 -93h191q197 0 301 -75.5t104 -215.5q0 -161 -151.5 -262.5t-380.5 -101.5q-231 0 -365.5 66t-134.5 175q0 82 83 135t250 67q-127 2 -205.5 55t-78.5 141q1 87 74.5 147t205.5 83
q-129 24 -209.5 102t-80.5 195zM366 688q0 -119 52 -190t137 -71q82 0 131.5 68.5t49.5 183.5q0 119 -50.5 190t-138.5 71q-85 0 -133 -68.5t-48 -183.5zM290 -223q0 -83 72 -135t196 -52q132 0 212.5 54t80.5 143q0 153 -217 153h-184q-77 -10 -118.5 -53t-41.5 -110z" />
    <glyph glyph-name="Gdotaccent" unicode="&#x120;" horiz-adv-x="1559" 
d="M854 1567q-52 0 -88 34t-36 84t36 83.5t88 33.5q51 0 87 -33.5t36 -83.5t-36 -84t-87 -34zM91 724q0 175 60.5 317.5t165.5 235t246.5 142.5t305.5 50q161 0 282.5 -27.5t187.5 -72.5l11 -359h-56q-41 181 -144.5 278.5t-262.5 97.5q-216 0 -339 -175t-123 -468
q0 -190 53.5 -344t159.5 -247.5t247 -93.5q155 0 238 66v384q0 68 -27 90.5t-126 32.5v59h565v-59q-92 -10 -117 -33t-25 -91v-392q-88 -64 -231 -102t-298 -38q-221 0 -396 91t-276 262.5t-101 395.5z" />
    <glyph glyph-name="gdotaccent" unicode="&#x121;" horiz-adv-x="1148" 
d="M564 1170q-61 0 -103 39.5t-42 98.5t42 99t103 40t103 -39.5t42 -99.5q0 -59 -42 -98.5t-103 -39.5zM91 677q0 149 130 242.5t327 93.5q129 0 231 -40l346 21v-96l-268 17q69 -31 110 -93.5t41 -140.5q0 -149 -130.5 -238t-322.5 -89q-55 0 -118 10q-113 -27 -113 -105
q0 -93 164 -93h191q197 0 301 -75.5t104 -215.5q0 -161 -151.5 -262.5t-380.5 -101.5q-231 0 -365.5 66t-134.5 175q0 82 83 135t250 67q-127 2 -205.5 55t-78.5 141q1 87 74.5 147t205.5 83q-129 24 -209.5 102t-80.5 195zM366 688q0 -119 52 -190t137 -71q82 0 131.5 68.5
t49.5 183.5q0 119 -50.5 190t-138.5 71q-85 0 -133 -68.5t-48 -183.5zM290 -223q0 -83 72 -135t196 -52q132 0 212.5 54t80.5 143q0 153 -217 153h-184q-77 -10 -118.5 -53t-41.5 -110z" />
    <glyph glyph-name="Gcommaaccent" unicode="&#x122;" horiz-adv-x="1559" 
d="M91 724q0 175 60.5 317.5t165.5 235t246.5 142.5t305.5 50q161 0 282.5 -27.5t187.5 -72.5l11 -359h-56q-41 181 -144.5 278.5t-262.5 97.5q-216 0 -339 -175t-123 -468q0 -190 53.5 -344t159.5 -247.5t247 -93.5q155 0 238 66v384q0 68 -27 90.5t-126 32.5v59h565v-59
q-92 -10 -117 -33t-25 -91v-392q-88 -64 -231 -102t-298 -38q-221 0 -396 91t-276 262.5t-101 395.5zM846 -466q-66 0 -120.5 21.5t-83.5 55.5l1 55q54 -40 137 -40q50 0 80 20t30 55q0 34 -30 53.5t-77 20.5q-48 0 -82 -15v52q24 32 70 54t106 22q92 0 150.5 -47.5
t58.5 -127.5q0 -81 -66.5 -130t-173.5 -49z" />
    <glyph glyph-name="gcommaaccent" unicode="&#x123;" horiz-adv-x="1148" 
d="M581 1482q66 0 120.5 -21.5t82.5 -55.5v-55q-56 40 -137 40q-50 0 -80 -20t-30 -55q0 -34 30 -54t77 -20q49 0 81 16v-53q-23 -32 -69.5 -54t-106.5 -22q-92 0 -150 48t-58 128q0 81 66 129.5t174 48.5zM91 677q0 149 130 242.5t327 93.5q129 0 231 -40l346 21v-96
l-268 17q69 -31 110 -93.5t41 -140.5q0 -149 -130.5 -238t-322.5 -89q-55 0 -118 10q-113 -27 -113 -105q0 -93 164 -93h191q197 0 301 -75.5t104 -215.5q0 -161 -151.5 -262.5t-380.5 -101.5q-231 0 -365.5 66t-134.5 175q0 82 83 135t250 67q-127 2 -205.5 55t-78.5 141
q1 87 74.5 147t205.5 83q-129 24 -209.5 102t-80.5 195zM366 688q0 -119 52 -190t137 -71q82 0 131.5 68.5t49.5 183.5q0 119 -50.5 190t-138.5 71q-85 0 -133 -68.5t-48 -183.5zM290 -223q0 -83 72 -135t196 -52q132 0 212.5 54t80.5 143q0 153 -217 153h-184
q-77 -10 -118.5 -53t-41.5 -110z" />
    <glyph glyph-name="Hcircumflex" unicode="&#x124;" horiz-adv-x="1647" 
d="M618 1541h-72l209 286h166l209 -286h-75l-217 142zM505 183q0 -65 25.5 -88t113.5 -36v-59h-587v59q95 14 121 38t26 92v1066q0 68 -26 92t-121 38v59h587v-60q-88 -13 -113.5 -36t-25.5 -87v-485h637v485q0 65 -25 88t-113 36v59h586v-59q-94 -14 -120.5 -38t-26.5 -92
v-1066q0 -68 26.5 -92t120.5 -38v-59h-586v59q88 13 113 36t25 88v518h-637v-518z" />
    <glyph glyph-name="hcircumflex" unicode="&#x125;" horiz-adv-x="1297" 
d="M88 1568h-72l209 285h166l209 -285h-75l-218 142zM456 1492l-2 -659q42 82 130.5 131t207.5 49q157 0 249 -81.5t92 -235.5v-534q0 -53 22.5 -72t102.5 -31v-59h-514v59q71 10 91 28t20 69v505q0 108 -52.5 164t-149.5 56q-68 0 -119.5 -27.5t-77.5 -73.5v-624
q0 -51 19.5 -68.5t90.5 -28.5v-59h-513v59q79 12 101.5 31t22.5 72v1120q0 45 -11 61t-53 29l-60 18v54z" />
    <glyph glyph-name="Hbar" unicode="&#x126;" horiz-adv-x="1647" 
d="M505 183q0 -65 25.5 -88t113.5 -36v-59h-587v59q95 14 121 38t26 92v853h-147v73h147v140q0 68 -26 92t-121 38v59h587v-60q-88 -13 -113.5 -36t-25.5 -87v-146h637v146q0 65 -25 88t-113 36v59h586v-59q-94 -14 -120.5 -38t-26.5 -92v-140h147v-73h-147v-853
q0 -68 26.5 -92t120.5 -38v-59h-586v59q88 13 113 36t25 88v518h-637v-518zM505 776h637v266h-637v-266z" />
    <glyph glyph-name="hbar" unicode="&#x127;" horiz-adv-x="1298" 
d="M52 1220v71h125v168l279 33l-1 -201h259v-71h-259l-1 -387q42 82 130.5 131t207.5 49q157 0 249 -81.5t92 -235.5v-534q0 -53 22.5 -72t102.5 -31v-59h-514v59q71 10 91 28t20 69v505q0 108 -52.5 164t-149.5 56q-68 0 -119.5 -27.5t-77.5 -73.5v-624q0 -51 19.5 -68.5
t90.5 -28.5v-59h-513v59q79 12 101.5 31t22.5 72v1058h-125z" />
    <glyph glyph-name="Itilde" unicode="&#x128;" horiz-adv-x="710" 
d="M473 1557q-70 0 -152 57l-29 20q-54 37 -87 37t-50.5 -28t-19.5 -93h-68q-4 138 42.5 203t127.5 65q67 0 152 -57l29 -20q52 -36 88 -36q32 0 49 27.5t20 92.5h67q5 -138 -42 -203t-127 -65zM505 189q0 -68 26.5 -92t120.5 -38v-59h-595v59q95 14 121 38t26 92v1066
q0 68 -26 92t-121 38v59h595v-59q-94 -14 -120.5 -38t-26.5 -92v-1066z" />
    <glyph glyph-name="itilde" unicode="&#x129;" horiz-adv-x="624" 
d="M408 1169q-66 0 -144 62l-28 23q-51 40 -83 40t-48.5 -30.5t-18.5 -102.5h-61q-5 149 39 219t120 70q38 0 70.5 -15t74.5 -47l27 -23q50 -40 84 -40q31 0 47.5 30.5t18.5 101.5h62q4 -148 -40 -218t-120 -70zM456 1006v-844q0 -53 22.5 -72t101.5 -31v-59h-527v59
q79 12 101.5 31t22.5 72v634q0 45 -11 61t-53 29l-60 18v54z" />
    <glyph glyph-name="Imacron" unicode="&#x12a;" horiz-adv-x="710" 
d="M82 1601v132h546v-132h-546zM505 189q0 -68 26.5 -92t120.5 -38v-59h-595v59q95 14 121 38t26 92v1066q0 68 -26 92t-121 38v59h595v-59q-94 -14 -120.5 -38t-26.5 -92v-1066z" />
    <glyph glyph-name="imacron" unicode="&#x12b;" horiz-adv-x="624" 
d="M54 1218v153h485v-153h-485zM456 1006v-844q0 -53 22.5 -72t101.5 -31v-59h-527v59q79 12 101.5 31t22.5 72v634q0 45 -11 61t-53 29l-60 18v54z" />
    <glyph glyph-name="Ibreve" unicode="&#x12c;" horiz-adv-x="710" 
d="M355 1579q-128 0 -202 77t-74 181q0 27 3 50h64v-4q0 -68 58 -112t150 -44q93 0 151 43.5t58 112.5v4h64q4 -30 4 -50q0 -104 -74 -181t-202 -77zM505 189q0 -68 26.5 -92t120.5 -38v-59h-595v59q95 14 121 38t26 92v1066q0 68 -26 92t-121 38v59h595v-59
q-94 -14 -120.5 -38t-26.5 -92v-1066z" />
    <glyph glyph-name="ibreve" unicode="&#x12d;" horiz-adv-x="624" 
d="M296 1146q-128 0 -201.5 87t-73.5 207q0 34 4 58h61v-6q0 -76 58.5 -125t151.5 -49t151.5 49t58.5 125v6h62q4 -24 4 -58q0 -120 -73.5 -207t-202.5 -87zM456 1006v-844q0 -53 22.5 -72t101.5 -31v-59h-527v59q79 12 101.5 31t22.5 72v634q0 45 -11 61t-53 29l-60 18v54z
" />
    <glyph glyph-name="Iogonek" unicode="&#x12e;" horiz-adv-x="710" 
d="M505 189q0 -68 26.5 -92t120.5 -38v-59h-248q-40 -58 -40 -154q0 -82 38.5 -137t94.5 -55q49 0 77 30l1 -58q-23 -48 -78.5 -78t-124.5 -30q-89 0 -148 53.5t-59 139.5q0 79 46.5 154.5t124.5 134.5h-279v59q95 14 121 38t26 92v1066q0 68 -26 92t-121 38v59h595v-59
q-94 -14 -120.5 -38t-26.5 -92v-1066z" />
    <glyph glyph-name="iogonek" unicode="&#x12f;" horiz-adv-x="625" 
d="M296 1170q-59 0 -100 39.5t-41 97.5q0 57 41 96.5t100 39.5t100.5 -39.5t41.5 -96.5t-41.5 -97t-100.5 -40zM326 -482q-83 0 -142 52t-59 138q0 152 171 292h-243v59q79 12 101.5 31t22.5 72v634q0 45 -11 61t-53 29l-60 18v54l403 48v-844q0 -53 22.5 -72t101.5 -31v-59
h-218q-35 -64 -35 -141q2 -94 39.5 -151.5t91.5 -57.5q49 0 77 28v-58q-26 -45 -82.5 -73.5t-126.5 -28.5z" />
    <glyph glyph-name="Idotaccent" unicode="&#x130;" horiz-adv-x="710" 
d="M355 1567q-52 0 -88 34t-36 84t36 83.5t88 33.5q51 0 87 -33.5t36 -83.5t-36 -84t-87 -34zM505 189q0 -68 26.5 -92t120.5 -38v-59h-595v59q95 14 121 38t26 92v1066q0 68 -26 92t-121 38v59h595v-59q-94 -14 -120.5 -38t-26.5 -92v-1066z" />
    <glyph glyph-name="dotlessi" unicode="&#x131;" horiz-adv-x="624" 
d="M456 1006v-844q0 -53 22.5 -72t101.5 -31v-59h-527v59q79 12 101.5 31t22.5 72v634q0 45 -11 61t-53 29l-60 18v54z" />
    <glyph glyph-name="IJ" unicode="&#x132;" horiz-adv-x="1420" 
d="M505 189q0 -68 26.5 -92t120.5 -38v-59h-595v59q95 14 121 38t26 92v1066q0 68 -26 92t-121 38v59h595v-59q-94 -14 -120.5 -38t-26.5 -92v-1066zM1215 264q0 -130 -35 -229.5t-110 -177.5t-171.5 -136t-240.5 -120l-26 52q108 71 168 152.5t87 195.5t27 288v966
q0 68 -26 92t-121 38v59h595v-59q-94 -14 -120.5 -38t-26.5 -92v-991z" />
    <glyph glyph-name="ij" unicode="&#x133;" horiz-adv-x="1220" 
d="M296 1163q-63 0 -107.5 42t-44.5 103q0 62 44 104t108 42t108.5 -42t44.5 -104q0 -61 -44.5 -103t-108.5 -42zM909 1163q-64 0 -108.5 42t-44.5 103q0 62 44.5 104t108.5 42t108 -42t44 -104q0 -61 -44.5 -103t-107.5 -42zM456 1006v-844q0 -53 22.5 -72t101.5 -31v-59
h-527v59q79 12 101.5 31t22.5 72v634q0 45 -11 61t-53 29l-60 18v54zM1068 1006v-812q0 -160 -35 -265.5t-111.5 -186.5t-222.5 -175l-69 -44l-34 49q115 101 154.5 221t39.5 350v653q0 45 -11 61t-53 29l-60 18v54z" />
    <glyph glyph-name="Jcircumflex" unicode="&#x134;" horiz-adv-x="710" 
d="M148 1542h-72l209 285h167l208 -285h-75l-217 142zM505 264q0 -130 -35 -229.5t-110 -177.5t-171.5 -136t-240.5 -120l-26 52q108 71 168 152.5t87 195.5t27 288v966q0 68 -26 92t-121 38v59h595v-59q-94 -14 -120.5 -38t-26.5 -92v-991z" />
    <glyph glyph-name="jcircumflex" unicode="&#x135;" horiz-adv-x="597" 
d="M49 1119h-75l230 372h162l230 -372h-76l-234 191zM445 1006v-812q0 -160 -35 -265.5t-111.5 -186.5t-223.5 -175l-68 -44l-34 49q115 101 154.5 221t39.5 350v653q0 45 -11 61t-53 29l-61 18v54z" />
    <glyph glyph-name="Kcommaaccent" unicode="&#x136;" horiz-adv-x="1426" 
d="M505 183q0 -65 25.5 -88t113.5 -36v-59h-587v59q95 14 121 38t26 92v1066q0 68 -26 92t-121 38v59h587v-60q-88 -13 -113.5 -36t-25.5 -87v-482l129 1l348 417q81 97 73 136.5t-113 51.5v59h455v-59q-90 -19 -157 -64.5t-179 -163.5l-216 -231l342 -586q93 -158 141 -212
t103 -72v-56h-380l-416 707h-130v-524zM766 -466q-66 0 -120.5 21.5t-82.5 55.5v55q56 -40 138 -40q49 0 79 20t30 55q0 34 -30 53.5t-77 20.5q-47 0 -81 -15v52q23 32 69.5 54t106.5 22q92 0 150.5 -47.5t58.5 -127.5q0 -81 -66.5 -130t-174.5 -49z" />
    <glyph glyph-name="kcommaaccent" unicode="&#x137;" horiz-adv-x="1189" 
d="M844 0l-281 489l-107 1v-334q0 -51 19.5 -68.5t90.5 -28.5v-59h-513v59q79 12 101.5 31t22.5 72v1120q0 45 -11 61t-53 29l-60 18v54l403 48v-931l104 2l208 219q68 70 59 103.5t-101 48.5v60h424v-60q-83 -17 -144 -52t-172 -134l-72 -66l238 -412q63 -114 104.5 -157
t91.5 -57v-56h-352zM649 -466q-66 0 -120.5 21.5t-83.5 55.5l1 55q54 -40 137 -40q50 0 80 20t30 55q0 34 -30 53.5t-77 20.5q-49 0 -81 -15v52q23 32 69 54t106 22q92 0 150.5 -47.5t58.5 -127.5q0 -81 -66 -130t-174 -49z" />
    <glyph glyph-name="Lacute" unicode="&#x139;" horiz-adv-x="1184" 
d="M312 1542h-74l132 286h287v-7zM1126 0h-1069v59q95 14 121 38t26 92v1066q0 68 -26 92t-121 38v59h608v-59q-102 -13 -131 -40t-29 -100v-1176l174 6q99 5 161 21t111 57.5t79.5 109t55.5 178.5h56z" />
    <glyph glyph-name="lacute" unicode="&#x13a;" horiz-adv-x="625" 
d="M259 1542h-74l132 286h287v-7zM456 1492v-1330q0 -53 22.5 -72t101.5 -31v-59h-527v59q79 12 101.5 31t22.5 72v1120q0 45 -11 61t-53 29l-60 18v54z" />
    <glyph glyph-name="Lcommaaccent" unicode="&#x13b;" horiz-adv-x="1184" 
d="M1126 0h-1069v59q95 14 121 38t26 92v1066q0 68 -26 92t-121 38v59h608v-59q-102 -13 -131 -40t-29 -100v-1176l174 6q99 5 161 21t111 57.5t79.5 109t55.5 178.5h56zM613 -466q-66 0 -120.5 21.5t-82.5 55.5v55q56 -40 138 -40q50 0 79.5 20t29.5 55q0 34 -29.5 53.5
t-76.5 20.5q-48 0 -82 -15v52q24 33 70 54.5t106 21.5q92 0 150.5 -47.5t58.5 -127.5q0 -81 -66.5 -130t-174.5 -49z" />
    <glyph glyph-name="lcommaaccent" unicode="&#x13c;" horiz-adv-x="625" 
d="M456 1492v-1330q0 -53 22.5 -72t101.5 -31v-59h-527v59q79 12 101.5 31t22.5 72v1120q0 45 -11 61t-53 29l-60 18v54zM304 -466q-66 0 -120 21.5t-83 55.5v55q56 -40 138 -40q50 0 79.5 20t29.5 55q0 34 -29.5 53.5t-76.5 20.5q-48 0 -82 -15v52q24 32 70 54t106 22
q92 0 150.5 -47.5t58.5 -127.5q0 -81 -66.5 -130t-174.5 -49z" />
    <glyph glyph-name="Lcaron" unicode="&#x13d;" horiz-adv-x="1184" 
d="M902 1125h-59l45 413h213zM1126 0h-1069v59q95 14 121 38t26 92v1066q0 68 -26 92t-121 38v59h608v-59q-102 -13 -131 -40t-29 -100v-1176l174 6q99 5 161 21t111 57.5t79.5 109t55.5 178.5h56z" />
    <glyph glyph-name="lcaron" unicode="&#x13e;" horiz-adv-x="625" 
d="M646 1095h-59l45 413h214zM456 1492v-1330q0 -53 22.5 -72t101.5 -31v-59h-527v59q79 12 101.5 31t22.5 72v1120q0 45 -11 61t-53 29l-60 18v54z" />
    <glyph glyph-name="Ldot" unicode="&#x13f;" horiz-adv-x="1184" 
d="M1126 0h-1069v59q95 14 121 38t26 92v1066q0 68 -26 92t-121 38v59h608v-59q-102 -13 -131 -40t-29 -100v-1176l174 6q99 5 161 21t111 57.5t79.5 109t55.5 178.5h56zM894 694q-61 0 -103 39.5t-42 98.5t42 98.5t103 39.5t103 -39.5t42 -98.5t-42 -98.5t-103 -39.5z" />
    <glyph glyph-name="ldot" unicode="&#x140;" horiz-adv-x="789" 
d="M456 1492v-1330q0 -53 22.5 -72t101.5 -31v-59h-527v59q79 12 101.5 31t22.5 72v1120q0 45 -11 61t-53 29l-60 18v54zM707 591q-57 0 -97 37.5t-40 93.5t40 93.5t97 37.5t97 -37.5t40 -93.5t-40 -93.5t-97 -37.5z" />
    <glyph glyph-name="Lslash" unicode="&#x141;" horiz-adv-x="1184" 
d="M57 623v79l147 41v512q0 68 -26 92t-121 38v59h608v-59q-102 -13 -131 -40t-29 -100v-418l342 95v-78l-342 -95v-680l174 6q99 5 161 21t111 57.5t79.5 109t55.5 178.5h56l-16 -441h-1069v59q95 14 121 38t26 92v476z" />
    <glyph glyph-name="lslash" unicode="&#x142;" horiz-adv-x="625" 
d="M53 704v78l124 42v458q0 45 -11 61t-53 29l-60 18v54l403 48v-576l131 44v-78l-131 -44v-676q0 -53 22.5 -72t101.5 -31v-59h-527v59q79 12 101.5 31t22.5 72v583z" />
    <glyph glyph-name="Nacute" unicode="&#x143;" horiz-adv-x="1503" 
d="M736 1542h-74l132 286h287v-7zM487 1444l753 -1138l-18 883q-2 112 -29.5 147.5t-125.5 48.5v59h408v-59q-94 -14 -119.5 -49.5t-27.5 -144.5l-11 -1191h-239l-816 1230l18 -975q1 -59 6 -90.5t22 -55t45.5 -33.5t80.5 -17v-59h-408v59q94 14 120 50t27 144l9 974
q1 79 -27 110.5t-114 47.5v59h446z" />
    <glyph glyph-name="nacute" unicode="&#x144;" horiz-adv-x="1297" 
d="M599 1119h-75l151 372h288v-9zM452 1006v-176q42 83 131 133t209 50q157 0 249 -81.5t92 -235.5v-534q0 -53 22.5 -72t102.5 -31v-59h-514v59q71 10 91 28t20 69v505q0 108 -52.5 164t-149.5 56q-68 0 -119.5 -27.5t-77.5 -73.5v-624q0 -51 19.5 -68.5t90.5 -28.5v-59
h-513v59q79 12 101.5 31t22.5 72v634q0 45 -11 61t-53 29l-60 18v54z" />
    <glyph glyph-name="Ncommaaccent" unicode="&#x145;" horiz-adv-x="1503" 
d="M487 1444l753 -1138l-18 883q-2 112 -29.5 147.5t-125.5 48.5v59h408v-59q-94 -14 -119.5 -49.5t-27.5 -144.5l-11 -1191h-239l-816 1230l18 -975q1 -59 6 -90.5t22 -55t45.5 -33.5t80.5 -17v-59h-408v59q94 14 120 50t27 144l9 974q1 79 -27 110.5t-114 47.5v59h446z
M721 -466q-66 0 -120.5 21.5t-82.5 55.5v55q56 -40 137 -40q50 0 80 20t30 55q0 34 -30 53.5t-77 20.5q-47 0 -81 -15v52q23 32 69.5 54t106.5 22q92 0 150 -47.5t58 -127.5q0 -81 -66 -130t-174 -49z" />
    <glyph glyph-name="ncommaaccent" unicode="&#x146;" horiz-adv-x="1297" 
d="M452 1006v-176q42 83 131 133t209 50q157 0 249 -81.5t92 -235.5v-534q0 -53 22.5 -72t102.5 -31v-59h-514v59q71 10 91 28t20 69v505q0 108 -52.5 164t-149.5 56q-68 0 -119.5 -27.5t-77.5 -73.5v-624q0 -51 19.5 -68.5t90.5 -28.5v-59h-513v59q79 12 101.5 31t22.5 72
v634q0 45 -11 61t-53 29l-60 18v54zM643 -466q-66 0 -120.5 21.5t-82.5 55.5v55q56 -40 138 -40q50 0 79.5 20t29.5 55q0 34 -29.5 53.5t-76.5 20.5q-48 0 -82 -15v52q24 33 70 54.5t106 21.5q92 0 150.5 -47.5t58.5 -127.5q0 -81 -66.5 -130t-174.5 -49z" />
    <glyph glyph-name="Ncaron" unicode="&#x147;" horiz-adv-x="1503" 
d="M1011 1840h72l-208 -286h-167l-209 286h76l217 -142zM487 1444l753 -1138l-18 883q-2 112 -29.5 147.5t-125.5 48.5v59h408v-59q-94 -14 -119.5 -49.5t-27.5 -144.5l-11 -1191h-239l-816 1230l18 -975q1 -59 6 -90.5t22 -55t45.5 -33.5t80.5 -17v-59h-408v59
q94 14 120 50t27 144l9 974q1 79 -27 110.5t-114 47.5v59h446z" />
    <glyph glyph-name="ncaron" unicode="&#x148;" horiz-adv-x="1297" 
d="M891 1508h75l-230 -372h-162l-230 372h76l234 -191zM452 1006v-176q42 83 131 133t209 50q157 0 249 -81.5t92 -235.5v-534q0 -53 22.5 -72t102.5 -31v-59h-514v59q71 10 91 28t20 69v505q0 108 -52.5 164t-149.5 56q-68 0 -119.5 -27.5t-77.5 -73.5v-624
q0 -51 19.5 -68.5t90.5 -28.5v-59h-513v59q79 12 101.5 31t22.5 72v634q0 45 -11 61t-53 29l-60 18v54z" />
    <glyph glyph-name="Omacron" unicode="&#x14c;" horiz-adv-x="1681" 
d="M563 1601v132h546v-132h-546zM91 721q0 156 54 293t150 238t237.5 159t307.5 58q151 0 287 -53t239 -147.5t163.5 -236t60.5 -308.5q0 -209 -92 -379t-264 -270t-393 -100q-151 0 -287.5 53t-239 148t-163 236.5t-60.5 308.5zM425 737q0 -194 51 -347.5t148 -242.5
t226 -89q105 0 184 48.5t127 137t71 204.5t23 260q0 194 -50.5 347.5t-147.5 242t-226 88.5q-85 0 -153 -32t-114.5 -89t-78 -138.5t-46 -178.5t-14.5 -211z" />
    <glyph glyph-name="omacron" unicode="&#x14d;" horiz-adv-x="1241" 
d="M316 1218v153h607v-153h-607zM616 -20q-152 0 -273 63t-191 180.5t-70 269.5q0 151 71 270.5t194.5 184.5t277.5 65q152 0 273.5 -63t191.5 -180t70 -269q0 -151 -71 -270.5t-195 -185t-278 -65.5zM626 60q112 0 174.5 114t62.5 313q0 205 -67.5 326t-179.5 121
q-114 0 -176 -114t-62 -313q0 -205 68 -326t180 -121z" />
    <glyph glyph-name="Obreve" unicode="&#x14e;" horiz-adv-x="1681" 
d="M836 1579q-128 0 -202.5 77t-74.5 181q0 20 4 50h64v-4q0 -68 58 -112t150 -44q93 0 151 43.5t58 112.5v4h63q4 -20 4 -50q0 -105 -74 -181.5t-201 -76.5zM91 721q0 156 54 293t150 238t237.5 159t307.5 58q151 0 287 -53t239 -147.5t163.5 -236t60.5 -308.5
q0 -209 -92 -379t-264 -270t-393 -100q-151 0 -287.5 53t-239 148t-163 236.5t-60.5 308.5zM425 737q0 -194 51 -347.5t148 -242.5t226 -89q105 0 184 48.5t127 137t71 204.5t23 260q0 194 -50.5 347.5t-147.5 242t-226 88.5q-85 0 -153 -32t-114.5 -89t-78 -138.5
t-46 -178.5t-14.5 -211z" />
    <glyph glyph-name="obreve" unicode="&#x14f;" horiz-adv-x="1241" 
d="M620 1146q-143 0 -225 87t-82 207q0 28 5 58h68v-6q0 -76 65 -125t169 -49t168.5 49t64.5 125v6h68q5 -22 5 -58q0 -120 -82 -207t-224 -87zM616 -20q-152 0 -273 63t-191 180.5t-70 269.5q0 151 71 270.5t194.5 184.5t277.5 65q152 0 273.5 -63t191.5 -180t70 -269
q0 -151 -71 -270.5t-195 -185t-278 -65.5zM626 60q112 0 174.5 114t62.5 313q0 205 -67.5 326t-179.5 121q-114 0 -176 -114t-62 -313q0 -205 68 -326t180 -121z" />
    <glyph glyph-name="Ohungarumlaut" unicode="&#x150;" horiz-adv-x="1681" 
d="M695 1827l233 1v-7l-208 -279h-75zM1050 1827l254 1v-7l-304 -279h-81zM91 721q0 156 54 293t150 238t237.5 159t307.5 58q151 0 287 -53t239 -147.5t163.5 -236t60.5 -308.5q0 -209 -92 -379t-264 -270t-393 -100q-151 0 -287.5 53t-239 148t-163 236.5t-60.5 308.5z
M425 737q0 -194 51 -347.5t148 -242.5t226 -89q105 0 184 48.5t127 137t71 204.5t23 260q0 194 -50.5 347.5t-147.5 242t-226 88.5q-85 0 -153 -32t-114.5 -89t-78 -138.5t-46 -178.5t-14.5 -211z" />
    <glyph glyph-name="ohungarumlaut" unicode="&#x151;" horiz-adv-x="1241" 
d="M471 1491h236v-9l-228 -363h-76zM851 1491h256v-9l-324 -363h-82zM616 -20q-152 0 -273 63t-191 180.5t-70 269.5q0 151 71 270.5t194.5 184.5t277.5 65q152 0 273.5 -63t191.5 -180t70 -269q0 -151 -71 -270.5t-195 -185t-278 -65.5zM626 60q112 0 174.5 114t62.5 313
q0 205 -67.5 326t-179.5 121q-114 0 -176 -114t-62 -313q0 -205 68 -326t180 -121z" />
    <glyph glyph-name="OE" unicode="&#x152;" horiz-adv-x="2087" 
d="M91 717q0 158 55 296.5t153.5 239t243.5 158.5t317 58q74 0 190.5 -12.5t198.5 -12.5h720l13 -375h-56q-17 71 -37.5 118.5t-49 82t-72 54.5t-98.5 30t-135 14l-203 7v-602l233 4q79 3 109.5 43t55.5 162h52v-486h-52q-22 120 -54 161t-111 44l-233 4v-636l227 8
q110 5 174.5 19t113 53t74.5 100t49 167h56l-15 -416h-764q-71 0 -196.5 -12.5t-200.5 -12.5q-209 0 -382.5 95t-274.5 265.5t-101 381.5zM417 725q0 -194 55 -345t160 -237t244 -86q88 0 153 24v1279q-60 27 -148 27q-149 0 -255.5 -87t-157.5 -234.5t-51 -340.5z" />
    <glyph glyph-name="oe" unicode="&#x153;" horiz-adv-x="1869" 
d="M617 -20q-237 0 -386 141.5t-149 375.5q0 225 154 370.5t384 145.5q240 0 381 -160q64 76 155.5 118t201.5 42q203 0 318.5 -114.5t115.5 -306.5q0 -41 -5 -69h-647q16 -191 119 -301t265 -110q73 0 137.5 24t107.5 64v-59q-57 -73 -160.5 -117t-231.5 -44
q-115 0 -213 42.5t-166 122.5q-70 -79 -168.5 -122t-212.5 -43zM628 60q114 0 174.5 109.5t60.5 312.5q0 209 -67.5 330.5t-182.5 121.5t-175.5 -109.5t-60.5 -313.5q0 -208 67.5 -329.5t183.5 -121.5zM1356 934q-102 0 -160 -89t-58 -253l402 3q1 12 1 44q0 138 -47 216.5
t-138 78.5z" />
    <glyph glyph-name="Racute" unicode="&#x154;" horiz-adv-x="1395" 
d="M621 1542h-74l132 286h287v-7zM1264 1054q1 -127 -77.5 -217t-211.5 -126l197 -392q53 -101 90.5 -156.5t62.5 -76t57 -30.5v-56h-359l-326 648h-192v-465q0 -63 25.5 -86.5t113.5 -37.5v-59h-587v59q94 15 120.5 39t26.5 91v1066q0 69 -26 93t-121 37v59h610
q294 0 445 -103.5t152 -286.5zM960 1036q0 151 -90 240t-271 96l-94 3v-659l113 4q161 6 251.5 87t90.5 229z" />
    <glyph glyph-name="racute" unicode="&#x155;" horiz-adv-x="902" 
d="M438 1119h-75l151 372h288v-9zM453 1006l-1 -252q80 133 148.5 194t139.5 61q61 0 92 -39t31 -101q0 -60 -21 -95q-46 16 -127 16q-78 0 -151 -22t-109 -57l1 -539q0 -60 24 -80t114 -33v-59h-541v59q79 11 101.5 30t22.5 71v636q0 45 -11.5 61t-52.5 29l-60 18v54z" />
    <glyph glyph-name="Rcommaaccent" unicode="&#x156;" horiz-adv-x="1395" 
d="M1264 1054q1 -127 -77.5 -217t-211.5 -126l197 -392q53 -101 90.5 -156.5t62.5 -76t57 -30.5v-56h-359l-326 648h-192v-465q0 -63 25.5 -86.5t113.5 -37.5v-59h-587v59q94 15 120.5 39t26.5 91v1066q0 69 -26 93t-121 37v59h610q294 0 445 -103.5t152 -286.5zM960 1036
q0 151 -90 240t-271 96l-94 3v-659l113 4q161 6 251.5 87t90.5 229zM724 -466q-66 0 -120.5 21.5t-83.5 55.5l1 55q54 -40 137 -40q50 0 79.5 20t29.5 55q0 34 -29.5 53.5t-76.5 20.5q-48 0 -82 -15v52q24 32 70 54t106 22q92 0 150.5 -47.5t58.5 -127.5q0 -81 -66.5 -130
t-173.5 -49z" />
    <glyph glyph-name="rcommaaccent" unicode="&#x157;" horiz-adv-x="902" 
d="M453 1006l-1 -252q80 133 148.5 194t139.5 61q61 0 92 -39t31 -101q0 -60 -21 -95q-46 16 -127 16q-78 0 -151 -22t-109 -57l1 -539q0 -60 24 -80t114 -33v-59h-541v59q79 11 101.5 30t22.5 71v636q0 45 -11.5 61t-52.5 29l-60 18v54zM308 -466q-66 0 -120.5 21.5
t-82.5 55.5v55q56 -40 138 -40q50 0 79.5 20t29.5 55q0 34 -29.5 53.5t-76.5 20.5q-48 0 -82 -15v52q24 33 70 54.5t106 21.5q92 0 150.5 -47.5t58.5 -127.5q0 -81 -66.5 -130t-174.5 -49z" />
    <glyph glyph-name="Rcaron" unicode="&#x158;" horiz-adv-x="1395" 
d="M896 1840h72l-209 -286h-166l-209 286h75l218 -142zM1264 1054q1 -127 -77.5 -217t-211.5 -126l197 -392q53 -101 90.5 -156.5t62.5 -76t57 -30.5v-56h-359l-326 648h-192v-465q0 -63 25.5 -86.5t113.5 -37.5v-59h-587v59q94 15 120.5 39t26.5 91v1066q0 69 -26 93
t-121 37v59h610q294 0 445 -103.5t152 -286.5zM960 1036q0 151 -90 240t-271 96l-94 3v-659l113 4q161 6 251.5 87t90.5 229z" />
    <glyph glyph-name="rcaron" unicode="&#x159;" horiz-adv-x="902" 
d="M730 1508h75l-231 -372h-161l-230 372h76l234 -191zM453 1006l-1 -252q80 133 148.5 194t139.5 61q61 0 92 -39t31 -101q0 -60 -21 -95q-46 16 -127 16q-78 0 -151 -22t-109 -57l1 -539q0 -60 24 -80t114 -33v-59h-541v59q79 11 101.5 30t22.5 71v636q0 45 -11.5 61
t-52.5 29l-60 18v54z" />
    <glyph glyph-name="Sacute" unicode="&#x15a;" horiz-adv-x="1223" 
d="M595 1542h-74l132 286h287v-7zM585 -25q-148 0 -273.5 30.5t-201.5 78.5l-12 356h55q40 -183 156.5 -282.5t272.5 -99.5q127 0 204 67.5t77 177.5q0 99 -63 166t-199 114l-121 40q-381 127 -381 429q0 192 150 304.5t395 112.5q134 0 241.5 -27.5t165.5 -69.5l10 -331
h-56q-36 166 -130 255.5t-230 89.5q-131 0 -202.5 -62t-71.5 -164q0 -94 64 -155.5t197 -106.5l120 -41q194 -65 288.5 -174t94.5 -267q0 -133 -74 -234.5t-198 -154t-278 -52.5z" />
    <glyph glyph-name="sacute" unicode="&#x15b;" horiz-adv-x="968" 
d="M437 1119h-75l151 372h288v-9zM89 707q0 143 115.5 224.5t312.5 81.5q105 0 189.5 -18.5t129.5 -45.5l5 -256h-56q-25 115 -94.5 177.5t-169.5 62.5q-88 0 -138.5 -37.5t-50.5 -101.5q0 -59 44 -94.5t137 -64.5l84 -24q146 -44 219.5 -120.5t73.5 -197.5
q0 -143 -123 -227t-310 -84q-110 0 -208 23t-157 59l-10 272h57q27 -127 113 -201t199 -74q89 0 142.5 41.5t53.5 106.5q0 61 -41 99.5t-135 67.5l-84 25q-145 44 -221.5 117t-76.5 189z" />
    <glyph glyph-name="Scircumflex" unicode="&#x15c;" horiz-adv-x="1223" 
d="M433 1542h-72l208 285h167l209 -285h-75l-218 142zM585 -25q-148 0 -273.5 30.5t-201.5 78.5l-12 356h55q40 -183 156.5 -282.5t272.5 -99.5q127 0 204 67.5t77 177.5q0 99 -63 166t-199 114l-121 40q-381 127 -381 429q0 192 150 304.5t395 112.5q134 0 241.5 -27.5
t165.5 -69.5l10 -331h-56q-36 166 -130 255.5t-230 89.5q-131 0 -202.5 -62t-71.5 -164q0 -94 64 -155.5t197 -106.5l120 -41q194 -65 288.5 -174t94.5 -267q0 -133 -74 -234.5t-198 -154t-278 -52.5z" />
    <glyph glyph-name="scircumflex" unicode="&#x15d;" horiz-adv-x="968" 
d="M256 1119h-74l230 372h161l231 -372h-77l-234 191zM89 707q0 143 115.5 224.5t312.5 81.5q105 0 189.5 -18.5t129.5 -45.5l5 -256h-56q-25 115 -94.5 177.5t-169.5 62.5q-88 0 -138.5 -37.5t-50.5 -101.5q0 -59 44 -94.5t137 -64.5l84 -24q146 -44 219.5 -120.5
t73.5 -197.5q0 -143 -123 -227t-310 -84q-110 0 -208 23t-157 59l-10 272h57q27 -127 113 -201t199 -74q89 0 142.5 41.5t53.5 106.5q0 61 -41 99.5t-135 67.5l-84 25q-145 44 -221.5 117t-76.5 189z" />
    <glyph glyph-name="Scedilla" unicode="&#x15e;" horiz-adv-x="1223" 
d="M570 -466q-69 0 -124.5 21.5t-83.5 57.5v58q50 -36 130 -36q48 0 78.5 20.5t30.5 57.5t-31 57.5t-81 20.5q-29 0 -47 -7l-1 50l114 142q-139 3 -256.5 32.5t-188.5 75.5l-12 356h55q40 -183 156.5 -282.5t272.5 -99.5q127 0 204 67.5t77 177.5q0 99 -63 166t-199 114
l-121 40q-381 127 -381 429q0 192 150 304.5t395 112.5q134 0 241.5 -27.5t165.5 -69.5l10 -331h-56q-36 166 -130 255.5t-230 89.5q-131 0 -202.5 -62t-71.5 -164q0 -94 64 -155.5t197 -106.5l120 -41q194 -65 288.5 -174t94.5 -267q0 -127 -67 -225t-180 -152t-256 -63
l-64 -80q8 1 25 1q92 0 154.5 -49t62.5 -132q0 -85 -70.5 -133.5t-169.5 -48.5z" />
    <glyph glyph-name="scedilla" unicode="&#x15f;" horiz-adv-x="968" 
d="M439 -466q-69 0 -124.5 21.5t-83.5 57.5v58q50 -36 130 -36q48 0 78.5 20.5t30.5 57.5t-31 57.5t-81 20.5q-30 0 -47 -7l-1 50l119 148q-102 3 -192 25.5t-145 56.5l-10 272h57q27 -127 113 -201t199 -74q89 0 142.5 41.5t53.5 106.5q0 61 -41 99.5t-135 67.5l-84 25
q-145 44 -221.5 117t-76.5 189q0 143 115.5 224.5t312.5 81.5q105 0 189.5 -18.5t129.5 -45.5l5 -256h-56q-25 115 -94.5 177.5t-169.5 62.5q-88 0 -138.5 -37.5t-50.5 -101.5q0 -59 44 -94.5t137 -64.5l84 -24q146 -44 219.5 -120.5t73.5 -197.5q0 -133 -107.5 -215.5
t-276.5 -94.5l-69 -87q8 1 25 1q92 0 154.5 -49t62.5 -132q0 -85 -70.5 -133.5t-169.5 -48.5z" />
    <glyph glyph-name="Scaron" unicode="&#x160;" horiz-adv-x="1223" 
d="M871 1840h72l-209 -286h-167l-208 286h75l217 -142zM585 -25q-148 0 -273.5 30.5t-201.5 78.5l-12 356h55q40 -183 156.5 -282.5t272.5 -99.5q127 0 204 67.5t77 177.5q0 99 -63 166t-199 114l-121 40q-381 127 -381 429q0 192 150 304.5t395 112.5q134 0 241.5 -27.5
t165.5 -69.5l10 -331h-56q-36 166 -130 255.5t-230 89.5q-131 0 -202.5 -62t-71.5 -164q0 -94 64 -155.5t197 -106.5l120 -41q194 -65 288.5 -174t94.5 -267q0 -133 -74 -234.5t-198 -154t-278 -52.5z" />
    <glyph glyph-name="scaron" unicode="&#x161;" horiz-adv-x="968" 
d="M729 1508h75l-231 -372h-161l-230 372h76l234 -191zM89 707q0 143 115.5 224.5t312.5 81.5q105 0 189.5 -18.5t129.5 -45.5l5 -256h-56q-25 115 -94.5 177.5t-169.5 62.5q-88 0 -138.5 -37.5t-50.5 -101.5q0 -59 44 -94.5t137 -64.5l84 -24q146 -44 219.5 -120.5
t73.5 -197.5q0 -143 -123 -227t-310 -84q-110 0 -208 23t-157 59l-10 272h57q27 -127 113 -201t199 -74q89 0 142.5 41.5t53.5 106.5q0 61 -41 99.5t-135 67.5l-84 25q-145 44 -221.5 117t-76.5 189z" />
    <glyph glyph-name="Tcedilla" unicode="&#x162;" horiz-adv-x="1352" 
d="M647 -466q-68 0 -123.5 21.5t-84.5 57.5l1 58q48 -36 129 -36q49 0 79 20.5t30 57.5t-31 57.5t-81 20.5q-30 0 -47 -7v50l129 166h-281v59q100 13 129 41t29 103v1172l-51 -3q-98 -6 -157.5 -21t-104.5 -49.5t-70 -89t-43 -144.5h-56l13 376h1240l13 -376h-56
q-18 90 -42.5 144t-69 89t-105 50t-158.5 21l-51 3v-1172q0 -75 29 -103t130 -41v-59h-263l-79 -104q8 1 26 1q93 0 155.5 -49t62.5 -132q0 -85 -70.5 -133.5t-170.5 -48.5z" />
    <glyph glyph-name="tcedilla" unicode="&#x163;" horiz-adv-x="735" 
d="M164 285v612h-123v48l359 270h40v-233l265 12v-97l-265 11v-607q0 -199 153 -199q75 0 126 41v-60q-30 -37 -94 -65.5t-137 -35.5l-68 -86q8 1 25 1q93 0 155.5 -49t62.5 -132q0 -85 -70.5 -133.5t-170.5 -48.5q-69 0 -124.5 21.5t-83.5 57.5l1 58q48 -36 129 -36
q48 0 78.5 20.5t30.5 57.5t-31 57.5t-81 20.5q-29 0 -47 -7l-1 50l119 147q-112 11 -180 85t-68 219z" />
    <glyph glyph-name="Tcaron" unicode="&#x164;" horiz-adv-x="1352" 
d="M907 1840h73l-209 -286h-167l-208 286h75l217 -142zM1296 1444l13 -376h-56q-18 90 -42.5 144t-69 89t-105 50t-158.5 21l-51 3v-1172q0 -75 29 -103t130 -41v-59h-619v59q100 13 129 41t29 103v1172l-51 -3q-98 -6 -157.5 -21t-104.5 -49.5t-70 -89t-43 -144.5h-56
l13 376h1240z" />
    <glyph glyph-name="tcaron" unicode="&#x165;" horiz-adv-x="735" 
d="M640 1095h-58l44 413h214zM164 285v612h-123v48l359 270h40v-233l265 12v-97l-265 11v-607q0 -199 153 -199q75 0 126 41v-60q-35 -42 -110.5 -72.5t-158.5 -30.5q-128 0 -207 73.5t-79 231.5z" />
    <glyph glyph-name="Tbar" unicode="&#x166;" horiz-adv-x="1352" 
d="M246 704v72h279v599l-51 -3q-98 -6 -157.5 -21t-104.5 -49.5t-70 -89t-43 -144.5h-56l13 376h1240l13 -376h-56q-18 90 -42.5 144t-69 89t-105 50t-158.5 21l-51 3v-599h279v-72h-279v-501q0 -75 29 -103t130 -41v-59h-619v59q100 13 129 41t29 103v501h-279z" />
    <glyph glyph-name="tbar" unicode="&#x167;" horiz-adv-x="735" 
d="M164 285v251h-109v73h109v288h-123v48l359 270h40v-233l265 12v-97l-265 11v-299h282v-73h-282v-235q0 -199 153 -199q75 0 126 41v-60q-35 -42 -110.5 -72.5t-158.5 -30.5q-127 0 -206.5 73.5t-79.5 231.5z" />
    <glyph glyph-name="Utilde" unicode="&#x168;" horiz-adv-x="1521" 
d="M949 1557q-70 0 -151 57l-30 20q-54 37 -87 37t-50 -28t-20 -93h-67q-4 138 42.5 203t126.5 65q67 0 152 -57l30 -20q53 -36 87 -36q32 0 49 27.5t20 92.5h68q4 -138 -42.5 -203t-127.5 -65zM173 1260q0 65 -25.5 88.5t-113.5 36.5v59h587v-59q-94 -14 -120.5 -38
t-26.5 -92v-695q0 -224 106.5 -339.5t284.5 -115.5q182 0 287.5 121t103.5 341l-8 623q-2 110 -29.5 145.5t-126.5 49.5v59h403v-60q-91 -13 -116 -48t-27 -144l-8 -643q-4 -264 -155.5 -419t-422.5 -155q-97 0 -183.5 21t-162 67t-130 112.5t-86 162.5t-31.5 213v709z" />
    <glyph glyph-name="utilde" unicode="&#x169;" horiz-adv-x="1265" 
d="M750 1169q-73 0 -160 62l-31 23q-57 40 -92 40t-53.5 -30.5t-20.5 -102.5h-69q-5 149 44 219t134 70q70 0 160 -62l31 -23q55 -40 93 -40q35 0 53 30.5t21 101.5h68q5 -148 -44 -218t-134 -70zM432 1006v-670q0 -110 51.5 -167t146.5 -57q64 0 113 28t76 73v583
q0 45 -11 61t-53 29l-61 18v54l403 48v-810q0 -45 11.5 -61t52.5 -29l60 -18v-54l-400 -45v174q-41 -83 -128.5 -133t-205.5 -50q-153 0 -243 82.5t-90 238.5v495q0 45 -11 61t-53 29l-61 18v54z" />
    <glyph glyph-name="Umacron" unicode="&#x16a;" horiz-adv-x="1521" 
d="M558 1601v132h547v-132h-547zM173 1260q0 65 -25.5 88.5t-113.5 36.5v59h587v-59q-94 -14 -120.5 -38t-26.5 -92v-695q0 -224 106.5 -339.5t284.5 -115.5q182 0 287.5 121t103.5 341l-8 623q-2 110 -29.5 145.5t-126.5 49.5v59h403v-60q-91 -13 -116 -48t-27 -144
l-8 -643q-4 -264 -155.5 -419t-422.5 -155q-97 0 -183.5 21t-162 67t-130 112.5t-86 162.5t-31.5 213v709z" />
    <glyph glyph-name="umacron" unicode="&#x16b;" horiz-adv-x="1265" 
d="M323 1218v153h606v-153h-606zM432 1006v-670q0 -110 51.5 -167t146.5 -57q64 0 113 28t76 73v583q0 45 -11 61t-53 29l-61 18v54l403 48v-810q0 -45 11.5 -61t52.5 -29l60 -18v-54l-400 -45v174q-41 -83 -128.5 -133t-205.5 -50q-153 0 -243 82.5t-90 238.5v495
q0 45 -11 61t-53 29l-61 18v54z" />
    <glyph glyph-name="Ubreve" unicode="&#x16c;" horiz-adv-x="1521" 
d="M831 1579q-128 0 -202 77t-74 181q0 30 4 50h63v-4q0 -69 58 -112.5t151 -43.5t151 43.5t58 112.5v4h63q4 -20 4 -50q0 -105 -74 -181.5t-202 -76.5zM173 1260q0 65 -25.5 88.5t-113.5 36.5v59h587v-59q-94 -14 -120.5 -38t-26.5 -92v-695q0 -224 106.5 -339.5
t284.5 -115.5q182 0 287.5 121t103.5 341l-8 623q-2 110 -29.5 145.5t-126.5 49.5v59h403v-60q-91 -13 -116 -48t-27 -144l-8 -643q-4 -264 -155.5 -419t-422.5 -155q-97 0 -183.5 21t-162 67t-130 112.5t-86 162.5t-31.5 213v709z" />
    <glyph glyph-name="ubreve" unicode="&#x16d;" horiz-adv-x="1265" 
d="M626 1146q-143 0 -224.5 87t-81.5 207q0 34 4 58h69v-6q0 -76 65 -125t168 -49q104 0 169 49t65 125v6h68q4 -24 4 -58q0 -120 -81.5 -207t-224.5 -87zM432 1006v-670q0 -110 51.5 -167t146.5 -57q64 0 113 28t76 73v583q0 45 -11 61t-53 29l-61 18v54l403 48v-810
q0 -45 11.5 -61t52.5 -29l60 -18v-54l-400 -45v174q-41 -83 -128.5 -133t-205.5 -50q-153 0 -243 82.5t-90 238.5v495q0 45 -11 61t-53 29l-61 18v54z" />
    <glyph glyph-name="Uring" unicode="&#x16e;" horiz-adv-x="1521" 
d="M577 1733q0 80 73 130t181 50q109 0 181.5 -50t72.5 -130t-72.5 -129t-181.5 -49q-108 0 -181 49.5t-73 128.5zM742 1733q0 -54 25 -87t64 -33t64 33t25 87q0 53 -25 87t-64 34t-64 -34t-25 -87zM173 1260q0 65 -25.5 88.5t-113.5 36.5v59h587v-59q-94 -14 -120.5 -38
t-26.5 -92v-695q0 -224 106.5 -339.5t284.5 -115.5q182 0 287.5 121t103.5 341l-8 623q-2 110 -29.5 145.5t-126.5 49.5v59h403v-60q-91 -13 -116 -48t-27 -144l-8 -643q-4 -264 -155.5 -419t-422.5 -155q-97 0 -183.5 21t-162 67t-130 112.5t-86 162.5t-31.5 213v709z" />
    <glyph glyph-name="uring" unicode="&#x16f;" horiz-adv-x="1265" 
d="M345 1313q0 88 80 142.5t201 54.5t201 -54.5t80 -142.5t-80 -142.5t-201 -54.5q-120 0 -200.5 54.5t-80.5 142.5zM528 1313q0 -61 27 -98t71 -37t71.5 37.5t27.5 97.5q0 59 -28 97t-71 38t-70.5 -38t-27.5 -97zM432 1006v-670q0 -110 51.5 -167t146.5 -57q64 0 113 28
t76 73v583q0 45 -11 61t-53 29l-61 18v54l403 48v-810q0 -45 11.5 -61t52.5 -29l60 -18v-54l-400 -45v174q-41 -83 -128.5 -133t-205.5 -50q-153 0 -243 82.5t-90 238.5v495q0 45 -11 61t-53 29l-61 18v54z" />
    <glyph glyph-name="Uhungarumlaut" unicode="&#x170;" horiz-adv-x="1521" 
d="M690 1827l234 1v-7l-208 -279h-76zM1046 1827l253 1v-7l-303 -279h-81zM173 1260q0 65 -25.5 88.5t-113.5 36.5v59h587v-59q-94 -14 -120.5 -38t-26.5 -92v-695q0 -224 106.5 -339.5t284.5 -115.5q182 0 287.5 121t103.5 341l-8 623q-2 110 -29.5 145.5t-126.5 49.5v59
h403v-60q-91 -13 -116 -48t-27 -144l-8 -643q-4 -264 -155.5 -419t-422.5 -155q-97 0 -183.5 21t-162 67t-130 112.5t-86 162.5t-31.5 213v709z" />
    <glyph glyph-name="uhungarumlaut" unicode="&#x171;" horiz-adv-x="1265" 
d="M477 1491h237v-9l-228 -363h-76zM858 1491h255v-9l-324 -363h-81zM432 1006v-670q0 -110 51.5 -167t146.5 -57q64 0 113 28t76 73v583q0 45 -11 61t-53 29l-61 18v54l403 48v-810q0 -45 11.5 -61t52.5 -29l60 -18v-54l-400 -45v174q-41 -83 -128.5 -133t-205.5 -50
q-153 0 -243 82.5t-90 238.5v495q0 45 -11 61t-53 29l-61 18v54z" />
    <glyph glyph-name="Uogonek" unicode="&#x172;" horiz-adv-x="1521" 
d="M822 -482q-90 0 -148.5 53t-58.5 139q0 71 42 140t115 125h-6q-97 0 -183.5 21t-162 67t-130 112.5t-86 162.5t-31.5 213v709q0 65 -25.5 88.5t-113.5 36.5v59h587v-59q-94 -14 -120.5 -38t-26.5 -92v-695q0 -224 106.5 -339.5t284.5 -115.5q182 0 287.5 121t103.5 341
l-8 623q-1 58 -6 89t-22.5 54.5t-46 34t-81.5 17.5v59h403v-60q-91 -13 -116 -48t-27 -144l-8 -643q-4 -243 -133 -394.5t-362 -175.5q-36 -57 -36 -142q0 -78 39 -130.5t94 -52.5q50 0 78 30l1 -58q-23 -48 -78.5 -78t-124.5 -30z" />
    <glyph glyph-name="uogonek" unicode="&#x173;" horiz-adv-x="1265" 
d="M432 1006v-670q0 -110 51.5 -167t146.5 -57q64 0 113 28t76 73v583q0 45 -11 61t-53 29l-61 18v54l403 48v-810q0 -45 11.5 -61t52.5 -29l60 -18v-54q-174 -141 -174 -274q0 -52 27.5 -81t67.5 -29q58 0 86 28l1 -58q-29 -47 -85.5 -74.5t-125.5 -27.5q-84 0 -140.5 47
t-56.5 124q0 79 61 153.5t199 153.5l52 28l-312 -35v174q-41 -83 -128.5 -133t-205.5 -50q-153 0 -243 82.5t-90 238.5v495q0 45 -11 61t-53 29l-61 18v54z" />
    <glyph glyph-name="Wcircumflex" unicode="&#x174;" horiz-adv-x="2202" 
d="M974 1542h-72l209 285h166l209 -285h-75l-218 142zM184 1178q-37 117 -75 156t-118 51v59h621v-59q-103 -14 -124 -54.5t12 -153.5l261 -899l252 898q18 63 22.5 97.5t-8 58.5t-40 34.5t-81.5 18.5v59h589v-59q-42 -6 -65.5 -14.5t-39 -21t-17 -36.5t3.5 -53.5t19 -79.5
l257 -902l249 877q16 55 21.5 88.5t3 60t-19 41.5t-42.5 24t-71 16v59h419v-59q-85 -13 -123 -55.5t-82 -181.5l-366 -1151h-195l-343 1139l-354 -1139h-192z" />
    <glyph glyph-name="wcircumflex" unicode="&#x175;" horiz-adv-x="1689" 
d="M696 1119h-75l231 372h161l230 -372h-76l-234 191zM160 771q-31 89 -62 119t-97 44v60h535v-60q-79 -10 -94 -43t16 -133l149 -478l157 478q31 99 17 132.5t-89 43.5v60h504v-60q-76 -9 -90 -42.5t17 -133.5l152 -478l154 475q32 102 16.5 135.5t-94.5 43.5v60h337v-60
q-66 -12 -97 -45.5t-71 -143.5l-271 -747h-146l-257 725l-265 -725h-145z" />
    <glyph glyph-name="Ycircumflex" unicode="&#x176;" horiz-adv-x="1374" 
d="M561 1542h-72l208 285h167l209 -285h-75l-218 142zM218 1187q-69 114 -109.5 149.5t-115.5 48.5v59h618v-59q-100 -14 -113.5 -54t47.5 -147l257 -452l233 432q45 84 53.5 126.5t-17.5 63.5t-99 31v59h409v-59q-78 -14 -122 -54t-122 -170l-298 -501v-457q0 -75 29 -103
t130 -41v-59h-619v59q101 13 130 41t29 103v441z" />
    <glyph glyph-name="ycircumflex" unicode="&#x177;" horiz-adv-x="1074" 
d="M347 1119h-74l230 372h161l231 -372h-77l-234 191zM161 771q-37 91 -66.5 120.5t-93.5 42.5v60h550v-60q-91 -11 -108 -43t17 -127l174 -479l174 475q35 98 18 130.5t-108 43.5v60h356v-60q-67 -12 -98 -44.5t-75 -140.5l-207 -507l-107 -260l-157 -442h-225v5
q65 77 146.5 200t138.5 230z" />
    <glyph glyph-name="Ydieresis" unicode="&#x178;" horiz-adv-x="1374" 
d="M599 1571q-49 0 -83.5 33t-34.5 81t34.5 81t83.5 33t83.5 -33t34.5 -81t-34.5 -81t-83.5 -33zM936 1571q-49 0 -83.5 33t-34.5 81t34.5 81t83.5 33t83.5 -33t34.5 -81t-34.5 -81t-83.5 -33zM218 1187q-69 114 -109.5 149.5t-115.5 48.5v59h618v-59q-100 -14 -113.5 -54
t47.5 -147l257 -452l233 432q45 84 53.5 126.5t-17.5 63.5t-99 31v59h409v-59q-78 -14 -122 -54t-122 -170l-298 -501v-457q0 -75 29 -103t130 -41v-59h-619v59q101 13 130 41t29 103v441z" />
    <glyph glyph-name="Zacute" unicode="&#x179;" horiz-adv-x="1287" 
d="M614 1542h-75l133 286h287v-7zM1197 0h-1122v56l785 1319l-279 -9q-96 -4 -159.5 -14.5t-111 -29.5t-77 -54.5t-49 -81.5t-36.5 -118h-55l15 376h1090v-56l-786 -1319l284 10q99 4 162 13.5t115.5 30.5t85 59.5t56 93.5t42.5 140h55z" />
    <glyph glyph-name="zacute" unicode="&#x17a;" horiz-adv-x="958" 
d="M436 1119h-75l151 372h287v-9zM75 994h821v-54l-531 -873l207 7q131 6 188 58.5t86 203.5h56l-7 -336h-839v54l528 872l-175 -6q-139 -7 -195.5 -54.5t-91.5 -184.5h-55z" />
    <glyph glyph-name="Zdotaccent" unicode="&#x17b;" horiz-adv-x="1287" 
d="M657 1567q-51 0 -87 34t-36 84t36 83.5t87 33.5q52 0 88 -33.5t36 -83.5t-36 -84t-88 -34zM1197 0h-1122v56l785 1319l-279 -9q-96 -4 -159.5 -14.5t-111 -29.5t-77 -54.5t-49 -81.5t-36.5 -118h-55l15 376h1090v-56l-786 -1319l284 10q99 4 162 13.5t115.5 30.5t85 59.5
t56 93.5t42.5 140h55z" />
    <glyph glyph-name="zdotaccent" unicode="&#x17c;" horiz-adv-x="958" 
d="M491 1170q-61 0 -103 39.5t-42 98.5t42 99t103 40t103 -39.5t42 -99.5q0 -59 -42 -98.5t-103 -39.5zM75 994h821v-54l-531 -873l207 7q131 6 188 58.5t86 203.5h56l-7 -336h-839v54l528 872l-175 -6q-139 -7 -195.5 -54.5t-91.5 -184.5h-55z" />
    <glyph glyph-name="Zcaron" unicode="&#x17d;" horiz-adv-x="1287" 
d="M889 1840h72l-209 -286h-166l-209 286h75l218 -142zM1197 0h-1122v56l785 1319l-279 -9q-96 -4 -159.5 -14.5t-111 -29.5t-77 -54.5t-49 -81.5t-36.5 -118h-55l15 376h1090v-56l-786 -1319l284 10q99 4 162 13.5t115.5 30.5t85 59.5t56 93.5t42.5 140h55z" />
    <glyph glyph-name="zcaron" unicode="&#x17e;" horiz-adv-x="958" 
d="M727 1508h75l-230 -372h-161l-231 372h76l235 -191zM75 994h821v-54l-531 -873l207 7q131 6 188 58.5t86 203.5h56l-7 -336h-839v54l528 872l-175 -6q-139 -7 -195.5 -54.5t-91.5 -184.5h-55z" />
    <glyph glyph-name="Schwa" unicode="&#x18f;" horiz-adv-x="1507" 
d="M694 -25q-302 0 -466.5 168t-164.5 448q0 41 8 99h1017v31q0 315 -118 490t-332 175q-165 0 -273 -99t-149 -276h-56l11 358q68 45 196 73t292 28q163 0 300.5 -48.5t239.5 -140.5t159.5 -235t57.5 -323q0 -222 -86.5 -391t-251 -263t-384.5 -94zM361 558
q0 -105 17.5 -191.5t55.5 -157.5t105.5 -111t159.5 -40q179 1 275 150.5t111 409.5l-723 -2q-1 -19 -1 -58z" />
    <glyph glyph-name="florin" unicode="&#x192;" horiz-adv-x="1201" 
d="M374 307l99 470h-268v54h280l35 168q94 470 453 470q106 0 164 -49t58 -127q0 -48 -32.5 -80.5t-78.5 -32.5q-47 0 -78.5 32t-31.5 79q0 34 18 60.5t48 37.5q-7 1 -23 1q-73 0 -116 -56t-73 -198l-64 -305h317v-54h-329l-71 -332q-92 -470 -452 -470q-105 0 -164 49
t-59 127q0 48 32.5 80.5t78.5 32.5q48 0 79.5 -32t31.5 -79q0 -35 -19 -61.5t-49 -37.5q14 -2 24 -2q73 0 116.5 56.5t73.5 198.5z" />
    <glyph glyph-name="Ohorn" unicode="&#x1a0;" horiz-adv-x="1699" 
d="M91 721q0 156 54 293t150 238t237.5 159t307.5 58q64 0 165.5 -12t143.5 -12q114 0 176 59.5t62 156.5q1 39 -10 77.5t-27 58.5h59q79 -34 127.5 -97t47.5 -135q0 -90 -78.5 -137.5t-211.5 -47.5q-56 0 -109 11q184 -89 294.5 -263.5t110.5 -403.5q0 -209 -92 -379
t-264 -270t-393 -100q-151 0 -287.5 53t-239 148t-163 236.5t-60.5 308.5zM425 737q0 -194 51 -347.5t148 -242.5t226 -89q105 0 184 48.5t127 137t71 204.5t23 260q0 194 -50.5 347.5t-147.5 242t-226 88.5q-85 0 -153 -32t-114.5 -89t-78 -138.5t-46 -178.5t-14.5 -211z
" />
    <glyph glyph-name="ohorn" unicode="&#x1a1;" horiz-adv-x="1320" 
d="M616 -20q-237 0 -385.5 140.5t-148.5 372.5q0 149 69.5 268.5t190.5 185.5t269 66q58 0 137 -9.5t114 -9.5q111 0 173 55.5t63 145.5q0 40 -11 78t-27 58h59q77 -34 124.5 -96t47.5 -131q0 -81 -71 -126.5t-190 -45.5q-77 0 -147 17q129 -56 203 -173.5t74 -274.5
q0 -151 -71 -270.5t-195 -185t-278 -65.5zM626 60q114 0 175.5 113t61.5 315q0 205 -67 325.5t-180 120.5q-116 0 -177 -113t-61 -316q0 -204 67 -324.5t181 -120.5z" />
    <glyph glyph-name="Uhorn" unicode="&#x1af;" horiz-adv-x="1652" 
d="M179 543v707q0 69 -27 94t-122 41v59h613v-59q-105 -16 -134 -40.5t-29 -94.5v-697q0 -222 107 -335t287 -113q181 0 285 118t103 329l-6 670q0 48 -4.5 73t-23 44.5t-48.5 28t-88 17.5v59h98q133 0 202 60.5t69 156.5q0 90 -37 136h59q76 -34 122 -96t46 -132
q0 -81 -62 -126.5t-174 -45.5q-19 0 -59 4l-6 -859q-2 -261 -155.5 -414t-421.5 -153q-97 0 -183.5 21t-162 66t-130.5 110.5t-86.5 160.5t-31.5 210z" />
    <glyph glyph-name="uhorn" unicode="&#x1b0;" horiz-adv-x="1361" 
d="M429 1006v-670q0 -110 51 -167t146 -57q64 0 113 27.5t76 73.5v583q0 45 -11.5 61t-55.5 29l-61 18v53l119 11q177 17 254.5 73.5t77.5 155.5q0 87 -37 133h59q79 -32 128 -94.5t49 -130.5q-1 -75 -54.5 -116t-139.5 -41q-27 0 -49 3v-755q0 -45 11.5 -61t55.5 -29
l64 -18v-54l-407 -45v174q-42 -83 -129 -133t-206 -50q-152 0 -242 82.5t-90 238.5v495q0 44 -12 60.5t-56 29.5l-61 18v54z" />
    <glyph glyph-name="uni01C4" unicode="&#x1c4;" horiz-adv-x="2870" 
d="M2473 1840h72l-209 -286h-167l-208 286h75l217 -142zM1503 746q0 -173 -68.5 -315.5t-185.5 -235.5t-272.5 -144t-330.5 -51h-589v59q95 14 121 38t26 92v1066q0 68 -26 92t-121 38v59h582q192 0 351 -46t273 -133.5t177 -220t63 -298.5zM2781 0h-1122v56l784 1319
l-279 -9q-96 -4 -159 -14.5t-110.5 -29.5t-77 -54.5t-49 -81.5t-36.5 -118h-55l15 376h1089v-56l-785 -1319l284 10q99 4 162 13.5t115.5 30.5t84.5 59t56 93.5t42 140.5h56zM1170 725q1 289 -150.5 464t-419.5 183l-95 3v-1306l95 3q266 8 418 181.5t152 471.5z" />
    <glyph glyph-name="uni01C5" unicode="&#x1c5;" horiz-adv-x="2542" 
d="M2311 1508h75l-230 -372h-162l-230 372h76l235 -191zM1503 746q0 -173 -68.5 -315.5t-185.5 -235.5t-272.5 -144t-330.5 -51h-589v59q95 14 121 38t26 92v1066q0 68 -26 92t-121 38v59h582q192 0 351 -46t273 -133.5t177 -220t63 -298.5zM1170 725q1 289 -150.5 464
t-419.5 183l-95 3v-1306l95 3q266 8 418 181.5t152 471.5zM1658 994h822v-54l-531 -873l207 7q131 6 187.5 58t86.5 204h56l-7 -336h-839v54l527 872l-174 -6q-96 -5 -148.5 -27t-83.5 -70t-55 -142h-55z" />
    <glyph glyph-name="uni01C6" unicode="&#x1c6;" horiz-adv-x="2219" 
d="M1988 1508h75l-230 -372h-162l-230 372h76l235 -191zM82 487q0 119 36.5 219t100 166.5t148.5 103.5t181 37q87 0 158 -32t107 -85v386q0 45 -11 61t-53 29l-61 18v54l404 47v-1295q0 -45 11.5 -61t53.5 -29l60 -18v-54l-400 -45v177q-39 -85 -127.5 -135.5t-200.5 -50.5
q-173 0 -290 137t-117 370zM1336 994h821v-54l-531 -873l207 7q131 6 188 58.5t86 203.5h56l-7 -336h-839v54l527 872l-174 -6q-96 -5 -148.5 -27t-83.5 -70t-55 -142h-55zM369 512q0 -186 70 -293t184 -107q133 0 190 105v604q-20 41 -69.5 68t-110.5 27
q-119 0 -191.5 -108t-72.5 -296z" />
    <glyph glyph-name="uni01C7" unicode="&#x1c7;" horiz-adv-x="1894" 
d="M1126 0h-1069v59q95 14 121 38t26 92v1066q0 68 -26 92t-121 38v59h608v-59q-102 -13 -131 -40t-29 -100v-1176l174 6q99 5 161 21t111 57.5t79.5 109t55.5 178.5h56zM1689 264q0 -130 -35 -229.5t-110 -177.5t-171.5 -136t-240.5 -120l-26 52q108 71 168 152.5t87 195.5
t27 288v966q0 68 -26 92t-121 38v59h595v-59q-94 -14 -120.5 -38t-26.5 -92v-991z" />
    <glyph glyph-name="uni01C8" unicode="&#x1c8;" horiz-adv-x="1781" 
d="M1469 1163q-63 0 -107.5 42t-44.5 103q0 62 44 104t108 42t108 -41.5t44 -104.5q0 -61 -44 -103t-108 -42zM1126 0h-1069v59q95 14 121 38t26 92v1066q0 68 -26 92t-121 38v59h608v-59q-102 -13 -131 -40t-29 -100v-1176l174 6q99 5 161 21t111 57.5t79.5 109t55.5 178.5
h56zM1629 1006v-812q0 -160 -35 -265.5t-111.5 -186.5t-223.5 -175l-68 -44l-34 49q115 101 154.5 221t39.5 350v653q0 45 -11 61t-53 29l-61 18v54z" />
    <glyph glyph-name="uni01C9" unicode="&#x1c9;" horiz-adv-x="1221" 
d="M456 1492v-1330q0 -53 22.5 -72t101.5 -31v-59h-527v59q79 12 101.5 31t22.5 72v1120q0 45 -11 61t-53 29l-60 18v54zM910 1163q-64 0 -108.5 42t-44.5 103q0 62 44.5 104t108.5 42t108 -42t44 -104q0 -61 -44.5 -103t-107.5 -42zM1069 1006v-812q0 -160 -35 -265.5
t-111.5 -186.5t-222.5 -175l-69 -44l-34 49q115 101 154.5 221t39.5 350v653q0 45 -11 61t-53 29l-60 18v54z" />
    <glyph glyph-name="uni01CA" unicode="&#x1ca;" horiz-adv-x="2213" 
d="M487 1444l753 -1138l-18 883q-2 112 -29.5 147.5t-125.5 48.5v59h408v-59q-94 -14 -119.5 -49.5t-27.5 -144.5l-11 -1191h-239l-816 1230l18 -975q1 -59 6 -90.5t22 -55t45.5 -33.5t80.5 -17v-59h-408v59q94 14 120 50t27 144l9 974q1 79 -27 110.5t-114 47.5v59h446z
M2009 264q0 -130 -35 -229.5t-110.5 -177.5t-172 -136t-240.5 -120l-25 52q108 71 168 152.5t87 195.5t27 288v966q0 68 -26.5 92t-120.5 38v59h595v-59q-94 -14 -120.5 -38t-26.5 -92v-991z" />
    <glyph glyph-name="uni01CB" unicode="&#x1cb;" horiz-adv-x="2099" 
d="M1788 1163q-63 0 -107.5 42t-44.5 103q0 62 44 104t108 42t108.5 -42t44.5 -104q0 -61 -44.5 -103t-108.5 -42zM487 1444l753 -1138l-18 883q-2 112 -29.5 147.5t-125.5 48.5v59h408v-59q-94 -14 -119.5 -49.5t-27.5 -144.5l-11 -1191h-239l-816 1230l18 -975
q1 -59 6 -90.5t22 -55t45.5 -33.5t80.5 -17v-59h-408v59q94 14 120 50t27 144l9 974q1 79 -27 110.5t-114 47.5v59h446zM1948 1006v-812q0 -160 -35 -265.5t-111.5 -186.5t-223.5 -175l-68 -44l-34 49q115 101 154.5 221t39.5 350v653q0 45 -11 61t-53 29l-60 18v54z" />
    <glyph glyph-name="uni01CC" unicode="&#x1cc;" horiz-adv-x="1894" 
d="M1582 1163q-63 0 -107.5 42t-44.5 103q0 62 44 104t108 42t108 -42t44 -104q0 -61 -44.5 -103t-107.5 -42zM452 1006v-176q42 83 131 133t209 50q157 0 249 -81.5t92 -235.5v-534q0 -53 22.5 -72t102.5 -31v-59h-514v59q71 10 91 28t20 69v505q0 108 -52.5 164t-149.5 56
q-68 0 -119.5 -27.5t-77.5 -73.5v-624q0 -51 19.5 -68.5t90.5 -28.5v-59h-513v59q79 12 101.5 31t22.5 72v634q0 45 -11 61t-53 29l-60 18v54zM1742 1006v-812q0 -160 -35 -265.5t-111.5 -186.5t-223.5 -175l-68 -44l-34 49q115 101 154.5 221t39.5 350v653q0 45 -11 61
t-53 29l-61 18v54z" />
    <glyph glyph-name="Acaron" unicode="&#x1cd;" horiz-adv-x="1433" 
d="M944 1840h72l-208 -286h-167l-209 286h75l218 -142zM1244 266q43 -117 80 -155.5t119 -51.5v-59h-626v59q104 14 125 55t-18 157l-77 225h-474l-68 -204q-30 -89 -30 -134t30.5 -66.5t105.5 -32.5v-59h-421v59q59 9 90.5 29.5t57.5 65t61 142.5l420 1151h198zM400 574
h420l-212 617z" />
    <glyph glyph-name="acaron" unicode="&#x1ce;" horiz-adv-x="1127" 
d="M761 1508h75l-230 -372h-162l-230 372h76l235 -191zM369 -20q-129 0 -210.5 68.5t-81.5 176.5q0 118 95 193t311 121l208 44v94q0 131 -62 190t-179 59q-85 0 -156 -33q38 -12 62 -45t24 -75q0 -53 -38.5 -90t-95.5 -37q-56 0 -94.5 36t-38.5 90q0 103 120.5 172
t309.5 69q201 0 311 -81.5t110 -247.5v-481q0 -61 27.5 -90.5t73.5 -29.5q25 0 44 7v-56q-69 -49 -186 -49q-86 0 -148 40.5t-77 113.5q-36 -70 -125 -114.5t-204 -44.5zM353 271q0 -80 45.5 -125t118.5 -45q120 0 174 90v323l-94 -21q-133 -30 -188.5 -83t-55.5 -139z" />
    <glyph glyph-name="Icaron" unicode="&#x1cf;" horiz-adv-x="710" 
d="M586 1840h72l-208 -286h-167l-209 286h75l218 -142zM505 189q0 -68 26.5 -92t120.5 -38v-59h-595v59q95 14 121 38t26 92v1066q0 68 -26 92t-121 38v59h595v-59q-94 -14 -120.5 -38t-26.5 -92v-1066z" />
    <glyph glyph-name="icaron" unicode="&#x1d0;" horiz-adv-x="624" 
d="M509 1508h67l-207 -372h-145l-208 372h69l211 -191zM456 1006v-844q0 -53 22.5 -72t101.5 -31v-59h-527v59q79 12 101.5 31t22.5 72v634q0 45 -11 61t-53 29l-60 18v54z" />
    <glyph glyph-name="Ocaron" unicode="&#x1d1;" horiz-adv-x="1681" 
d="M1067 1840h72l-209 -286h-166l-209 286h75l218 -142zM91 721q0 156 54 293t150 238t237.5 159t307.5 58q151 0 287 -53t239 -147.5t163.5 -236t60.5 -308.5q0 -209 -92 -379t-264 -270t-393 -100q-151 0 -287.5 53t-239 148t-163 236.5t-60.5 308.5zM425 737
q0 -194 51 -347.5t148 -242.5t226 -89q105 0 184 48.5t127 137t71 204.5t23 260q0 194 -50.5 347.5t-147.5 242t-226 88.5q-85 0 -153 -32t-114.5 -89t-78 -138.5t-46 -178.5t-14.5 -211z" />
    <glyph glyph-name="ocaron" unicode="&#x1d2;" horiz-adv-x="1241" 
d="M856 1508h75l-231 -372h-161l-230 372h76l234 -191zM616 -20q-152 0 -273 63t-191 180.5t-70 269.5q0 151 71 270.5t194.5 184.5t277.5 65q152 0 273.5 -63t191.5 -180t70 -269q0 -151 -71 -270.5t-195 -185t-278 -65.5zM626 60q112 0 174.5 114t62.5 313
q0 205 -67.5 326t-179.5 121q-114 0 -176 -114t-62 -313q0 -205 68 -326t180 -121z" />
    <glyph glyph-name="Ucaron" unicode="&#x1d3;" horiz-adv-x="1521" 
d="M1063 1840h72l-209 -286h-166l-209 286h75l217 -142zM173 1260q0 65 -25.5 88.5t-113.5 36.5v59h587v-59q-94 -14 -120.5 -38t-26.5 -92v-695q0 -224 106.5 -339.5t284.5 -115.5q182 0 287.5 121t103.5 341l-8 623q-2 110 -29.5 145.5t-126.5 49.5v59h403v-60
q-91 -13 -116 -48t-27 -144l-8 -643q-4 -264 -155.5 -419t-422.5 -155q-97 0 -183.5 21t-162 67t-130 112.5t-86 162.5t-31.5 213v709z" />
    <glyph glyph-name="ucaron" unicode="&#x1d4;" horiz-adv-x="1265" 
d="M862 1508h75l-230 -372h-162l-230 372h76l235 -191zM432 1006v-670q0 -110 51.5 -167t146.5 -57q64 0 113 28t76 73v583q0 45 -11 61t-53 29l-61 18v54l403 48v-810q0 -45 11.5 -61t52.5 -29l60 -18v-54l-400 -45v174q-41 -83 -128.5 -133t-205.5 -50q-153 0 -243 82.5
t-90 238.5v495q0 45 -11 61t-53 29l-61 18v54z" />
    <glyph glyph-name="Udieresismacron" unicode="&#x1d5;" horiz-adv-x="1521" 
d="M541 1827v106h580v-106h-580zM677 1557h-10q-41 0 -69 24t-28 60t28 59.5t69 23.5h10q41 0 69 -23.5t28 -59.5t-28 -60t-69 -24zM995 1557h-10q-41 0 -69 24t-28 60t28 59.5t69 23.5h10q41 0 69 -23.5t28 -59.5t-28 -60t-69 -24zM173 1260q0 65 -25.5 88.5t-113.5 36.5
v59h587v-59q-94 -14 -120.5 -38t-26.5 -92v-695q0 -224 106.5 -339.5t284.5 -115.5q182 0 287.5 121t103.5 341l-8 623q-2 110 -29.5 145.5t-126.5 49.5v59h403v-60q-91 -13 -116 -48t-27 -144l-8 -643q-4 -264 -155.5 -419t-422.5 -155q-97 0 -183.5 21t-162 67t-130 112.5
t-86 162.5t-31.5 213v709z" />
    <glyph glyph-name="udieresismacron" unicode="&#x1d6;" horiz-adv-x="1265" 
d="M343 1442v124h566v-124h-566zM463 1121h-9q-43 0 -72.5 28.5t-29.5 70.5q0 43 29.5 71.5t72.5 28.5h9q44 0 73.5 -28.5t29.5 -71.5t-29.5 -71t-73.5 -28zM798 1121h-9q-43 0 -72.5 28.5t-29.5 70.5q0 43 29.5 71.5t72.5 28.5h9q44 0 73.5 -28.5t29.5 -71.5t-29.5 -71
t-73.5 -28zM432 1006v-670q0 -110 51.5 -167t146.5 -57q64 0 113 28t76 73v583q0 45 -11 61t-53 29l-61 18v54l403 48v-810q0 -45 11.5 -61t52.5 -29l60 -18v-54l-400 -45v174q-41 -83 -128.5 -133t-205.5 -50q-153 0 -243 82.5t-90 238.5v495q0 45 -11 61t-53 29l-61 18v54
z" />
    <glyph glyph-name="Udieresisacute" unicode="&#x1d7;" horiz-adv-x="1521" 
d="M1121 1852l-580 -81v52l580 166v-137zM677 1557h-10q-41 0 -69 24t-28 60t28 59.5t69 23.5h10q41 0 69 -23.5t28 -59.5t-28 -60t-69 -24zM995 1557h-10q-41 0 -69 24t-28 60t28 59.5t69 23.5h10q41 0 69 -23.5t28 -59.5t-28 -60t-69 -24zM173 1260q0 65 -25.5 88.5
t-113.5 36.5v59h587v-59q-94 -14 -120.5 -38t-26.5 -92v-695q0 -224 106.5 -339.5t284.5 -115.5q182 0 287.5 121t103.5 341l-8 623q-2 110 -29.5 145.5t-126.5 49.5v59h403v-60q-91 -13 -116 -48t-27 -144l-8 -643q-4 -264 -155.5 -419t-422.5 -155q-97 0 -183.5 21
t-162 67t-130 112.5t-86 162.5t-31.5 213v709z" />
    <glyph glyph-name="udieresisacute" unicode="&#x1d8;" horiz-adv-x="1265" 
d="M909 1485l-565 -94v60l565 195v-161zM463 1121h-9q-43 0 -72.5 28.5t-29.5 70.5q0 43 29.5 71.5t72.5 28.5h9q44 0 73.5 -28.5t29.5 -71.5t-29.5 -71t-73.5 -28zM798 1121h-9q-43 0 -72.5 28.5t-29.5 70.5q0 43 29.5 71.5t72.5 28.5h9q44 0 73.5 -28.5t29.5 -71.5
t-29.5 -71t-73.5 -28zM432 1006v-670q0 -110 51.5 -167t146.5 -57q64 0 113 28t76 73v583q0 45 -11 61t-53 29l-61 18v54l403 48v-810q0 -45 11.5 -61t52.5 -29l60 -18v-54l-400 -45v174q-41 -83 -128.5 -133t-205.5 -50q-153 0 -243 82.5t-90 238.5v495q0 45 -11 61t-53 29
l-61 18v54z" />
    <glyph glyph-name="Udieresiscaron" unicode="&#x1d9;" horiz-adv-x="1521" 
d="M1121 1986v-51l-267 -161h-45l-268 161v51l290 -83zM677 1557h-10q-41 0 -69 24t-28 60t28 59.5t69 23.5h10q41 0 69 -23.5t28 -59.5t-28 -60t-69 -24zM995 1557h-10q-41 0 -69 24t-28 60t28 59.5t69 23.5h10q41 0 69 -23.5t28 -59.5t-28 -60t-69 -24zM173 1260
q0 65 -25.5 88.5t-113.5 36.5v59h587v-59q-94 -14 -120.5 -38t-26.5 -92v-695q0 -224 106.5 -339.5t284.5 -115.5q182 0 287.5 121t103.5 341l-8 623q-2 110 -29.5 145.5t-126.5 49.5v59h403v-60q-91 -13 -116 -48t-27 -144l-8 -643q-4 -264 -155.5 -419t-422.5 -155
q-97 0 -183.5 21t-162 67t-130 112.5t-86 162.5t-31.5 213v709z" />
    <glyph glyph-name="udieresiscaron" unicode="&#x1da;" horiz-adv-x="1265" 
d="M909 1639v-62l-261 -197h-43l-261 197v62l282 -101zM463 1121h-9q-43 0 -72.5 28.5t-29.5 70.5q0 43 29.5 71.5t72.5 28.5h9q44 0 73.5 -28.5t29.5 -71.5t-29.5 -71t-73.5 -28zM798 1121h-9q-43 0 -72.5 28.5t-29.5 70.5q0 43 29.5 71.5t72.5 28.5h9q44 0 73.5 -28.5
t29.5 -71.5t-29.5 -71t-73.5 -28zM432 1006v-670q0 -110 51.5 -167t146.5 -57q64 0 113 28t76 73v583q0 45 -11 61t-53 29l-61 18v54l403 48v-810q0 -45 11.5 -61t52.5 -29l60 -18v-54l-400 -45v174q-41 -83 -128.5 -133t-205.5 -50q-153 0 -243 82.5t-90 238.5v495
q0 45 -11 61t-53 29l-61 18v54z" />
    <glyph glyph-name="Udieresisgrave" unicode="&#x1db;" horiz-adv-x="1521" 
d="M542 1852v137l579 -166v-52zM677 1557h-10q-41 0 -69 24t-28 60t28 59.5t69 23.5h10q41 0 69 -23.5t28 -59.5t-28 -60t-69 -24zM995 1557h-10q-41 0 -69 24t-28 60t28 59.5t69 23.5h10q41 0 69 -23.5t28 -59.5t-28 -60t-69 -24zM173 1260q0 65 -25.5 88.5t-113.5 36.5v59
h587v-59q-94 -14 -120.5 -38t-26.5 -92v-695q0 -224 106.5 -339.5t284.5 -115.5q182 0 287.5 121t103.5 341l-8 623q-2 110 -29.5 145.5t-126.5 49.5v59h403v-60q-91 -13 -116 -48t-27 -144l-8 -643q-4 -264 -155.5 -419t-422.5 -155q-97 0 -183.5 21t-162 67t-130 112.5
t-86 162.5t-31.5 213v709z" />
    <glyph glyph-name="udieresisgrave" unicode="&#x1dc;" horiz-adv-x="1265" 
d="M344 1485v161l565 -195v-60zM463 1121h-9q-43 0 -72.5 28.5t-29.5 70.5q0 43 29.5 71.5t72.5 28.5h9q44 0 73.5 -28.5t29.5 -71.5t-29.5 -71t-73.5 -28zM798 1121h-9q-43 0 -72.5 28.5t-29.5 70.5q0 43 29.5 71.5t72.5 28.5h9q44 0 73.5 -28.5t29.5 -71.5t-29.5 -71
t-73.5 -28zM432 1006v-670q0 -110 51.5 -167t146.5 -57q64 0 113 28t76 73v583q0 45 -11 61t-53 29l-61 18v54l403 48v-810q0 -45 11.5 -61t52.5 -29l60 -18v-54l-400 -45v174q-41 -83 -128.5 -133t-205.5 -50q-153 0 -243 82.5t-90 238.5v495q0 45 -11 61t-53 29l-61 18v54
z" />
    <glyph glyph-name="Adieresismacron" unicode="&#x1de;" horiz-adv-x="1433" 
d="M422 1827v106h581v-106h-581zM559 1557h-10q-41 0 -69 24t-28 60t28 59.5t69 23.5h10q41 0 69 -23.5t28 -59.5t-28 -60t-69 -24zM876 1557h-9q-42 0 -69.5 23.5t-27.5 60.5q0 36 28 59.5t69 23.5h9q41 0 69 -23.5t28 -59.5q0 -37 -27.5 -60.5t-69.5 -23.5zM1244 266
q43 -117 80 -155.5t119 -51.5v-59h-626v59q104 14 125 55t-18 157l-77 225h-474l-68 -204q-30 -89 -30 -134t30.5 -66.5t105.5 -32.5v-59h-421v59q59 9 90.5 29.5t57.5 65t61 142.5l420 1151h198zM400 574h420l-212 617z" />
    <glyph glyph-name="adieresismacron" unicode="&#x1df;" horiz-adv-x="1127" 
d="M242 1442v124h566v-124h-566zM362 1121h-9q-43 0 -72.5 28.5t-29.5 70.5q0 43 29.5 71.5t72.5 28.5h9q44 0 73.5 -28.5t29.5 -71.5t-29.5 -71t-73.5 -28zM697 1121h-9q-43 0 -72.5 28.5t-29.5 70.5q0 43 29.5 71.5t72.5 28.5h9q44 0 73.5 -28.5t29.5 -71.5t-29.5 -71
t-73.5 -28zM369 -20q-129 0 -210.5 68.5t-81.5 176.5q0 118 95 193t311 121l208 44v94q0 131 -62 190t-179 59q-85 0 -156 -33q38 -12 62 -45t24 -75q0 -53 -38.5 -90t-95.5 -37q-56 0 -94.5 36t-38.5 90q0 103 120.5 172t309.5 69q201 0 311 -81.5t110 -247.5v-481
q0 -61 27.5 -90.5t73.5 -29.5q25 0 44 7v-56q-69 -49 -186 -49q-86 0 -148 40.5t-77 113.5q-36 -70 -125 -114.5t-204 -44.5zM353 271q0 -80 45.5 -125t118.5 -45q120 0 174 90v323l-94 -21q-133 -30 -188.5 -83t-55.5 -139z" />
    <glyph glyph-name="Adotmacron" unicode="&#x1e0;" horiz-adv-x="1433" 
d="M422 1803v106h581v-106h-581zM713 1549q-44 0 -74.5 26t-30.5 65t30.5 65.5t74.5 26.5t74.5 -26.5t30.5 -65.5t-30.5 -65t-74.5 -26zM1244 266q43 -117 80 -155.5t119 -51.5v-59h-626v59q104 14 125 55t-18 157l-77 225h-474l-68 -204q-30 -89 -30 -134t30.5 -66.5
t105.5 -32.5v-59h-421v59q59 9 90.5 29.5t57.5 65t61 142.5l420 1151h198zM400 574h420l-212 617z" />
    <glyph glyph-name="adotmacron" unicode="&#x1e1;" horiz-adv-x="1127" 
d="M242 1430v125h566v-125h-566zM525 1119q-47 0 -78.5 30.5t-31.5 76.5q0 45 32 76t78 31q47 0 78.5 -30.5t31.5 -76.5t-31.5 -76.5t-78.5 -30.5zM369 -20q-129 0 -210.5 68.5t-81.5 176.5q0 118 95 193t311 121l208 44v94q0 131 -62 190t-179 59q-85 0 -156 -33
q38 -12 62 -45t24 -75q0 -53 -38.5 -90t-95.5 -37q-56 0 -94.5 36t-38.5 90q0 103 120.5 172t309.5 69q201 0 311 -81.5t110 -247.5v-481q0 -61 27.5 -90.5t73.5 -29.5q25 0 44 7v-56q-69 -49 -186 -49q-86 0 -148 40.5t-77 113.5q-36 -70 -125 -114.5t-204 -44.5zM353 271
q0 -80 45.5 -125t118.5 -45q120 0 174 90v323l-94 -21q-133 -30 -188.5 -83t-55.5 -139z" />
    <glyph glyph-name="AEmacron" unicode="&#x1e2;" horiz-adv-x="1941" 
d="M964 1601v132h546v-132h-546zM1815 1444l14 -375h-56q-22 89 -48 142t-72 88t-107.5 49.5t-161.5 19.5l-177 7l6 -602l200 4q79 3 109.5 42.5t53.5 161.5h53l3 -485h-52q-23 121 -54.5 161.5t-111.5 43.5l-201 4l6 -636l201 9q87 4 143 14.5t101 31.5t73 60t48.5 93
t37.5 139h56l-14 -416h-1068v59q89 13 114 36t25 88l-4 424h-443l-148 -308q-43 -90 -48 -137.5t22.5 -70t97.5 -32.5v-59h-429v59q83 13 130.5 57t117.5 184l576 1144h1007zM859 1374l-332 -688h404l-6 688h-66z" />
    <glyph glyph-name="aemacron" unicode="&#x1e3;" horiz-adv-x="1658" 
d="M538 1218v153h606v-153h-606zM373 -20q-132 0 -214.5 66.5t-82.5 181.5q0 122 100.5 203t317.5 120l202 36v68q0 137 -66.5 204.5t-182.5 67.5q-83 0 -151 -30q36 -13 58.5 -44t22.5 -70q0 -54 -39.5 -90.5t-97.5 -36.5q-56 0 -93 35.5t-37 88.5q0 98 113 165.5t289 67.5
q116 0 201.5 -34t125.5 -101q54 64 137.5 99.5t182.5 35.5q196 0 309 -113.5t113 -302.5q0 -33 -4 -69h-634q15 -193 118 -304.5t263 -111.5q73 0 136 24t105 64v-59q-55 -72 -158 -116.5t-231 -44.5q-148 0 -272 76t-176 208q-21 -137 -116.5 -210.5t-238.5 -73.5z
M1155 934q-97 0 -154.5 -87.5t-59.5 -249.5l388 2q0 6 0.5 20.5t0.5 22.5q0 138 -43.5 215t-131.5 77zM503 103q84 0 138.5 61.5t54.5 186.5v168l-100 -19q-131 -27 -189 -83t-58 -144q0 -80 41.5 -125t112.5 -45z" />
    <glyph glyph-name="Gcaron" unicode="&#x1e6;" horiz-adv-x="1559" 
d="M1085 1840h72l-208 -286h-167l-209 286h75l218 -142zM91 724q0 175 60.5 317.5t165.5 235t246.5 142.5t305.5 50q161 0 282.5 -27.5t187.5 -72.5l11 -359h-56q-41 181 -144.5 278.5t-262.5 97.5q-216 0 -339 -175t-123 -468q0 -190 53.5 -344t159.5 -247.5t247 -93.5
q155 0 238 66v384q0 68 -27 90.5t-126 32.5v59h565v-59q-92 -10 -117 -33t-25 -91v-392q-88 -64 -231 -102t-298 -38q-221 0 -396 91t-276 262.5t-101 395.5z" />
    <glyph glyph-name="gcaron" unicode="&#x1e7;" horiz-adv-x="1148" 
d="M800 1508h75l-230 -372h-162l-230 372h76l235 -191zM91 677q0 149 130 242.5t327 93.5q129 0 231 -40l346 21v-96l-268 17q69 -31 110 -93.5t41 -140.5q0 -149 -130.5 -238t-322.5 -89q-55 0 -118 10q-113 -27 -113 -105q0 -93 164 -93h191q197 0 301 -75.5t104 -215.5
q0 -161 -151.5 -262.5t-380.5 -101.5q-231 0 -365.5 66t-134.5 175q0 82 83 135t250 67q-127 2 -205.5 55t-78.5 141q1 87 74.5 147t205.5 83q-129 24 -209.5 102t-80.5 195zM366 688q0 -119 52 -190t137 -71q82 0 131.5 68.5t49.5 183.5q0 119 -50.5 190t-138.5 71
q-85 0 -133 -68.5t-48 -183.5zM290 -223q0 -83 72 -135t196 -52q132 0 212.5 54t80.5 143q0 153 -217 153h-184q-77 -10 -118.5 -53t-41.5 -110z" />
    <glyph glyph-name="Kcaron" unicode="&#x1e8;" horiz-adv-x="1426" 
d="M996 1840h73l-209 -286h-167l-208 286h75l217 -142zM505 183q0 -65 25.5 -88t113.5 -36v-59h-587v59q95 14 121 38t26 92v1066q0 68 -26 92t-121 38v59h587v-60q-88 -13 -113.5 -36t-25.5 -87v-482l129 1l348 417q81 97 73 136.5t-113 51.5v59h455v-59
q-90 -19 -157 -64.5t-179 -163.5l-216 -231l342 -586q93 -158 141 -212t103 -72v-56h-380l-416 707h-130v-524z" />
    <glyph glyph-name="kcaron" unicode="&#x1e9;" horiz-adv-x="1189" 
d="M537 1867h72l-209 -285h-166l-209 285h75l217 -142zM844 0l-281 489l-107 1v-334q0 -51 19.5 -68.5t90.5 -28.5v-59h-513v59q79 12 101.5 31t22.5 72v1120q0 45 -11 61t-53 29l-60 18v54l403 48v-931l104 2l208 219q68 70 59 103.5t-101 48.5v60h424v-60
q-83 -17 -144 -52t-172 -134l-72 -66l238 -412q63 -114 104.5 -157t91.5 -57v-56h-352z" />
    <glyph glyph-name="Oogonek" unicode="&#x1ea;" horiz-adv-x="1681" 
d="M91 721q0 156 54 293t150 238t237.5 159t307.5 58q151 0 287 -53t239 -147.5t163.5 -236t60.5 -308.5q0 -201 -85.5 -366.5t-246.5 -268t-370 -113.5q-34 -57 -34 -139q0 -78 39 -130.5t94 -52.5q50 0 78 30v-58q-24 -49 -78.5 -78.5t-123.5 -29.5q-90 0 -149 53t-59 139
q0 71 42.5 140.5t115.5 125.5q-147 5 -278 60t-229.5 149t-156.5 233.5t-58 302.5zM425 737q0 -194 50.5 -347.5t148 -242.5t226.5 -89q105 0 184 48.5t126.5 137t71 204.5t23.5 260q0 194 -50.5 347.5t-147.5 242t-226 88.5q-85 0 -153 -32t-114.5 -89t-78 -138.5
t-46 -178.5t-14.5 -211z" />
    <glyph glyph-name="oogonek" unicode="&#x1eb;" horiz-adv-x="1241" 
d="M652 -482q-85 0 -143.5 52.5t-58.5 138.5q0 142 150 271q-226 5 -372 146.5t-146 366.5q0 151 71 270.5t194.5 184.5t277.5 65q152 0 273.5 -63t191.5 -180t70 -269q0 -213 -136 -356t-348 -163q-27 -57 -27 -123q0 -90 39 -149.5t95 -59.5q47 0 75 28v-58
q-25 -45 -80.5 -73.5t-125.5 -28.5zM626 60q112 0 174.5 114t62.5 313q0 205 -67.5 326t-179.5 121q-114 0 -176 -114t-62 -313q0 -205 68 -326t180 -121z" />
    <glyph glyph-name="Oogonekmacron" unicode="&#x1ec;" horiz-adv-x="1681" 
d="M563 1601v132h546v-132h-546zM91 721q0 156 54 293t150 238t237.5 159t307.5 58q151 0 287 -53t239 -147.5t163.5 -236t60.5 -308.5q0 -201 -85.5 -366.5t-246.5 -268t-370 -113.5q-34 -57 -34 -139q0 -78 39 -130.5t94 -52.5q50 0 78 30v-58q-24 -49 -78.5 -78.5
t-123.5 -29.5q-90 0 -149 53t-59 139q0 71 42.5 140.5t115.5 125.5q-147 5 -278 60t-229.5 149t-156.5 233.5t-58 302.5zM425 737q0 -194 50.5 -347.5t148 -242.5t226.5 -89q105 0 184 48.5t126.5 137t71 204.5t23.5 260q0 194 -50.5 347.5t-147.5 242t-226 88.5
q-85 0 -153 -32t-114.5 -89t-78 -138.5t-46 -178.5t-14.5 -211z" />
    <glyph glyph-name="oogonekmacron" unicode="&#x1ed;" horiz-adv-x="1241" 
d="M316 1218v153h607v-153h-607zM652 -482q-85 0 -143.5 52.5t-58.5 138.5q0 142 150 271q-226 5 -372 146.5t-146 366.5q0 151 71 270.5t194.5 184.5t277.5 65q152 0 273.5 -63t191.5 -180t70 -269q0 -213 -136 -356t-348 -163q-27 -57 -27 -123q0 -90 39 -149.5t95 -59.5
q47 0 75 28v-58q-25 -45 -80.5 -73.5t-125.5 -28.5zM626 60q112 0 174.5 114t62.5 313q0 205 -67.5 326t-179.5 121q-114 0 -176 -114t-62 -313q0 -205 68 -326t180 -121z" />
    <glyph glyph-name="uni01F1" unicode="&#x1f1;" horiz-adv-x="2870" 
d="M1503 746q0 -173 -68.5 -315.5t-185.5 -235.5t-272.5 -144t-330.5 -51h-589v59q95 14 121 38t26 92v1066q0 68 -26 92t-121 38v59h582q192 0 351 -46t273 -133.5t177 -220t63 -298.5zM2781 0h-1122v56l784 1319l-279 -9q-96 -4 -159 -14.5t-110.5 -29.5t-77 -54.5
t-49 -81.5t-36.5 -118h-55l15 376h1089v-56l-785 -1319l284 10q99 4 162 13.5t115.5 30.5t84.5 59t56 93.5t42 140.5h56zM1170 725q1 289 -150.5 464t-419.5 183l-95 3v-1306l95 3q266 8 418 181.5t152 471.5z" />
    <glyph glyph-name="uni01F2" unicode="&#x1f2;" horiz-adv-x="2542" 
d="M1503 746q0 -173 -68.5 -315.5t-185.5 -235.5t-272.5 -144t-330.5 -51h-589v59q95 14 121 38t26 92v1066q0 68 -26 92t-121 38v59h582q192 0 351 -46t273 -133.5t177 -220t63 -298.5zM1170 725q1 289 -150.5 464t-419.5 183l-95 3v-1306l95 3q266 8 418 181.5t152 471.5z
M1658 994h822v-54l-531 -873l207 7q131 6 187.5 58t86.5 204h56l-7 -336h-839v54l527 872l-174 -6q-96 -5 -148.5 -27t-83.5 -70t-55 -142h-55z" />
    <glyph glyph-name="uni01F3" unicode="&#x1f3;" horiz-adv-x="2219" 
d="M82 487q0 119 36.5 219t100 166.5t148.5 103.5t181 37q87 0 158 -32t107 -85v386q0 45 -11 61t-53 29l-61 18v54l404 47v-1295q0 -45 11.5 -61t53.5 -29l60 -18v-54l-400 -45v177q-39 -85 -127.5 -135.5t-200.5 -50.5q-173 0 -290 137t-117 370zM1336 994h821v-54
l-531 -873l207 7q131 6 188 58.5t86 203.5h56l-7 -336h-839v54l527 872l-174 -6q-96 -5 -148.5 -27t-83.5 -70t-55 -142h-55zM369 512q0 -186 70 -293t184 -107q133 0 190 105v604q-20 41 -69.5 68t-110.5 27q-119 0 -191.5 -108t-72.5 -296z" />
    <glyph glyph-name="Gacute" unicode="&#x1f4;" horiz-adv-x="1559" 
d="M810 1542h-74l132 286h287v-7zM91 724q0 175 60.5 317.5t165.5 235t246.5 142.5t305.5 50q161 0 282.5 -27.5t187.5 -72.5l11 -359h-56q-41 181 -144.5 278.5t-262.5 97.5q-216 0 -339 -175t-123 -468q0 -190 53.5 -344t159.5 -247.5t247 -93.5q155 0 238 66v384
q0 68 -27 90.5t-126 32.5v59h565v-59q-92 -10 -117 -33t-25 -91v-392q-88 -64 -231 -102t-298 -38q-221 0 -396 91t-276 262.5t-101 395.5z" />
    <glyph glyph-name="gacute" unicode="&#x1f5;" horiz-adv-x="1148" 
d="M509 1119h-75l151 372h287v-9zM91 677q0 149 130 242.5t327 93.5q129 0 231 -40l346 21v-96l-268 17q69 -31 110 -93.5t41 -140.5q0 -149 -130.5 -238t-322.5 -89q-55 0 -118 10q-113 -27 -113 -105q0 -93 164 -93h191q197 0 301 -75.5t104 -215.5q0 -161 -151.5 -262.5
t-380.5 -101.5q-231 0 -365.5 66t-134.5 175q0 82 83 135t250 67q-127 2 -205.5 55t-78.5 141q1 87 74.5 147t205.5 83q-129 24 -209.5 102t-80.5 195zM366 688q0 -119 52 -190t137 -71q82 0 131.5 68.5t49.5 183.5q0 119 -50.5 190t-138.5 71q-85 0 -133 -68.5t-48 -183.5z
M290 -223q0 -83 72 -135t196 -52q132 0 212.5 54t80.5 143q0 153 -217 153h-184q-77 -10 -118.5 -53t-41.5 -110z" />
    <glyph glyph-name="Ngrave" unicode="&#x1f8;" horiz-adv-x="1503" 
d="M848 1542l-348 278v7h298l124 -285h-74zM487 1444l753 -1138l-18 883q-2 112 -29.5 147.5t-125.5 48.5v59h408v-59q-94 -14 -119.5 -49.5t-27.5 -144.5l-11 -1191h-239l-816 1230l18 -975q1 -59 6 -90.5t22 -55t45.5 -33.5t80.5 -17v-59h-408v59q94 14 120 50t27 144
l9 974q1 79 -27 110.5t-114 47.5v59h446z" />
    <glyph glyph-name="ngrave" unicode="&#x1f9;" horiz-adv-x="1297" 
d="M711 1119l-367 363v9h298l144 -372h-75zM452 1006v-176q42 83 131 133t209 50q157 0 249 -81.5t92 -235.5v-534q0 -53 22.5 -72t102.5 -31v-59h-514v59q71 10 91 28t20 69v505q0 108 -52.5 164t-149.5 56q-68 0 -119.5 -27.5t-77.5 -73.5v-624q0 -51 19.5 -68.5
t90.5 -28.5v-59h-513v59q79 12 101.5 31t22.5 72v634q0 45 -11 61t-53 29l-60 18v54z" />
    <glyph glyph-name="Aringacute" unicode="&#x1fa;" horiz-adv-x="1433" 
d="M1002 1835l-579 -80v51l579 167v-138zM743 1525h-61q-97 0 -156.5 27t-59.5 72q0 46 59.5 73t156.5 27h61q98 0 157 -27t59 -73q0 -45 -59 -72t-157 -27zM732 1570q32 0 49.5 15t17.5 39q0 25 -17.5 40t-49.5 15h-39q-32 0 -50 -15t-18 -40q0 -24 18 -39t50 -15h39z
M1244 266q43 -117 80 -155.5t119 -51.5v-59h-626v59q104 14 125 55t-18 157l-77 225h-474l-68 -204q-30 -89 -30 -134t30.5 -66.5t105.5 -32.5v-59h-421v59q59 9 90.5 29.5t57.5 65t61 142.5l420 1151h198zM400 574h420l-212 617z" />
    <glyph glyph-name="aringacute" unicode="&#x1fb;" horiz-adv-x="1127" 
d="M808 1488l-565 -95v61l565 195v-161zM556 1092h-63q-102 0 -165 36.5t-63 96.5t62.5 96.5t165.5 36.5h63q104 0 166 -36t62 -97q0 -60 -62.5 -96.5t-165.5 -36.5zM545 1152q34 0 52.5 20.5t18.5 52.5q0 33 -18.5 53t-52.5 20h-41q-33 0 -52 -20t-19 -53q0 -32 19 -52.5
t52 -20.5h41zM369 -20q-129 0 -210.5 68.5t-81.5 176.5q0 118 95 193t311 121l208 44v94q0 131 -62 190t-179 59q-85 0 -156 -33q38 -12 62 -45t24 -75q0 -53 -38.5 -90t-95.5 -37q-56 0 -94.5 36t-38.5 90q0 103 120.5 172t309.5 69q201 0 311 -81.5t110 -247.5v-481
q0 -61 27.5 -90.5t73.5 -29.5q25 0 44 7v-56q-69 -49 -186 -49q-86 0 -148 40.5t-77 113.5q-36 -70 -125 -114.5t-204 -44.5zM353 271q0 -80 45.5 -125t118.5 -45q120 0 174 90v323l-94 -21q-133 -30 -188.5 -83t-55.5 -139z" />
    <glyph glyph-name="AEacute" unicode="&#x1fc;" horiz-adv-x="1941" 
d="M1193 1542h-74l132 286h287v-7zM1815 1444l14 -375h-56q-22 89 -48 142t-72 88t-107.5 49.5t-161.5 19.5l-177 7l6 -602l200 4q79 3 109.5 42.5t53.5 161.5h53l3 -485h-52q-23 121 -54.5 161.5t-111.5 43.5l-201 4l6 -636l201 9q87 4 143 14.5t101 31.5t73 60t48.5 93
t37.5 139h56l-14 -416h-1068v59q89 13 114 36t25 88l-4 424h-443l-148 -308q-43 -90 -48 -137.5t22.5 -70t97.5 -32.5v-59h-429v59q83 13 130.5 57t117.5 184l576 1144h1007zM859 1374l-332 -688h404l-6 688h-66z" />
    <glyph glyph-name="aeacute" unicode="&#x1fd;" horiz-adv-x="1658" 
d="M785 1119h-75l151 372h288v-9zM373 -20q-132 0 -214.5 66.5t-82.5 181.5q0 122 100.5 203t317.5 120l202 36v68q0 137 -66.5 204.5t-182.5 67.5q-83 0 -151 -30q36 -13 58.5 -44t22.5 -70q0 -54 -39.5 -90.5t-97.5 -36.5q-56 0 -93 35.5t-37 88.5q0 98 113 165.5
t289 67.5q116 0 201.5 -34t125.5 -101q54 64 137.5 99.5t182.5 35.5q196 0 309 -113.5t113 -302.5q0 -33 -4 -69h-634q15 -193 118 -304.5t263 -111.5q73 0 136 24t105 64v-59q-55 -72 -158 -116.5t-231 -44.5q-148 0 -272 76t-176 208q-21 -137 -116.5 -210.5t-238.5 -73.5
zM1155 934q-97 0 -154.5 -87.5t-59.5 -249.5l388 2q0 6 0.5 20.5t0.5 22.5q0 138 -43.5 215t-131.5 77zM503 103q84 0 138.5 61.5t54.5 186.5v168l-100 -19q-131 -27 -189 -83t-58 -144q0 -80 41.5 -125t112.5 -45z" />
    <glyph glyph-name="Oslashacute" unicode="&#x1fe;" horiz-adv-x="1681" 
d="M792 1542h-75l133 286h287v-7zM91 721q0 156 54 293t150 238t237.5 159t307.5 58q276 0 479 -161l130 144l56 -52l-129 -142q214 -211 214 -534q0 -209 -92 -379t-264 -270t-393 -100q-276 0 -479 161l-131 -144l-55 52l129 142q-101 100 -157.5 236t-56.5 299zM425 737
q0 -201 55 -357l689 762q-56 116 -142.5 180t-195.5 64q-85 0 -153 -32t-114.5 -89t-78 -138.5t-46 -178.5t-14.5 -211zM1255 708q0 203 -54 356l-689 -762q56 -116 142.5 -180t195.5 -64q105 0 184 48.5t126.5 137t71 204.5t23.5 260z" />
    <glyph glyph-name="oslashacute" unicode="&#x1ff;" horiz-adv-x="1234" 
d="M561 1118h-75l151 372h288v-9zM613 -20q-197 0 -335 103l-90 -96l-52 50l88 93q-142 142 -142 362q0 228 153.5 373.5t385.5 145.5q197 0 337 -104l94 99l53 -50l-92 -97q139 -142 139 -360q0 -150 -70.5 -269t-193.5 -184.5t-275 -65.5zM370 506q0 -105 21 -199l428 453
q-32 84 -85.5 129t-121.5 45q-115 0 -178.5 -114t-63.5 -314zM622 58q115 0 178.5 114t63.5 314q0 106 -20 194l-428 -452q33 -82 86 -126t120 -44z" />
    <glyph glyph-name="Adblgrave" unicode="&#x200;" horiz-adv-x="1433" 
d="M529 1827l131 -286h-81l-303 279v7h253zM885 1827l50 -286h-76l-207 279v7h233zM1244 266q43 -117 80 -155.5t119 -51.5v-59h-626v59q104 14 125 55t-18 157l-77 225h-474l-68 -204q-30 -89 -30 -134t30.5 -66.5t105.5 -32.5v-59h-421v59q59 9 90.5 29.5t57.5 65
t61 142.5l420 1151h198zM400 574h420l-212 617z" />
    <glyph glyph-name="adblgrave" unicode="&#x201;" horiz-adv-x="1127" 
d="M295 1491l149 -372h-80l-325 363v9h256zM675 1491l69 -372h-77l-228 363v9h236zM369 -20q-129 0 -210.5 68.5t-81.5 176.5q0 118 95 193t311 121l208 44v94q0 131 -62 190t-179 59q-85 0 -156 -33q38 -12 62 -45t24 -75q0 -53 -38.5 -90t-95.5 -37q-56 0 -94.5 36
t-38.5 90q0 103 120.5 172t309.5 69q201 0 311 -81.5t110 -247.5v-481q0 -61 27.5 -90.5t73.5 -29.5q25 0 44 7v-56q-69 -49 -186 -49q-86 0 -148 40.5t-77 113.5q-36 -70 -125 -114.5t-204 -44.5zM353 271q0 -80 45.5 -125t118.5 -45q120 0 174 90v323l-94 -21
q-133 -30 -188.5 -83t-55.5 -139z" />
    <glyph glyph-name="Ainvertedbreve" unicode="&#x202;" horiz-adv-x="1433" 
d="M712 1887q128 0 202.5 -76.5t74.5 -180.5q0 -19 -4 -51h-64v5q0 68 -58 111.5t-151 43.5t-150.5 -43.5t-57.5 -111.5v-5h-64q-4 30 -4 51q0 104 74 180.5t202 76.5zM1244 266q43 -117 80 -155.5t119 -51.5v-59h-626v59q104 14 125 55t-18 157l-77 225h-474l-68 -204
q-30 -89 -30 -134t30.5 -66.5t105.5 -32.5v-59h-421v59q59 9 90.5 29.5t57.5 65t61 142.5l420 1151h198zM400 574h420l-212 617z" />
    <glyph glyph-name="ainvertedbreve" unicode="&#x203;" horiz-adv-x="1127" 
d="M525 1481q143 0 224.5 -87t81.5 -207q0 -34 -4 -58h-68v5q0 77 -65 126t-169 49t-168.5 -49t-64.5 -126v-5h-69q-4 24 -4 58q0 120 81.5 207t224.5 87zM369 -20q-129 0 -210.5 68.5t-81.5 176.5q0 118 95 193t311 121l208 44v94q0 131 -62 190t-179 59q-85 0 -156 -33
q38 -12 62 -45t24 -75q0 -53 -38.5 -90t-95.5 -37q-56 0 -94.5 36t-38.5 90q0 103 120.5 172t309.5 69q201 0 311 -81.5t110 -247.5v-481q0 -61 27.5 -90.5t73.5 -29.5q25 0 44 7v-56q-69 -49 -186 -49q-86 0 -148 40.5t-77 113.5q-36 -70 -125 -114.5t-204 -44.5zM353 271
q0 -80 45.5 -125t118.5 -45q120 0 174 90v323l-94 -21q-133 -30 -188.5 -83t-55.5 -139z" />
    <glyph glyph-name="Edblgrave" unicode="&#x204;" horiz-adv-x="1279" 
d="M483 1827l131 -286h-81l-303 279v7h253zM839 1827l50 -286h-76l-207 279v7h233zM1154 1444l14 -376h-56q-41 172 -120.5 231.5t-277.5 68.5l-209 7v-602l237 4q80 3 111 43t56 161h52v-485h-52q-22 120 -54 161t-113 44l-237 4v-636l236 9q90 4 148 14t105 31t76.5 60
t50.5 93.5t39 139.5h57l-16 -416h-1144v59q95 14 121 38t26 92v1066q0 68 -26 92t-121 38v59h1097z" />
    <glyph glyph-name="edblgrave" unicode="&#x205;" horiz-adv-x="1092" 
d="M353 1491l149 -372h-80l-325 363v9h256zM733 1491l68 -372h-77l-227 363v9h236zM82 493q0 231 138 375.5t362 144.5q202 0 317 -114.5t115 -306.5q0 -35 -4 -69h-646q15 -190 119 -300.5t266 -110.5q74 0 138.5 24.5t106.5 66.5v-60q-55 -75 -159.5 -119t-236.5 -44
q-223 0 -369.5 140.5t-146.5 372.5zM581 934q-103 0 -161 -89.5t-58 -252.5l400 3q1 12 1 44q0 138 -46.5 216.5t-135.5 78.5z" />
    <glyph glyph-name="Einvertedbreve" unicode="&#x206;" horiz-adv-x="1279" 
d="M666 1887q128 0 202.5 -76.5t74.5 -180.5q0 -19 -4 -51h-64v5q0 68 -58 111.5t-151 43.5t-150.5 -43.5t-57.5 -111.5v-5h-64q-4 30 -4 51q0 104 74 180.5t202 76.5zM1154 1444l14 -376h-56q-41 172 -120.5 231.5t-277.5 68.5l-209 7v-602l237 4q80 3 111 43t56 161h52
v-485h-52q-22 120 -54 161t-113 44l-237 4v-636l236 9q90 4 148 14t105 31t76.5 60t50.5 93.5t39 139.5h57l-16 -416h-1144v59q95 14 121 38t26 92v1066q0 68 -26 92t-121 38v59h1097z" />
    <glyph glyph-name="einvertedbreve" unicode="&#x207;" horiz-adv-x="1092" 
d="M583 1481q143 0 224.5 -87t81.5 -207q0 -35 -5 -58h-68v5q0 77 -65 126t-168 49q-104 0 -169 -49t-65 -126v-5h-68q-4 24 -4 58q0 120 81.5 207t224.5 87zM82 493q0 231 138 375.5t362 144.5q202 0 317 -114.5t115 -306.5q0 -35 -4 -69h-646q15 -190 119 -300.5
t266 -110.5q74 0 138.5 24.5t106.5 66.5v-60q-55 -75 -159.5 -119t-236.5 -44q-223 0 -369.5 140.5t-146.5 372.5zM581 934q-103 0 -161 -89.5t-58 -252.5l400 3q1 12 1 44q0 138 -46.5 216.5t-135.5 78.5z" />
    <glyph glyph-name="Idblgrave" unicode="&#x208;" horiz-adv-x="710" 
d="M171 1827l131 -286h-81l-303 279v7h253zM527 1827l50 -286h-76l-207 279v7h233zM505 189q0 -68 26.5 -92t120.5 -38v-59h-595v59q95 14 121 38t26 92v1066q0 68 -26 92t-121 38v59h595v-59q-94 -14 -120.5 -38t-26.5 -92v-1066z" />
    <glyph glyph-name="idblgrave" unicode="&#x209;" horiz-adv-x="624" 
d="M66 1491l149 -372h-80l-325 363v9h256zM447 1491l68 -372h-77l-228 363v9h237zM456 1006v-844q0 -53 22.5 -72t101.5 -31v-59h-527v59q79 12 101.5 31t22.5 72v634q0 45 -11 61t-53 29l-60 18v54z" />
    <glyph glyph-name="Iinvertedbreve" unicode="&#x20a;" horiz-adv-x="710" 
d="M354 1887q128 0 202.5 -76.5t74.5 -180.5q0 -19 -4 -51h-64v5q0 68 -58 111.5t-151 43.5q-92 0 -150 -43.5t-58 -111.5v-5h-64q-3 22 -3 51q0 105 73.5 181t201.5 76zM505 189q0 -68 26.5 -92t120.5 -38v-59h-595v59q95 14 121 38t26 92v1066q0 68 -26 92t-121 38v59h595
v-59q-94 -14 -120.5 -38t-26.5 -92v-1066z" />
    <glyph glyph-name="iinvertedbreve" unicode="&#x20b;" horiz-adv-x="624" 
d="M296 1481q129 0 202.5 -87t73.5 -207q0 -34 -4 -58h-62v5q0 77 -58.5 126t-151.5 49t-151.5 -49t-58.5 -126v-5h-61q-4 24 -4 58q0 120 73.5 207t201.5 87zM456 1006v-844q0 -53 22.5 -72t101.5 -31v-59h-527v59q79 12 101.5 31t22.5 72v634q0 45 -11 61t-53 29l-60 18
v54z" />
    <glyph glyph-name="Odblgrave" unicode="&#x20c;" horiz-adv-x="1681" 
d="M652 1827l130 -286h-80l-303 279v7h253zM1008 1827l50 -286h-76l-207 279v7h233zM91 721q0 156 54 293t150 238t237.5 159t307.5 58q151 0 287 -53t239 -147.5t163.5 -236t60.5 -308.5q0 -209 -92 -379t-264 -270t-393 -100q-151 0 -287.5 53t-239 148t-163 236.5
t-60.5 308.5zM425 737q0 -194 51 -347.5t148 -242.5t226 -89q105 0 184 48.5t127 137t71 204.5t23 260q0 194 -50.5 347.5t-147.5 242t-226 88.5q-85 0 -153 -32t-114.5 -89t-78 -138.5t-46 -178.5t-14.5 -211z" />
    <glyph glyph-name="odblgrave" unicode="&#x20d;" horiz-adv-x="1241" 
d="M390 1491l149 -372h-80l-325 363v9h256zM770 1491l68 -372h-77l-227 363v9h236zM616 -20q-152 0 -273 63t-191 180.5t-70 269.5q0 151 71 270.5t194.5 184.5t277.5 65q152 0 273.5 -63t191.5 -180t70 -269q0 -151 -71 -270.5t-195 -185t-278 -65.5zM626 60
q112 0 174.5 114t62.5 313q0 205 -67.5 326t-179.5 121q-114 0 -176 -114t-62 -313q0 -205 68 -326t180 -121z" />
    <glyph glyph-name="Oinvertedbreve" unicode="&#x20e;" horiz-adv-x="1681" 
d="M835 1887q128 0 202 -76.5t74 -180.5q0 -30 -4 -51h-63v5q0 68 -58 111.5t-151 43.5t-150.5 -43.5t-57.5 -111.5v-5h-64q-4 30 -4 51q0 104 74 180.5t202 76.5zM91 721q0 156 54 293t150 238t237.5 159t307.5 58q151 0 287 -53t239 -147.5t163.5 -236t60.5 -308.5
q0 -209 -92 -379t-264 -270t-393 -100q-151 0 -287.5 53t-239 148t-163 236.5t-60.5 308.5zM425 737q0 -194 51 -347.5t148 -242.5t226 -89q105 0 184 48.5t127 137t71 204.5t23 260q0 194 -50.5 347.5t-147.5 242t-226 88.5q-85 0 -153 -32t-114.5 -89t-78 -138.5
t-46 -178.5t-14.5 -211z" />
    <glyph glyph-name="oinvertedbreve" unicode="&#x20f;" horiz-adv-x="1241" 
d="M620 1481q142 0 224 -87t82 -207q0 -35 -5 -58h-68v5q0 77 -65 126t-168 49q-104 0 -169 -49t-65 -126v-5h-68q-5 30 -5 58q0 120 82 207t225 87zM616 -20q-152 0 -273 63t-191 180.5t-70 269.5q0 151 71 270.5t194.5 184.5t277.5 65q152 0 273.5 -63t191.5 -180t70 -269
q0 -151 -71 -270.5t-195 -185t-278 -65.5zM626 60q112 0 174.5 114t62.5 313q0 205 -67.5 326t-179.5 121q-114 0 -176 -114t-62 -313q0 -205 68 -326t180 -121z" />
    <glyph glyph-name="Rdblgrave" unicode="&#x210;" horiz-adv-x="1395" 
d="M481 1827l131 -286h-81l-303 279v7h253zM837 1827l50 -286h-76l-207 279v7h233zM1264 1054q1 -127 -77.5 -217t-211.5 -126l197 -392q53 -101 90.5 -156.5t62.5 -76t57 -30.5v-56h-359l-326 648h-192v-465q0 -63 25.5 -86.5t113.5 -37.5v-59h-587v59q94 15 120.5 39
t26.5 91v1066q0 69 -26 93t-121 37v59h610q294 0 445 -103.5t152 -286.5zM960 1036q0 151 -90 240t-271 96l-94 3v-659l113 4q161 6 251.5 87t90.5 229z" />
    <glyph glyph-name="rdblgrave" unicode="&#x211;" horiz-adv-x="902" 
d="M264 1491l149 -372h-80l-325 363v9h256zM644 1491l68 -372h-77l-227 363v9h236zM453 1006l-1 -252q80 133 148.5 194t139.5 61q61 0 92 -39t31 -101q0 -60 -21 -95q-46 16 -127 16q-78 0 -151 -22t-109 -57l1 -539q0 -60 24 -80t114 -33v-59h-541v59q79 11 101.5 30
t22.5 71v636q0 45 -11.5 61t-52.5 29l-60 18v54z" />
    <glyph glyph-name="Rinvertedbreve" unicode="&#x212;" horiz-adv-x="1395" 
d="M664 1887q128 0 202 -76.5t74 -180.5q0 -27 -3 -51h-64v5q0 68 -58 111.5t-151 43.5t-150.5 -43.5t-57.5 -111.5v-5h-64q-4 30 -4 51q0 104 74 180.5t202 76.5zM1264 1054q1 -127 -77.5 -217t-211.5 -126l197 -392q53 -101 90.5 -156.5t62.5 -76t57 -30.5v-56h-359
l-326 648h-192v-465q0 -63 25.5 -86.5t113.5 -37.5v-59h-587v59q94 15 120.5 39t26.5 91v1066q0 69 -26 93t-121 37v59h610q294 0 445 -103.5t152 -286.5zM960 1036q0 151 -90 240t-271 96l-94 3v-659l113 4q161 6 251.5 87t90.5 229z" />
    <glyph glyph-name="rinvertedbreve" unicode="&#x213;" horiz-adv-x="902" 
d="M494 1481q142 0 224 -87t82 -207q0 -35 -5 -58h-68v5q0 77 -65 126t-168 49q-104 0 -169 -49t-65 -126v-5h-68q-5 30 -5 58q0 120 82 207t225 87zM453 1006l-1 -252q80 133 148.5 194t139.5 61q61 0 92 -39t31 -101q0 -60 -21 -95q-46 16 -127 16q-78 0 -151 -22
t-109 -57l1 -539q0 -60 24 -80t114 -33v-59h-541v59q79 11 101.5 30t22.5 71v636q0 45 -11.5 61t-52.5 29l-60 18v54z" />
    <glyph glyph-name="Udblgrave" unicode="&#x214;" horiz-adv-x="1521" 
d="M648 1827l130 -286h-80l-304 279v7h254zM1003 1827l50 -286h-76l-206 279v7h232zM173 1260q0 65 -25.5 88.5t-113.5 36.5v59h587v-59q-94 -14 -120.5 -38t-26.5 -92v-695q0 -224 106.5 -339.5t284.5 -115.5q182 0 287.5 121t103.5 341l-8 623q-2 110 -29.5 145.5
t-126.5 49.5v59h403v-60q-91 -13 -116 -48t-27 -144l-8 -643q-4 -264 -155.5 -419t-422.5 -155q-97 0 -183.5 21t-162 67t-130 112.5t-86 162.5t-31.5 213v709z" />
    <glyph glyph-name="udblgrave" unicode="&#x215;" horiz-adv-x="1265" 
d="M396 1491l149 -372h-80l-325 363v9h256zM776 1491l69 -372h-77l-228 363v9h236zM432 1006v-670q0 -110 51.5 -167t146.5 -57q64 0 113 28t76 73v583q0 45 -11 61t-53 29l-61 18v54l403 48v-810q0 -45 11.5 -61t52.5 -29l60 -18v-54l-400 -45v174q-41 -83 -128.5 -133
t-205.5 -50q-153 0 -243 82.5t-90 238.5v495q0 45 -11 61t-53 29l-61 18v54z" />
    <glyph glyph-name="Uinvertedbreve" unicode="&#x216;" horiz-adv-x="1521" 
d="M831 1887q128 0 202 -76.5t74 -180.5q0 -30 -4 -51h-63v5q0 68 -58 111.5t-151 43.5t-151 -43.5t-58 -111.5v-5h-63q-4 20 -4 51q0 104 74 180.5t202 76.5zM173 1260q0 65 -25.5 88.5t-113.5 36.5v59h587v-59q-94 -14 -120.5 -38t-26.5 -92v-695q0 -224 106.5 -339.5
t284.5 -115.5q182 0 287.5 121t103.5 341l-8 623q-2 110 -29.5 145.5t-126.5 49.5v59h403v-60q-91 -13 -116 -48t-27 -144l-8 -643q-4 -264 -155.5 -419t-422.5 -155q-97 0 -183.5 21t-162 67t-130 112.5t-86 162.5t-31.5 213v709z" />
    <glyph glyph-name="uinvertedbreve" unicode="&#x217;" horiz-adv-x="1265" 
d="M626 1481q143 0 224.5 -87t81.5 -207q0 -34 -4 -58h-68v5q0 77 -65 126t-169 49t-168.5 -49t-64.5 -126v-5h-69q-4 24 -4 58q0 120 81.5 207t224.5 87zM432 1006v-670q0 -110 51.5 -167t146.5 -57q64 0 113 28t76 73v583q0 45 -11 61t-53 29l-61 18v54l403 48v-810
q0 -45 11.5 -61t52.5 -29l60 -18v-54l-400 -45v174q-41 -83 -128.5 -133t-205.5 -50q-153 0 -243 82.5t-90 238.5v495q0 45 -11 61t-53 29l-61 18v54z" />
    <glyph glyph-name="Scommaaccent" unicode="&#x218;" horiz-adv-x="1223" 
d="M585 -25q-148 0 -273.5 30.5t-201.5 78.5l-12 356h55q40 -183 156.5 -282.5t272.5 -99.5q127 0 204 67.5t77 177.5q0 99 -63 166t-199 114l-121 40q-381 127 -381 429q0 192 150 304.5t395 112.5q134 0 241.5 -27.5t165.5 -69.5l10 -331h-56q-36 166 -130 255.5
t-230 89.5q-131 0 -202.5 -62t-71.5 -164q0 -94 64 -155.5t197 -106.5l120 -41q194 -65 288.5 -174t94.5 -267q0 -133 -74 -234.5t-198 -154t-278 -52.5zM587 -466q-66 0 -120.5 21.5t-82.5 55.5v55q56 -40 138 -40q49 0 79 20t30 55q0 34 -29.5 53.5t-76.5 20.5
q-48 0 -82 -15v52q24 33 70 54.5t106 21.5q92 0 150.5 -47.5t58.5 -127.5q0 -81 -66.5 -130t-174.5 -49z" />
    <glyph glyph-name="scommaaccent" unicode="&#x219;" horiz-adv-x="968" 
d="M89 707q0 143 115.5 224.5t312.5 81.5q105 0 189.5 -18.5t129.5 -45.5l5 -256h-56q-25 115 -94.5 177.5t-169.5 62.5q-88 0 -138.5 -37.5t-50.5 -101.5q0 -59 44 -94.5t137 -64.5l84 -24q146 -44 219.5 -120.5t73.5 -197.5q0 -143 -123 -227t-310 -84q-110 0 -208 23
t-157 59l-10 272h57q27 -127 113 -201t199 -74q89 0 142.5 41.5t53.5 106.5q0 61 -41 99.5t-135 67.5l-84 25q-145 44 -221.5 117t-76.5 189zM456 -466q-66 0 -120.5 21.5t-82.5 55.5v55q56 -40 137 -40q50 0 80 20t30 55q0 34 -30 53.5t-77 20.5q-47 0 -81 -15v52
q23 32 69.5 54t106.5 22q92 0 150 -47.5t58 -127.5q0 -81 -66 -130t-174 -49z" />
    <glyph glyph-name="Tcommaaccent" unicode="&#x21a;" horiz-adv-x="1352" 
d="M1296 1444l13 -376h-56q-18 90 -42.5 144t-69 89t-105 50t-158.5 21l-51 3v-1172q0 -75 29 -103t130 -41v-59h-619v59q100 13 129 41t29 103v1172l-51 -3q-98 -6 -157.5 -21t-104.5 -49.5t-70 -89t-43 -144.5h-56l13 376h1240zM664 -466q-66 0 -120.5 21.5t-82.5 55.5v55
q56 -40 138 -40q50 0 79.5 20t29.5 55q0 34 -29.5 53.5t-76.5 20.5q-48 0 -82 -15v52q24 33 70 54.5t106 21.5q92 0 150.5 -47.5t58.5 -127.5q0 -81 -66.5 -130t-174.5 -49z" />
    <glyph glyph-name="tcommaaccent" unicode="&#x21b;" horiz-adv-x="735" 
d="M164 285v612h-123v48l359 270h40v-233l265 12v-97l-265 11v-607q0 -199 153 -199q75 0 126 41v-60q-35 -42 -110.5 -72.5t-158.5 -30.5q-128 0 -207 73.5t-79 231.5zM440 -466q-66 0 -120.5 21.5t-83.5 55.5v55q56 -40 138 -40q50 0 79.5 20t29.5 55q0 34 -29.5 53.5
t-76.5 20.5q-48 0 -82 -15v52q24 32 70 54t106 22q92 0 150.5 -47.5t58.5 -127.5q0 -81 -66.5 -130t-173.5 -49z" />
    <glyph glyph-name="Hcaron" unicode="&#x21e;" horiz-adv-x="1647" 
d="M1056 1840h72l-209 -286h-166l-209 286h75l218 -142zM505 183q0 -65 25.5 -88t113.5 -36v-59h-587v59q95 14 121 38t26 92v1066q0 68 -26 92t-121 38v59h587v-60q-88 -13 -113.5 -36t-25.5 -87v-485h637v485q0 65 -25 88t-113 36v59h586v-59q-94 -14 -120.5 -38
t-26.5 -92v-1066q0 -68 26.5 -92t120.5 -38v-59h-586v59q88 13 113 36t25 88v518h-637v-518z" />
    <glyph glyph-name="hcaron" unicode="&#x21f;" horiz-adv-x="1297" 
d="M526 1866h72l-209 -286h-166l-209 286h75l218 -142zM456 1492l-2 -659q42 82 130.5 131t207.5 49q157 0 249 -81.5t92 -235.5v-534q0 -53 22.5 -72t102.5 -31v-59h-514v59q71 10 91 28t20 69v505q0 108 -52.5 164t-149.5 56q-68 0 -119.5 -27.5t-77.5 -73.5v-624
q0 -51 19.5 -68.5t90.5 -28.5v-59h-513v59q79 12 101.5 31t22.5 72v1120q0 45 -11 61t-53 29l-60 18v54z" />
    <glyph glyph-name="Adotaccent" unicode="&#x226;" horiz-adv-x="1433" 
d="M713 1567q-52 0 -88 34t-36 84t36 83.5t88 33.5q51 0 87 -33.5t36 -83.5t-36 -84t-87 -34zM1244 266q43 -117 80 -155.5t119 -51.5v-59h-626v59q104 14 125 55t-18 157l-77 225h-474l-68 -204q-30 -89 -30 -134t30.5 -66.5t105.5 -32.5v-59h-421v59q59 9 90.5 29.5
t57.5 65t61 142.5l420 1151h198zM400 574h420l-212 617z" />
    <glyph glyph-name="adotaccent" unicode="&#x227;" horiz-adv-x="1127" 
d="M525 1170q-61 0 -103 39.5t-42 98.5t42 99t103 40t103 -39.5t42 -99.5q0 -59 -42 -98.5t-103 -39.5zM369 -20q-129 0 -210.5 68.5t-81.5 176.5q0 118 95 193t311 121l208 44v94q0 131 -62 190t-179 59q-85 0 -156 -33q38 -12 62 -45t24 -75q0 -53 -38.5 -90t-95.5 -37
q-56 0 -94.5 36t-38.5 90q0 103 120.5 172t309.5 69q201 0 311 -81.5t110 -247.5v-481q0 -61 27.5 -90.5t73.5 -29.5q25 0 44 7v-56q-69 -49 -186 -49q-86 0 -148 40.5t-77 113.5q-36 -70 -125 -114.5t-204 -44.5zM353 271q0 -80 45.5 -125t118.5 -45q120 0 174 90v323
l-94 -21q-133 -30 -188.5 -83t-55.5 -139z" />
    <glyph glyph-name="Ecedilla" unicode="&#x228;" horiz-adv-x="1279" 
d="M635 -466q-69 0 -124.5 21.5t-83.5 57.5l1 58q48 -36 129 -36q48 0 78.5 20.5t30.5 57.5t-31 57.5t-81 20.5q-30 0 -47 -7l-1 50l133 166h-582v59q95 14 121 38t26 92v1066q0 68 -26 92t-121 38v59h1097l14 -376h-56q-41 172 -120.5 231.5t-277.5 68.5l-209 7v-602l237 4
q80 3 111 43t56 161h52v-485h-52q-22 120 -54 161t-113 44l-237 4v-636l236 9q90 4 148 14t105 31t76.5 60t50.5 93.5t39 139.5h57l-16 -416h-490v-6l-78 -98q8 1 25 1q92 0 155 -49t63 -132q0 -85 -70.5 -133.5t-170.5 -48.5z" />
    <glyph glyph-name="ecedilla" unicode="&#x229;" horiz-adv-x="1092" 
d="M82 493q0 231 138 375.5t362 144.5q202 0 317 -114.5t115 -306.5q0 -35 -4 -69h-646q15 -190 119 -300.5t266 -110.5q74 0 138.5 24.5t106.5 66.5v-60q-51 -70 -145 -113t-213 -49l-67 -85q8 1 25 1q93 0 155.5 -49t62.5 -132q0 -85 -70.5 -133.5t-170.5 -48.5
q-69 0 -124.5 21.5t-83.5 57.5l1 58q48 -36 129 -36q49 0 79 20.5t30 57.5t-31 57.5t-81 20.5q-30 0 -47 -7v50l117 147q-209 12 -343.5 151t-134.5 361zM581 934q-103 0 -161 -89.5t-58 -252.5l400 3q1 12 1 44q0 138 -46.5 216.5t-135.5 78.5z" />
    <glyph glyph-name="Odieresismacron" unicode="&#x22a;" horiz-adv-x="1681" 
d="M545 1827v106h581v-106h-581zM681 1557h-9q-42 0 -69.5 23.5t-27.5 60.5q0 36 28 59.5t69 23.5h9q41 0 69 -23.5t28 -59.5q0 -37 -27.5 -60.5t-69.5 -23.5zM999 1557h-10q-41 0 -69 24t-28 60t28 59.5t69 23.5h10q41 0 69 -23.5t28 -59.5t-28 -60t-69 -24zM91 721
q0 156 54 293t150 238t237.5 159t307.5 58q151 0 287 -53t239 -147.5t163.5 -236t60.5 -308.5q0 -209 -92 -379t-264 -270t-393 -100q-151 0 -287.5 53t-239 148t-163 236.5t-60.5 308.5zM425 737q0 -194 51 -347.5t148 -242.5t226 -89q105 0 184 48.5t127 137t71 204.5
t23 260q0 194 -50.5 347.5t-147.5 242t-226 88.5q-85 0 -153 -32t-114.5 -89t-78 -138.5t-46 -178.5t-14.5 -211z" />
    <glyph glyph-name="odieresismacron" unicode="&#x22b;" horiz-adv-x="1241" 
d="M336 1442v124h566v-124h-566zM457 1121h-10q-43 0 -72.5 28.5t-29.5 70.5q0 43 29.5 71.5t72.5 28.5h10q43 0 72.5 -28.5t29.5 -71.5q0 -42 -29.5 -70.5t-72.5 -28.5zM792 1121h-10q-43 0 -72.5 28.5t-29.5 70.5q0 43 29.5 71.5t72.5 28.5h10q43 0 72.5 -28.5t29.5 -71.5
q0 -42 -29.5 -70.5t-72.5 -28.5zM616 -20q-152 0 -273 63t-191 180.5t-70 269.5q0 151 71 270.5t194.5 184.5t277.5 65q152 0 273.5 -63t191.5 -180t70 -269q0 -151 -71 -270.5t-195 -185t-278 -65.5zM626 60q112 0 174.5 114t62.5 313q0 205 -67.5 326t-179.5 121
q-114 0 -176 -114t-62 -313q0 -205 68 -326t180 -121z" />
    <glyph glyph-name="Otildemacron" unicode="&#x22c;" horiz-adv-x="1681" 
d="M545 1827v106h581v-106h-581zM957 1561q-61 0 -138 24l-33 10q-65 19 -97 19q-75 0 -76 -65h-67q-1 83 44.5 127.5t123.5 44.5q58 0 139 -23l33 -11q63 -19 97 -19q74 0 75 65h68q1 -84 -44.5 -128t-124.5 -44zM91 721q0 156 54 293t150 238t237.5 159t307.5 58
q151 0 287 -53t239 -147.5t163.5 -236t60.5 -308.5q0 -209 -92 -379t-264 -270t-393 -100q-151 0 -287.5 53t-239 148t-163 236.5t-60.5 308.5zM425 737q0 -194 51 -347.5t148 -242.5t226 -89q105 0 184 48.5t127 137t71 204.5t23 260q0 194 -50.5 347.5t-147.5 242
t-226 88.5q-85 0 -153 -32t-114.5 -89t-78 -138.5t-46 -178.5t-14.5 -211z" />
    <glyph glyph-name="otildemacron" unicode="&#x22d;" horiz-adv-x="1241" 
d="M336 1442v124h566v-124h-566zM738 1133q-59 0 -134 28l-33 12q-59 21 -95 21q-73 0 -73 -76h-66q-1 98 43.5 150.5t120.5 52.5q58 0 135 -28l32 -12q59 -22 95 -22q73 0 74 77h65q1 -99 -43 -151t-121 -52zM616 -20q-152 0 -273 63t-191 180.5t-70 269.5q0 151 71 270.5
t194.5 184.5t277.5 65q152 0 273.5 -63t191.5 -180t70 -269q0 -151 -71 -270.5t-195 -185t-278 -65.5zM626 60q112 0 174.5 114t62.5 313q0 205 -67.5 326t-179.5 121q-114 0 -176 -114t-62 -313q0 -205 68 -326t180 -121z" />
    <glyph glyph-name="Odotaccent" unicode="&#x22e;" horiz-adv-x="1681" 
d="M836 1567q-52 0 -88 34t-36 84t36 83.5t88 33.5q51 0 87 -33.5t36 -83.5t-36 -84t-87 -34zM91 721q0 156 54 293t150 238t237.5 159t307.5 58q151 0 287 -53t239 -147.5t163.5 -236t60.5 -308.5q0 -209 -92 -379t-264 -270t-393 -100q-151 0 -287.5 53t-239 148
t-163 236.5t-60.5 308.5zM425 737q0 -194 51 -347.5t148 -242.5t226 -89q105 0 184 48.5t127 137t71 204.5t23 260q0 194 -50.5 347.5t-147.5 242t-226 88.5q-85 0 -153 -32t-114.5 -89t-78 -138.5t-46 -178.5t-14.5 -211z" />
    <glyph glyph-name="odotaccent" unicode="&#x22f;" horiz-adv-x="1241" 
d="M620 1170q-61 0 -103 39.5t-42 98.5q0 60 42 99.5t103 39.5t103 -40t42 -99t-42 -98.5t-103 -39.5zM616 -20q-152 0 -273 63t-191 180.5t-70 269.5q0 151 71 270.5t194.5 184.5t277.5 65q152 0 273.5 -63t191.5 -180t70 -269q0 -151 -71 -270.5t-195 -185t-278 -65.5z
M626 60q112 0 174.5 114t62.5 313q0 205 -67.5 326t-179.5 121q-114 0 -176 -114t-62 -313q0 -205 68 -326t180 -121z" />
    <glyph glyph-name="Odotaccentmacron" unicode="&#x230;" horiz-adv-x="1681" 
d="M545 1803v106h581v-106h-581zM836 1549q-44 0 -74.5 26t-30.5 65t30.5 65.5t74.5 26.5t74 -26.5t30 -65.5t-30 -65t-74 -26zM91 721q0 156 54 293t150 238t237.5 159t307.5 58q151 0 287 -53t239 -147.5t163.5 -236t60.5 -308.5q0 -209 -92 -379t-264 -270t-393 -100
q-151 0 -287.5 53t-239 148t-163 236.5t-60.5 308.5zM425 737q0 -194 51 -347.5t148 -242.5t226 -89q105 0 184 48.5t127 137t71 204.5t23 260q0 194 -50.5 347.5t-147.5 242t-226 88.5q-85 0 -153 -32t-114.5 -89t-78 -138.5t-46 -178.5t-14.5 -211z" />
    <glyph glyph-name="odotaccentmacron" unicode="&#x231;" horiz-adv-x="1241" 
d="M336 1430v125h566v-125h-566zM620 1119q-47 0 -79 30.5t-32 76.5t32 76.5t79 30.5q46 0 78 -31t32 -76q0 -46 -32 -76.5t-78 -30.5zM616 -20q-152 0 -273 63t-191 180.5t-70 269.5q0 151 71 270.5t194.5 184.5t277.5 65q152 0 273.5 -63t191.5 -180t70 -269
q0 -151 -71 -270.5t-195 -185t-278 -65.5zM626 60q112 0 174.5 114t62.5 313q0 205 -67.5 326t-179.5 121q-114 0 -176 -114t-62 -313q0 -205 68 -326t180 -121z" />
    <glyph glyph-name="Ymacron" unicode="&#x232;" horiz-adv-x="1374" 
d="M494 1601v132h546v-132h-546zM218 1187q-69 114 -109.5 149.5t-115.5 48.5v59h618v-59q-100 -14 -113.5 -54t47.5 -147l257 -452l233 432q45 84 53.5 126.5t-17.5 63.5t-99 31v59h409v-59q-78 -14 -122 -54t-122 -170l-298 -501v-457q0 -75 29 -103t130 -41v-59h-619v59
q101 13 130 41t29 103v441z" />
    <glyph glyph-name="ymacron" unicode="&#x233;" horiz-adv-x="1074" 
d="M280 1218v153h607v-153h-607zM161 771q-37 91 -66.5 120.5t-93.5 42.5v60h550v-60q-91 -11 -108 -43t17 -127l174 -479l174 475q35 98 18 130.5t-108 43.5v60h356v-60q-67 -12 -98 -44.5t-75 -140.5l-207 -507l-107 -260l-157 -442h-225v5q65 77 146.5 200t138.5 230z
" />
    <glyph glyph-name="dotlessj" unicode="&#x237;" horiz-adv-x="597" 
d="M445 1006v-812q0 -160 -35 -265.5t-111.5 -186.5t-223.5 -175l-68 -44l-34 49q115 101 154.5 221t39.5 350v653q0 45 -11 61t-53 29l-61 18v54z" />
    <glyph glyph-name="schwa" unicode="&#x259;" horiz-adv-x="1092" 
d="M1010 500q0 -231 -138 -375.5t-362 -144.5q-202 0 -317.5 114.5t-115.5 306.5q0 41 5 69h645q-15 191 -118.5 301t-265.5 110q-74 0 -138.5 -24.5t-106.5 -66.5v60q55 75 159 119t236 44q224 0 370.5 -140.5t146.5 -372.5zM328 354q0 -138 46.5 -216.5t136.5 -78.5
q103 0 161 89.5t58 252.5l-401 -3q0 -5 -0.5 -19.5t-0.5 -24.5z" />
    <glyph glyph-name="g.1" unicode="&#x261;" horiz-adv-x="1246" 
d="M82 498q0 117 37 215t100.5 164t149 102t182.5 36q103 0 182.5 -39t116.5 -105l102 123h144v-960q0 -247 -155 -384t-419 -137q-174 0 -270.5 71t-96.5 179q0 55 37.5 91.5t90.5 36.5q54 0 92.5 -37t38.5 -91q0 -44 -26.5 -78t-67.5 -45q65 -38 163 -38q157 0 244 94
t89 286l3 204q-38 -84 -125.5 -134.5t-199.5 -50.5q-83 0 -157.5 34t-131 96t-90 157t-33.5 210zM369 528q0 -182 72 -289t183 -107q136 0 192 105v586q-20 42 -69.5 68t-111.5 26q-119 0 -192.5 -105t-73.5 -284z" />
    <glyph glyph-name="quoteright" unicode="&#x2019;" horiz-adv-x="528" 
d="M122 914l-19 54q66 17 107 58.5t41 99.5q0 59 -43 97.5t-111 43.5q0 85 44.5 141.5t120.5 56.5q77 0 124 -58t47 -151q0 -130 -91 -223t-220 -119z" />
    <glyph glyph-name="quoteright" unicode="&#x2bc;" horiz-adv-x="528" 
d="M122 914l-19 54q66 17 107 58.5t41 99.5q0 59 -43 97.5t-111 43.5q0 85 44.5 141.5t120.5 56.5q77 0 124 -58t47 -151q0 -130 -91 -223t-220 -119z" />
    <glyph glyph-name="circumflex" unicode="&#x2c6;" horiz-adv-x="1024" 
d="M276 1119h-75l230 372h162l230 -372h-76l-235 191z" />
    <glyph glyph-name="caron" unicode="&#x2c7;" horiz-adv-x="1024" 
d="M748 1508h75l-230 -372h-162l-230 372h76l235 -191z" />
    <glyph glyph-name="breve" unicode="&#x2d8;" horiz-adv-x="1024" 
d="M512 1146q-143 0 -224.5 87t-81.5 207q0 34 4 58h68v-6q0 -76 65 -125t169 -49t169 49t65 125v6h68q4 -24 4 -58q0 -120 -81.5 -207t-224.5 -87z" />
    <glyph glyph-name="dotaccent" unicode="&#x2d9;" horiz-adv-x="1024" 
d="M512 1170q-61 0 -103 39.5t-42 98.5t42 99t103 40t103 -40t42 -99t-42 -98.5t-103 -39.5z" />
    <glyph glyph-name="ring" unicode="&#x2da;" horiz-adv-x="1024" 
d="M231 1313q0 88 80 142.5t201 54.5t201 -54.5t80 -142.5t-80 -142.5t-201 -54.5t-201 54.5t-80 142.5zM413 1313q0 -60 27.5 -97.5t71.5 -37.5t71.5 37.5t27.5 97.5q0 59 -28 97t-71 38t-71 -38t-28 -97z" />
    <glyph glyph-name="ogonek" unicode="&#x2db;" horiz-adv-x="1024" 
d="M311 -479q-84 0 -139 45.5t-55 123.5q0 178 337 343l68 1q-105 -77 -151 -142.5t-46 -132.5q0 -57 31.5 -88t77.5 -31q62 0 94 32v-59q-28 -42 -87 -67t-130 -25z" />
    <glyph glyph-name="tilde" unicode="&#x2dc;" horiz-adv-x="1024" 
d="M636 1169q-73 0 -160 62l-31 23q-57 40 -93 40q-35 0 -53 -30.5t-21 -102.5h-68q-5 149 44 219t133 70q71 0 161 -62l31 -23q55 -40 92 -40q36 0 54 30.5t21 101.5h68q5 -148 -44 -218t-134 -70z" />
    <glyph glyph-name="hungarumlaut" unicode="&#x2dd;" horiz-adv-x="1024" 
d="M363 1491h237v-9l-229 -363h-76zM744 1491h255v-9l-324 -363h-81z" />
    <glyph glyph-name="gravecmb" unicode="&#x300;" 
d="M56 1119l-367 363v9h298l144 -372h-75z" />
    <glyph glyph-name="acutecmb" unicode="&#x301;" 
d="M-56 1119h-74l151 372h287v-9z" />
    <glyph glyph-name="circumflexcmb" unicode="&#x302;" 
d="M-236 1119h-75l230 372h162l230 -372h-76l-235 191z" />
    <glyph glyph-name="tildecmb" unicode="&#x303;" 
d="M124 1169q-73 0 -160 62l-31 23q-57 40 -93 40q-35 0 -53 -30.5t-21 -102.5h-68q-5 149 44 219t133 70q71 0 161 -62l31 -23q55 -40 92 -40q36 0 54 30.5t21 101.5h68q5 -148 -44 -218t-134 -70z" />
    <glyph glyph-name="macroncmb" unicode="&#x304;" 
d="M-303 1218v153h606v-153h-606z" />
    <glyph glyph-name="brevecmb" unicode="&#x306;" 
d="M0 1146q-143 0 -224.5 87t-81.5 207q0 34 4 58h68v-6q0 -76 65 -125t169 -49t169 49t65 125v6h68q4 -24 4 -58q0 -120 -81.5 -207t-224.5 -87z" />
    <glyph glyph-name="dotaccentcmb" unicode="&#x307;" 
d="M0 1170q-61 0 -103 39.5t-42 98.5t42 99t103 40t103 -40t42 -99t-42 -98.5t-103 -39.5z" />
    <glyph glyph-name="dieresiscmb" unicode="&#x308;" 
d="M-225 1179q-58 0 -97.5 37t-39.5 93q0 55 40 92.5t97 37.5t96.5 -37.5t39.5 -92.5q0 -56 -39.5 -93t-96.5 -37zM225 1179q-57 0 -96.5 37t-39.5 93q0 55 39.5 92.5t96.5 37.5t97 -37.5t40 -92.5q0 -56 -39.5 -93t-97.5 -37z" />
    <glyph glyph-name="hookabovecmb" unicode="&#x309;" 
d="M39 1501q89 0 145 -43t56 -112q0 -66 -58.5 -119t-193.5 -104h-72q70 45 102.5 84t32.5 80q0 39 -31 62t-83 23q-84 0 -133 -44v52q31 52 93 86.5t142 34.5z" />
    <glyph glyph-name="ringcmb" unicode="&#x30a;" 
d="M-281 1313q0 88 80 142.5t201 54.5t201 -54.5t80 -142.5t-80 -142.5t-201 -54.5t-201 54.5t-80 142.5zM-99 1313q0 -60 27.5 -97.5t71.5 -37.5t71.5 37.5t27.5 97.5q0 59 -28 97t-71 38t-71 -38t-28 -97z" />
    <glyph glyph-name="hungarumlautcmb" unicode="&#x30b;" 
d="M-149 1491h237v-9l-229 -363h-76zM232 1491h255v-9l-324 -363h-81z" />
    <glyph glyph-name="caroncmb" unicode="&#x30c;" 
d="M236 1508h75l-230 -372h-162l-230 372h76l235 -191z" />
    <glyph glyph-name="dblgravecmb" unicode="&#x30f;" 
d="M-230 1491l149 -372h-80l-325 363v9h256zM150 1491l68 -372h-77l-227 363v9h236z" />
    <glyph glyph-name="invertedbrevecmb" unicode="&#x311;" 
d="M0 1481q143 0 224.5 -87t81.5 -207q0 -34 -4 -58h-68v5q0 77 -65 126t-169 49t-169 -49t-65 -126v-5h-68q-4 24 -4 58q0 120 81.5 207t224.5 87z" />
    <glyph glyph-name="horncmb" unicode="&#x31b;" 
d="M189 1324h71q67 -22 111.5 -70t44.5 -107q0 -198 -440 -201v48q135 0 195.5 53t60.5 136q0 89 -43 141z" />
    <glyph glyph-name="dotbelowcmb" unicode="&#x323;" 
d="M0 -414q-57 0 -96 35.5t-39 88.5q0 54 39 89.5t96 35.5t96 -35.5t39 -89.5q0 -53 -39 -88.5t-96 -35.5z" />
    <glyph glyph-name="dieresisbelowcmb" unicode="&#x324;" 
d="M-209 -406q-54 0 -90.5 33.5t-36.5 83.5t36.5 83.5t90.5 33.5q53 0 90 -33.5t37 -83.5t-37 -83.5t-90 -33.5zM209 -406q-53 0 -90 33.5t-37 83.5t37 83.5t90 33.5q54 0 90.5 -33.5t36.5 -83.5t-36.5 -83.5t-90.5 -33.5z" />
    <glyph glyph-name="ringbelowcmb" unicode="&#x325;" 
d="M-281 -290q0 81 80 131t201 50t201 -50t80 -130q0 -82 -80 -131.5t-201 -49.5q-120 0 -200.5 49.5t-80.5 130.5zM-99 -290q0 -53 27.5 -86.5t71.5 -33.5t71.5 33.5t27.5 87.5q0 53 -28 86.5t-71 33.5q-44 0 -71.5 -34t-27.5 -87z" />
    <glyph glyph-name="commaaccentcmb" unicode="&#x326;" 
d="M-17 -466q-66 0 -120.5 21.5t-82.5 55.5v55q56 -40 138 -40q49 0 79 20t30 55q0 34 -29.5 53.5t-76.5 20.5q-48 0 -82 -15v52q24 33 70 54.5t106 21.5q92 0 150.5 -47.5t58.5 -127.5q0 -81 -66.5 -130t-174.5 -49z" />
    <glyph glyph-name="cedillacmb" unicode="&#x327;" 
d="M-29 -466q-69 0 -124.5 21.5t-83.5 57.5v58q50 -36 130 -36q48 0 78.5 20.5t30.5 57.5t-31 57.5t-81 20.5q-30 0 -47 -7l-1 50l154 191h51v-31l-78 -98q8 1 25 1q92 0 154.5 -49t62.5 -132q0 -85 -70.5 -133.5t-169.5 -48.5z" />
    <glyph glyph-name="ogonekcmb" unicode="&#x328;" 
d="M-201 -479q-84 0 -139 45.5t-55 123.5q0 178 337 343l68 1q-105 -77 -151 -142.5t-46 -132.5q0 -57 31.5 -88t77.5 -31q62 0 94 32v-59q-28 -42 -87 -67t-130 -25z" />
    <glyph glyph-name="circumflexbelowcmb" unicode="&#x32d;" 
d="M-220 -456h-69l214 334h150l214 -334h-71l-218 172z" />
    <glyph glyph-name="brevebelowcmb" unicode="&#x32e;" 
d="M0 -448q-133 0 -209 78.5t-76 186.5q0 31 4 52h64v-5q0 -69 60.5 -113t156.5 -44t156.5 44t60.5 113v5h64q4 -21 4 -52q0 -108 -76 -186.5t-209 -78.5z" />
    <glyph glyph-name="tildebelowcmb" unicode="&#x330;" 
d="M115 -416q-65 0 -149 56l-28 21q-53 36 -86 36t-50 -27t-19 -92h-64q-4 134 41.5 197t123.5 63q64 0 150 -56l28 -21q52 -36 86 -36q33 0 50 27t19 92h64q4 -134 -41.5 -197t-124.5 -63z" />
    <glyph glyph-name="macronbelowcmb" unicode="&#x332;" 
d="M-282 -358v138h564v-138h-564z" />
    <glyph glyph-name="macronbelowcmb" unicode="&#x331;" 
d="M-282 -358v138h564v-138h-564z" />
    <glyph glyph-name="numeralsigngreek" unicode="&#x374;" horiz-adv-x="264" 
d="M62 1031h-59l45 413h213z" />
    <glyph glyph-name="lownumeralsigngreek" unicode="&#x375;" horiz-adv-x="264" 
d="M202 21h59l-44 -413h-214z" />
    <glyph glyph-name="tonosgreek" unicode="&#x384;" horiz-adv-x="1024" 
d="M523 1119h-75l51 372h248v-9z" />
    <glyph glyph-name="dieresistonosgreek" unicode="&#x385;" horiz-adv-x="1024" 
d="M514 1119h-70l22 372h237v-9zM255 1164q-51 0 -87 33.5t-36 83.5q0 51 35.5 84.5t87.5 33.5t87.5 -33.5t35.5 -84.5q0 -50 -36 -83.5t-87 -33.5zM814 1164q-51 0 -87 33.5t-36 83.5q0 51 35.5 84.5t87.5 33.5t87.5 -33.5t35.5 -84.5q0 -50 -36 -83.5t-87 -33.5z" />
    <glyph glyph-name="Alphatonosgreek" unicode="&#x386;" horiz-adv-x="1433" 
d="M1244 266q43 -117 80 -155.5t119 -51.5v-59h-626v59q104 14 125 55t-18 157l-77 225h-474l-68 -204q-30 -89 -30 -134t30.5 -66.5t105.5 -32.5v-59h-421v59q59 9 90.5 29.5t57.5 65t61 142.5l420 1151h198zM233 1072h-75l50 372h248v-9zM400 574h420l-212 617z" />
    <glyph glyph-name="anoteleiagreek" unicode="&#x387;" horiz-adv-x="528" 
d="M264 702q-65 0 -111 46.5t-46 111.5t46 111.5t111 46.5t111 -46.5t46 -111.5t-46 -111.5t-111 -46.5z" />
    <glyph glyph-name="Epsilontonosgreek" unicode="&#x388;" horiz-adv-x="1597" 
d="M1472 1444l14 -376h-56q-41 172 -120.5 231.5t-277.5 68.5l-209 7v-602l237 4q80 3 111 43t56 161h52v-485h-52q-22 120 -54 161t-113 44l-237 4v-636l235 9q75 3 126.5 10t96 22.5t73 38.5t53 61t40.5 86.5t31 119.5h56l-15 -416h-1144v59q94 14 120.5 38t26.5 92v1066
q0 68 -26.5 92t-120.5 38v59h1097zM78 1072h-75l51 372h248v-9z" />
    <glyph glyph-name="Etatonosgreek" unicode="&#x389;" horiz-adv-x="1965" 
d="M823 183q0 -65 25.5 -88t113.5 -36v-59h-587v59q94 14 120.5 38t26.5 92v1066q0 68 -26 92t-121 38v59h587v-60q-88 -13 -113.5 -36t-25.5 -87v-485h637v485q0 65 -25 88t-114 36v59h587v-59q-94 -14 -120.5 -38t-26.5 -92v-1066q0 -68 26.5 -92t120.5 -38v-59h-587v59
q89 13 114 36t25 88v518h-637v-518zM78 1072h-75l51 372h248v-9z" />
    <glyph glyph-name="Iotatonosgreek" unicode="&#x38a;" horiz-adv-x="1027" 
d="M823 189q0 -68 26.5 -92t120.5 -38v-59h-595v59q95 14 121 38t26 92v1066q0 68 -26 92t-121 38v59h595v-59q-94 -14 -120.5 -38t-26.5 -92v-1066zM78 1072h-75l51 372h248v-9z" />
    <glyph glyph-name="Omicrontonosgreek" unicode="&#x38c;" horiz-adv-x="1771" 
d="M182 721q0 156 54 293t150 238t237 159t307 58q151 0 287.5 -53t239.5 -147.5t163.5 -236t60.5 -308.5q0 -209 -92 -379t-264 -270t-393 -100q-151 0 -287.5 53t-239 148t-163 236.5t-60.5 308.5zM78 1072h-75l51 372h248v-9zM516 737q0 -194 50.5 -347.5t148 -242.5
t226.5 -89q105 0 184 48.5t126.5 137t71 204.5t23.5 260q0 194 -50.5 347.5t-148 242t-225.5 88.5q-85 0 -153 -32t-114.5 -89t-78 -138.5t-46 -178.5t-14.5 -211z" />
    <glyph glyph-name="Upsilontonosgreek" unicode="&#x38e;" horiz-adv-x="1728" 
d="M572 1187q-68 114 -108.5 149.5t-115.5 48.5v59h617v-59q-68 -9 -94 -29t-19.5 -59.5t47.5 -112.5l257 -452l234 432q66 121 54 164t-117 57v59h408v-59q-78 -14 -121.5 -54t-121.5 -170l-299 -501v-457q0 -75 29 -103t130 -41v-59h-619v59q101 13 130 41t29 103v441z
M78 1072h-75l51 372h248v-9z" />
    <glyph glyph-name="Omegatonosgreek" unicode="&#x38f;" horiz-adv-x="1742" 
d="M233 0l-51 388h48q53 -123 177.5 -168t366.5 -47v103q-251 31 -406.5 187t-155.5 386q0 130 51.5 243.5t144 197t230 131t301.5 47.5q162 0 299.5 -47t231.5 -128t147 -192t53 -238q0 -235 -153.5 -394t-408.5 -193v-103q246 2 370 47.5t174 167.5h48l-50 -388h-613v319
q157 50 240.5 187.5t83.5 340.5q0 248 -113.5 393.5t-313.5 145.5q-196 0 -304 -140t-108 -381q0 -210 82 -352t242 -193v-320h-613zM78 1072h-75l51 372h248v-9z" />
    <glyph glyph-name="iotadieresistonosgreek" unicode="&#x390;" horiz-adv-x="692" 
d="M283 1119h-70l23 372h236v-9zM24 1164q-51 0 -87 33.5t-36 83.5q0 51 35.5 84.5t87.5 33.5t87.5 -33.5t35.5 -84.5q0 -50 -36 -83.5t-87 -33.5zM583 1164q-51 0 -87 33.5t-36 83.5q0 51 35.5 84.5t87.5 33.5t87.5 -33.5t35.5 -84.5q0 -50 -36 -83.5t-87 -33.5zM134 994
h287q-4 -82 -11.5 -356.5t-7.5 -321.5q-1 -95 40.5 -141t117.5 -46q82 0 132 38v-58q-41 -58 -115 -93.5t-162 -35.5q-127 0 -197.5 73.5t-72.5 224.5z" />
    <glyph glyph-name="Alphagreek" unicode="&#x391;" horiz-adv-x="1433" 
d="M1244 266q43 -117 80 -155.5t119 -51.5v-59h-626v59q104 14 125 55t-18 157l-77 225h-474l-68 -204q-30 -89 -30 -134t30.5 -66.5t105.5 -32.5v-59h-421v59q59 9 90.5 29.5t57.5 65t61 142.5l420 1151h198zM400 574h420l-212 617z" />
    <glyph glyph-name="Betagreek" unicode="&#x392;" horiz-adv-x="1409" 
d="M1328 418q0 -136 -92.5 -232.5t-237 -141t-322.5 -44.5h-619v59q95 14 121 38t26 92v1066q0 68 -26 92t-121 38v59h619q277 0 430.5 -89t153.5 -256q0 -138 -115.5 -219.5t-290.5 -95.5q218 -12 346 -106t128 -260zM953 1075q0 135 -84 213t-260 84l-104 3v-580l151 1
q144 1 220.5 72.5t76.5 206.5zM1008 402q0 148 -91.5 234.5t-260.5 88.5l-151 1v-657l104 3q191 6 295 90t104 240z" />
    <glyph glyph-name="Gammagreek" unicode="&#x393;" horiz-adv-x="1170" 
d="M1111 1444l13 -359h-56q-16 69 -35.5 115t-47 79t-70.5 51t-96.5 27t-133.5 12l-180 6v-1172q0 -76 29 -103.5t131 -40.5v-59h-608v59q95 14 121 38t26 92v1066q0 68 -26 92t-121 38v59h1054z" />
    <glyph glyph-name="Deltagreek" unicode="&#x394;" horiz-adv-x="1329" 
d="M43 0v152l523 1296h197l523 -1297v-151h-1243zM156 196h796l-388 1014z" />
    <glyph glyph-name="Epsilongreek" unicode="&#x395;" horiz-adv-x="1279" 
d="M1154 1444l14 -376h-56q-41 172 -120.5 231.5t-277.5 68.5l-209 7v-602l237 4q80 3 111 43t56 161h52v-485h-52q-22 120 -54 161t-113 44l-237 4v-636l236 9q90 4 148 14t105 31t76.5 60t50.5 93.5t39 139.5h57l-16 -416h-1144v59q95 14 121 38t26 92v1066q0 68 -26 92
t-121 38v59h1097z" />
    <glyph glyph-name="Zetagreek" unicode="&#x396;" horiz-adv-x="1287" 
d="M1197 0h-1122v56l785 1319l-279 -9q-96 -4 -159.5 -14.5t-111 -29.5t-77 -54.5t-49 -81.5t-36.5 -118h-55l15 376h1090v-56l-786 -1319l284 10q99 4 162 13.5t115.5 30.5t85 59.5t56 93.5t42.5 140h55z" />
    <glyph glyph-name="Etagreek" unicode="&#x397;" horiz-adv-x="1647" 
d="M505 183q0 -65 25.5 -88t113.5 -36v-59h-587v59q95 14 121 38t26 92v1066q0 68 -26 92t-121 38v59h587v-60q-88 -13 -113.5 -36t-25.5 -87v-485h637v485q0 65 -25 88t-113 36v59h586v-59q-94 -14 -120.5 -38t-26.5 -92v-1066q0 -68 26.5 -92t120.5 -38v-59h-586v59
q88 13 113 36t25 88v518h-637v-518z" />
    <glyph glyph-name="Thetagreek" unicode="&#x398;" horiz-adv-x="1688" 
d="M844 -25q-151 0 -288 53t-240 147.5t-164 236t-61 308.5q0 209 92 379t265 270t396 100q151 0 288 -53t240 -147.5t164 -236t61 -308.5q0 -156 -54.5 -293.5t-151 -238t-238.5 -159t-309 -58.5zM853 52q111 0 194 48t134 136.5t75.5 206t24.5 265.5q0 304 -120.5 494
t-325.5 190q-111 0 -194 -47.5t-134 -136t-75.5 -206.5t-24.5 -266q0 -199 53 -353t155 -242.5t238 -88.5zM562 482v471h48q18 -107 58.5 -150t135.5 -43h79q95 0 136 43t58 150h48v-471h-48q-17 109 -58 153t-136 44h-79q-95 0 -135.5 -44t-58.5 -153h-48z" />
    <glyph glyph-name="Iotagreek" unicode="&#x399;" horiz-adv-x="710" 
d="M505 189q0 -68 26.5 -92t120.5 -38v-59h-595v59q95 14 121 38t26 92v1066q0 68 -26 92t-121 38v59h595v-59q-94 -14 -120.5 -38t-26.5 -92v-1066z" />
    <glyph glyph-name="Kappagreek" unicode="&#x39a;" horiz-adv-x="1426" 
d="M505 183q0 -65 25.5 -88t113.5 -36v-59h-587v59q95 14 121 38t26 92v1066q0 68 -26 92t-121 38v59h587v-60q-88 -13 -113.5 -36t-25.5 -87v-482l129 1l348 417q81 97 73 136.5t-113 51.5v59h455v-59q-90 -19 -157 -64.5t-179 -163.5l-216 -231l342 -586q93 -158 141 -212
t103 -72v-56h-380l-416 707h-130v-524z" />
    <glyph glyph-name="Lambdagreek" unicode="&#x39b;" horiz-adv-x="1420" 
d="M1228 261q40 -114 79 -152t116 -50v-59h-627v59q51 7 79 18t44 32.5t14 55.5t-20 88l-311 936l-302 -917q-38 -114 -16 -156t131 -57v-59h-417v59q55 8 86 25t57.5 58.5t55.5 123.5l414 1181h198z" />
    <glyph glyph-name="Mugreek" unicode="&#x39c;" horiz-adv-x="1851" 
d="M538 1444l399 -1107l368 1108l473 -1v-59q-91 -13 -118.5 -38t-25.5 -92l31 -1066q2 -70 28.5 -93.5t119.5 -36.5v-59h-588v59q91 12 117.5 36t24.5 91l-29 1068l-351 -968l-88 -286h-148l-461 1256l-6 -1006q-1 -107 25 -142t121 -49v-59h-404v59q94 13 120.5 48
t31.5 141l32 981q3 79 -24.5 111t-113.5 45v59h466z" />
    <glyph glyph-name="Nugreek" unicode="&#x39d;" horiz-adv-x="1503" 
d="M487 1444l753 -1138l-18 883q-2 112 -29.5 147.5t-125.5 48.5v59h408v-59q-94 -14 -119.5 -49.5t-27.5 -144.5l-11 -1191h-239l-816 1230l18 -975q1 -59 6 -90.5t22 -55t45.5 -33.5t80.5 -17v-59h-408v59q94 14 120 50t27 144l9 974q1 79 -27 110.5t-114 47.5v59h446z
" />
    <glyph glyph-name="Xigreek" unicode="&#x39e;" horiz-adv-x="1355" 
d="M1263 1444l17 -414h-57q-35 131 -109.5 171.5t-266.5 40.5h-339q-192 0 -266.5 -40.5t-110.5 -171.5h-55l17 414h1170zM605 692q-87 0 -134.5 -18.5t-71.5 -58t-38 -116.5h-53v457h53q21 -111 69 -150t175 -39h145q127 0 175.5 39t69.5 150h52v-457h-52q-21 113 -70 153
t-175 40h-145zM1277 0h-1199l-17 460h55q16 -68 36 -111t47.5 -72.5t74.5 -44t103.5 -20t147.5 -5.5h306q91 0 147 5.5t103 20t74.5 44t47.5 72.5t36 111h56z" />
    <glyph glyph-name="Omicrongreek" unicode="&#x39f;" horiz-adv-x="1681" 
d="M91 721q0 156 54 293t150 238t237.5 159t307.5 58q151 0 287 -53t239 -147.5t163.5 -236t60.5 -308.5q0 -209 -92 -379t-264 -270t-393 -100q-151 0 -287.5 53t-239 148t-163 236.5t-60.5 308.5zM425 737q0 -194 51 -347.5t148 -242.5t226 -89q105 0 184 48.5t127 137
t71 204.5t23 260q0 194 -50.5 347.5t-147.5 242t-226 88.5q-85 0 -153 -32t-114.5 -89t-78 -138.5t-46 -178.5t-14.5 -211z" />
    <glyph glyph-name="Pigreek" unicode="&#x3a0;" horiz-adv-x="1608" 
d="M1404 189q0 -68 26.5 -92t120.5 -38v-59h-587v59q89 13 114 36t25 88v1187h-598v-1187q0 -65 25.5 -88t113.5 -36v-59h-587v59q95 14 121 38t26 92v1066q0 68 -26 92t-121 38v59h1494v-59q-94 -14 -120.5 -38t-26.5 -92v-1066z" />
    <glyph glyph-name="Rhogreek" unicode="&#x3a1;" horiz-adv-x="1364" 
d="M1283 1022q0 -144 -83.5 -247t-223 -152.5t-321.5 -49.5h-150v-370q0 -75 29.5 -103t130.5 -41v-59h-608v59q95 14 121 38t26 92v1066q0 68 -26 92t-121 38v59h598q301 0 464.5 -108t163.5 -314zM964 1007q0 164 -94.5 260.5t-282.5 104.5l-82 3v-733l82 3
q187 8 282 102.5t95 259.5z" />
    <glyph glyph-name="Sigmagreek" unicode="&#x3a3;" horiz-adv-x="1275" 
d="M1143 1444l13 -374h-56q-22 87 -47.5 138.5t-72.5 88t-115.5 51.5t-179.5 19l-289 9l392 -565v-22l-574 -578h508q92 0 150 6.5t105 21.5t75.5 46.5t48.5 75.5t37 114h62l-15 -475h-1127v151l490 535l-497 702v56h1092z" />
    <glyph glyph-name="Taugreek" unicode="&#x3a4;" horiz-adv-x="1352" 
d="M1296 1444l13 -376h-56q-18 90 -42.5 144t-69 89t-105 50t-158.5 21l-51 3v-1172q0 -75 29 -103t130 -41v-59h-619v59q100 13 129 41t29 103v1172l-51 -3q-98 -6 -157.5 -21t-104.5 -49.5t-70 -89t-43 -144.5h-56l13 376h1240z" />
    <glyph glyph-name="Upsilongreek" unicode="&#x3a5;" horiz-adv-x="1374" 
d="M218 1187q-69 114 -109.5 149.5t-115.5 48.5v59h618v-59q-100 -14 -113.5 -54t47.5 -147l257 -452l233 432q45 84 53.5 126.5t-17.5 63.5t-99 31v59h409v-59q-78 -14 -122 -54t-122 -170l-298 -501v-457q0 -75 29 -103t130 -41v-59h-619v59q101 13 130 41t29 103v441z
" />
    <glyph glyph-name="Phigreek" unicode="&#x3a6;" horiz-adv-x="1878" 
d="M78 720q0 162 95 278.5t254.5 174.5t369.5 65v3q0 75 -29 103t-129 41v59h601v-59q-101 -13 -130 -41t-29 -103v-3q330 -10 524.5 -144t194.5 -371q0 -162 -93.5 -278t-253 -174.5t-372.5 -65.5v-2q0 -75 29 -103t130 -41v-59h-601v59q100 13 129 41t29 103v2
q-334 10 -526.5 143.5t-192.5 371.5zM1494 720q0 197 -107 314.5t-306 130.5v-886q190 14 301.5 131.5t111.5 309.5zM384 726q0 -199 108 -316.5t305 -130.5v886q-191 -14 -302 -131t-111 -308z" />
    <glyph glyph-name="Chigreek" unicode="&#x3a7;" horiz-adv-x="1406" 
d="M283 297l272 395l-323 508q-59 94 -101 130t-114 55v59h625v-59q-44 -7 -69 -15.5t-38.5 -21t-11 -33.5t14.5 -47t38 -67l233 -366l205 332q31 50 46.5 82t20.5 57t-8 39.5t-38 23.5t-70 16v59h426v-59q-84 -13 -135 -55t-142 -175l-264 -385l335 -527q58 -93 102 -129
t118 -55v-59h-630v59q102 16 114 54t-48 130l-244 383l-217 -346q-32 -51 -47.5 -83.5t-20.5 -58t8 -40t38.5 -23.5t70.5 -16v-59h-428v59q84 13 135.5 56t146.5 182z" />
    <glyph glyph-name="Psigreek" unicode="&#x3a8;" horiz-adv-x="1830" 
d="M1057 203q0 -75 29 -103t129 -41v-59h-600v59q100 13 129 41t29 103v310q-254 8 -388.5 116t-169.5 353l-33 230q-13 92 -43 125t-100 36v59q74 12 146 12q122 0 186 -57.5t85 -199.5l35 -239q27 -182 90 -264.5t192 -95.5v673q0 65 -25 87.5t-113 35.5v60h560v-60
q-88 -13 -113 -35.5t-25 -87.5v-673q128 13 191.5 95.5t90.5 264.5l35 239q21 142 84.5 199.5t185.5 57.5q72 0 146 -12v-59q-69 -3 -99.5 -36t-43.5 -125l-32 -230q-35 -245 -169.5 -352.5t-388.5 -116.5v-310z" />
    <glyph glyph-name="Omegagreek" unicode="&#x2126;" horiz-adv-x="1593" 
d="M84 0l-51 388h48q53 -123 177.5 -168t366.5 -47v103q-251 31 -406.5 187t-155.5 386q0 130 51.5 243.5t144.5 197t230.5 131t300.5 47.5q162 0 299.5 -47t231.5 -128t147 -192t53 -238q0 -235 -153 -394t-408 -193v-103q246 2 369.5 47.5t174.5 167.5h47l-50 -388h-613
v319q157 50 240.5 187.5t83.5 340.5q0 248 -113.5 393.5t-313.5 145.5q-195 0 -303.5 -140t-108.5 -381q0 -210 82 -352t242 -193v-320h-613z" />
    <glyph glyph-name="Omegagreek" unicode="&#x3a9;" horiz-adv-x="1593" 
d="M84 0l-51 388h48q53 -123 177.5 -168t366.5 -47v103q-251 31 -406.5 187t-155.5 386q0 130 51.5 243.5t144.5 197t230.5 131t300.5 47.5q162 0 299.5 -47t231.5 -128t147 -192t53 -238q0 -235 -153 -394t-408 -193v-103q246 2 369.5 47.5t174.5 167.5h47l-50 -388h-613
v319q157 50 240.5 187.5t83.5 340.5q0 248 -113.5 393.5t-313.5 145.5q-195 0 -303.5 -140t-108.5 -381q0 -210 82 -352t242 -193v-320h-613z" />
    <glyph glyph-name="Iotadieresisgreek" unicode="&#x3aa;" horiz-adv-x="710" 
d="M187 1571q-50 0 -84 32.5t-34 81.5t34 81.5t84 32.5q49 0 83 -33t34 -81t-34 -81t-83 -33zM524 1571q-50 0 -84 32.5t-34 81.5t34 81.5t84 32.5q49 0 83 -33t34 -81t-34 -81t-83 -33zM505 189q0 -68 26.5 -92t120.5 -38v-59h-595v59q95 14 121 38t26 92v1066q0 68 -26 92
t-121 38v59h595v-59q-94 -14 -120.5 -38t-26.5 -92v-1066z" />
    <glyph glyph-name="Upsilondieresisgreek" unicode="&#x3ab;" horiz-adv-x="1374" 
d="M599 1571q-49 0 -83.5 33t-34.5 81t34.5 81t83.5 33t83.5 -33t34.5 -81t-34.5 -81t-83.5 -33zM936 1571q-49 0 -83.5 33t-34.5 81t34.5 81t83.5 33t83.5 -33t34.5 -81t-34.5 -81t-83.5 -33zM218 1187q-69 114 -109.5 149.5t-115.5 48.5v59h618v-59q-100 -14 -113.5 -54
t47.5 -147l257 -452l233 432q45 84 53.5 126.5t-17.5 63.5t-99 31v59h409v-59q-78 -14 -122 -54t-122 -170l-298 -501v-457q0 -75 29 -103t130 -41v-59h-619v59q101 13 130 41t29 103v441z" />
    <glyph glyph-name="alphatonosgreek" unicode="&#x3ac;" horiz-adv-x="1302" 
d="M632 1119h-75l50 372h249v-9zM466 -20q-76 0 -143 33.5t-118.5 96.5t-82 161.5t-30.5 220.5q0 227 119.5 374.5t311.5 147.5q147 0 234 -80.5t139 -245.5q46 168 74 306h264l-233 -511l12 -41q34 -128 66 -199t59.5 -95t64.5 -24q38 0 65 20v-55q-36 -47 -90 -75.5
t-116 -28.5q-96 0 -153 64.5t-91 212.5q-74 -146 -155.5 -214t-196.5 -68zM384 516q0 -186 50 -295t138 -109q70 0 123 62.5t102 196.5l-37 212q-33 186 -76.5 265t-120.5 79q-84 0 -131.5 -110t-47.5 -301z" />
    </font>
</defs>
</svg>
