<svg xmlns="http://www.w3.org/2000/svg" width="119" height="40" viewBox="0 0 119 40">
    <g fill="none" fill-rule="evenodd">
        <path fill="#141414" d="M68.193.892c10.188-1.52 13.362 5.856 11.14 10.841-1.614 3.618-5.838 5.16-9.52 3.811.324.768 1.084 1.492 1.923 1.651-.253.454-1.213.708-2.131.57.293 1.402 1.742 2.13 2.518 2.245-.194.205-.466.355-.804.424 2.68 2.311 6.323 1.19 8.767-.896 2.42-2.067 4.05-5.317 4.05-8.497 0-8.131-8.381-13.186-15.943-10.15zm-49.95 6.272V6.48h3.07c.591 0 1.086.052 1.484.154.398.102.716.307.955.614.735.947.63 3.016.63 4.17-.682-2.819-2.784-4.163-6.14-4.255zm6.14 15.539h-3.07V11.48c0-1.332.002-2.531-1.8-3.3 1.798.21 4.87 2.02 4.87 6.41v8.112zm87.866-15.54v-.682h3.07c.592 0 1.086.052 1.484.154.398.102.716.307.955.614.736.947.631 3.016.631 4.17-.683-2.819-2.785-4.163-6.14-4.255zm6.14 15.54h-3.07V11.48c0-1.332.003-2.531-1.8-3.3 1.798.21 4.87 2.02 4.87 6.41v8.112zM83.57 0c1.14 0 2.063.923 2.063 2.062 0 1.14-.924 2.063-2.063 2.063-1.139 0-2.062-.923-2.062-2.063C81.507.923 82.43 0 83.57 0zM70.64 1.214c-8.534.536-11.55 9.885-7.686 16.039 2.185 3.478 7.058 5.58 11.152 5.179-5.565-.91-9.717-5.826-9.51-11.595.15-4.2 2.571-7.786 6.045-9.623zm21.228 6.632c.432-.432 1.024-.825 1.774-1.177.75-.353 1.637-.529 2.66-.529.865 0 1.655.16 2.371.478.717.318 1.29.955 1.723 1.91.59-.773 1.353-1.364 2.285-1.774.933-.41 1.876-.614 2.831-.614.637 0 1.245.086 1.826.256.58.17 1.085.489 1.517.955.432.466.779 1.097 1.04 1.894.262.795.393 1.807.393 3.035v10.233h-3.07V12.28c0-1.705-.239-2.9-.716-3.581-.478-.682-1.149-1.024-2.013-1.024-.341 0-.688.068-1.04.205-.353.137-.688.312-1.007.529-.318.216-.613.454-.887.716-.272.261-.488.517-.647.767.09.25.142.626.153 1.126.011.5.017.92.017 1.262v10.233h-3.07V12.28c0-1.705-.239-2.9-.716-3.581-.478-.682-1.149-1.024-2.013-1.024-.682 0-1.313.182-1.893.546-.58.364-1.086.785-1.518 1.262v13.03h-3.07V10.575c0-1.023-.142-1.848-.426-2.473-.284-.626-.938-.938-1.962-.938h-.682V6.48h3.07c.864 0 1.518.12 1.962.359.443.238.756.574.938 1.006h.17zm-45.72 0c.433-.432 1.024-.825 1.774-1.177.75-.353 1.638-.529 2.66-.529.728 0 1.44.086 2.132.256.694.17 1.314.489 1.86.955.545.466.983 1.097 1.313 1.894.33.795.494 1.807.494 3.035v10.233h-3.07V12.28c0-.841-.107-1.558-.323-2.149-.216-.591-.5-1.069-.853-1.432-.353-.364-.751-.626-1.194-.785-.444-.16-.904-.239-1.381-.239-.683 0-1.314.182-1.894.546-.58.364-1.085.785-1.518 1.262v13.03h-3.07V4.093c0-1.023-.142-1.847-.426-2.473-.284-.625-.938-.937-1.962-.937h-.681V0h3.07c.59 0 1.085.052 1.483.154.398.102.716.307.955.614s.404.727.495 1.262c.09.534.136 1.222.136 2.064v3.752zM39.19 18.42c0 .728-.154 1.365-.46 1.91-.308.546-.723 1.006-1.246 1.382-.523.375-1.154.659-1.893.852-.739.194-1.53.29-2.37.29-1.365 0-2.48-.12-3.343-.358-.864-.239-1.512-.574-1.945-1.006-.432-.432-.682-.921-.75-1.467-.068-.545-.102-1.25-.102-2.115h.682c.182 1.115.66 1.99 1.433 2.627.773.637 1.887.955 3.342.955 1.297 0 2.246-.227 2.849-.682.602-.455.904-1.023.904-1.706 0-.682-.256-1.256-.768-1.722-.512-.466-1.279-.916-2.302-1.348l-2.047-.852c-1.296-.524-2.302-1.143-3.019-1.86-.716-.716-1.074-1.631-1.074-2.745 0-.728.142-1.365.426-1.91.284-.546.677-1.007 1.177-1.382s1.091-.66 1.774-.853c.682-.193 1.432-.29 2.251-.29 1.296 0 2.365.12 3.206.358.842.24 1.478.575 1.91 1.007.433.432.683.92.75 1.466.07.546.103 1.251.103 2.115h-.682c-.182-1.114-.654-1.99-1.416-2.626-.761-.637-1.824-.955-3.189-.955-1.114 0-1.961.227-2.541.682-.58.455-.87 1.023-.87 1.705 0 .592.239 1.132.716 1.62.478.49 1.149.916 2.013 1.28l2.047.853c1.455.59 2.558 1.239 3.308 1.944.75.705 1.126 1.649 1.126 2.831zM3.07 10.575c0-1.023-.142-1.848-.426-2.473-.285-.626-.939-.938-1.962-.938H0V6.48h3.07c.864 0 1.518.12 1.961.359.444.238.756.574.938 1.006h.17c.433-.432 1.024-.825 1.775-1.177.75-.353 1.637-.529 2.66-.529.728 0 1.439.086 2.132.256.694.17 1.313.489 1.86.955.545.466.983 1.097 1.312 1.894.33.795.495 1.807.495 3.035v10.233h-3.07V12.28c0-.841-.108-1.558-.324-2.149-.216-.591-.5-1.069-.853-1.432-.352-.364-.75-.626-1.193-.785-.444-.16-.904-.239-1.382-.239-.682 0-1.313.182-1.893.546-.58.364-1.086.785-1.518 1.262v13.03H3.07V10.575z"/>
        <path fill="#666" d="M41.257 32.592v.27l-.703.108v.055c.216.108.397.265.541.47.144.206.216.446.216.72 0 .31-.054.57-.162.78-.108.208-.254.374-.438.497s-.402.21-.655.265c-.252.054-.52.081-.8.081-.758 0-1.137.127-1.137.379 0 .253.379.379 1.136.379.325 0 .632.032.92.097.289.065.541.164.758.298.216.133.388.306.514.52.126.212.19.466.19.762 0 .31-.062.572-.185.785-.122.213-.29.386-.503.52-.213.133-.463.228-.752.286-.289.058-.602.087-.942.087-.339 0-.652-.03-.941-.087-.289-.058-.54-.153-.752-.287-.213-.133-.38-.306-.503-.52-.123-.212-.184-.474-.184-.784 0-.353.117-.65.351-.887.235-.238.514-.412.84-.52-.11-.057-.208-.139-.298-.243-.09-.105-.136-.24-.136-.406 0-.166.044-.292.13-.379.087-.086.17-.158.249-.216-.216-.108-.406-.282-.568-.52-.163-.238-.244-.533-.244-.887 0-.31.054-.57.163-.78.108-.208.254-.374.438-.497s.402-.211.655-.265c.252-.054.52-.081.8-.081h2.002zm50.344 0c.324 0 .593.076.806.227.213.151.377.364.492.639l1.234 2.997 1.363-3.755h.541l-2.11 5.79c-.108.295-.222.539-.34.73-.12.191-.246.341-.38.45-.133.107-.28.181-.438.22-.159.04-.332.06-.52.06h-.324v-.324c.159 0 .31-.016.455-.049.144-.032.275-.09.395-.173.119-.083.229-.198.33-.346.1-.148.194-.338.281-.568l.216-.596-1.731-4.22c-.108-.274-.265-.48-.47-.617-.206-.137-.446-.22-.72-.249v-.216h.92zm-52.833 4.382c-.274.109-.496.264-.665.466-.17.202-.254.48-.254.833 0 .433.131.749.395.947.263.198.6.298 1.011.298.412 0 .749-.1 1.012-.298.264-.198.395-.514.395-.947 0-.721-.433-1.136-1.298-1.244l-.596-.055zm68.774-4.382c.412 0 .75.038 1.018.113.267.076.469.183.606.32s.216.292.238.465c.021.173.032.397.032.67h-.216c-.058-.353-.208-.63-.45-.832-.241-.202-.578-.303-1.011-.303-.354 0-.622.072-.806.216-.184.144-.276.325-.276.541 0 .188.075.36.227.514.151.155.364.29.638.406l.65.27c.461.188.811.394 1.05.617.238.224.356.523.356.899 0 .23-.048.432-.146.606-.097.173-.229.319-.395.438-.165.119-.366.21-.6.27-.235.062-.485.092-.752.092-.433 0-.787-.038-1.06-.113-.275-.076-.48-.182-.618-.32-.137-.136-.216-.292-.238-.465-.021-.173-.032-.397-.032-.67h.216c.058.353.21.63.455.832.245.202.599.304 1.06.304.412 0 .713-.073.904-.217.191-.144.287-.325.287-.541 0-.216-.081-.399-.244-.547-.162-.147-.406-.29-.73-.427l-.65-.27c-.41-.166-.73-.363-.957-.59-.228-.228-.341-.518-.341-.871 0-.231.045-.433.135-.606.09-.174.215-.32.374-.439.158-.119.346-.209.562-.27.217-.062.455-.092.714-.092zm-6.802 0c.245 0 .482.027.709.08.227.055.43.163.606.326.177.162.317.393.422.692.105.3.157.691.157 1.174v2.922h-.541l-.379-.487h-.054c-.108.137-.285.27-.53.4-.246.13-.574.195-.985.195-.152 0-.318-.023-.498-.07-.18-.047-.35-.128-.508-.243-.16-.116-.293-.271-.4-.466-.11-.195-.163-.44-.163-.736 0-.295.075-.54.227-.736.152-.194.354-.35.606-.465.253-.115.545-.196.877-.243.331-.047.681-.07 1.05-.07h.324c0-.376-.029-.684-.087-.926-.057-.242-.137-.43-.238-.563-.1-.133-.222-.225-.362-.276-.14-.05-.29-.075-.45-.075-.302 0-.557.065-.762.194-.206.13-.348.372-.428.725h-.487c0-.187.011-.362.033-.524.021-.163.1-.312.238-.45.065-.064.157-.122.276-.173.119-.05.25-.09.395-.119.144-.029.297-.05.46-.065.162-.014.326-.021.492-.021zm-79.868 0c.736 0 1.281.205 1.634.617.354.41.53.999.53 1.764l-.021.432h-3.279c0 .296.033.57.097.823.065.252.16.47.287.655.127.183.28.326.46.427.18.101.386.152.617.152.354 0 .648-.076.882-.228.235-.151.445-.364.633-.638l.216.162c-.245.411-.528.704-.849.877-.321.173-.687.26-1.098.26-.383 0-.715-.07-.996-.212-.281-.14-.518-.33-.709-.568-.19-.238-.333-.517-.427-.838-.094-.322-.141-.666-.141-1.034s.049-.712.146-1.033c.098-.321.24-.601.428-.84.187-.237.414-.427.681-.567.267-.14.57-.211.91-.211zm33.32 0c.735 0 1.28.205 1.633.617.354.41.53.999.53 1.764l-.021.432h-3.28c0 .296.033.57.098.823.065.252.16.47.287.655.126.183.28.326.46.427.18.101.386.152.617.152.353 0 .647-.076.882-.228.234-.151.445-.364.633-.638l.216.162c-.245.411-.528.704-.85.877-.32.173-.686.26-1.098.26-.382 0-.714-.07-.995-.212-.282-.14-.518-.33-.709-.568-.191-.238-.334-.517-.427-.838-.094-.322-.141-.666-.141-1.034s.049-.712.146-1.033c.097-.321.24-.601.427-.84.188-.237.415-.427.682-.567.267-.14.57-.211.91-.211zm32.219 0c.245 0 .481.027.708.08.228.055.43.163.606.326.177.162.318.393.422.692.105.3.157.691.157 1.174v2.922h-.54l-.38-.487h-.054c-.108.137-.285.27-.53.4-.245.13-.573.195-.985.195-.151 0-.317-.023-.497-.07-.18-.047-.35-.128-.509-.243-.159-.116-.292-.271-.4-.466-.109-.195-.163-.44-.163-.736 0-.295.076-.54.227-.736.152-.194.354-.35.607-.465.252-.115.544-.196.876-.243.332-.047.682-.07 1.05-.07h.324c0-.376-.028-.684-.086-.926-.058-.242-.137-.43-.238-.563-.101-.133-.222-.225-.363-.276-.14-.05-.29-.075-.449-.075-.303 0-.557.065-.763.194-.205.13-.348.372-.427.725h-.487c0-.187.01-.362.032-.524.022-.163.101-.312.238-.45.065-.064.157-.122.276-.173.12-.05.25-.09.395-.119.145-.029.298-.05.46-.065.162-.014.327-.021.493-.021zm-9.335-1.948c.188 0 .345.016.47.049.127.032.228.097.304.194.076.098.128.231.157.4.029.17.043.389.043.656v.973c.166-.079.357-.153.573-.221.217-.069.477-.103.78-.103.353 0 .658.07.914.21.256.141.469.331.639.569.17.238.295.518.378.839.083.32.125.665.125 1.033 0 .368-.042.712-.125 1.034-.083.32-.205.6-.368.838-.162.238-.364.428-.606.568-.241.141-.525.211-.85.211-.403 0-.72-.065-.951-.194-.231-.13-.4-.264-.51-.4h-.053l-.379.486h-.541v-5.843c0-.325-.045-.587-.135-.785-.09-.199-.298-.298-.622-.298h-.217v-.216h.974zm-49.39 1.948c.41 0 .75.038 1.017.113.267.076.469.183.606.32s.216.292.238.465c.021.173.032.397.032.67h-.216c-.058-.353-.208-.63-.45-.832-.24-.202-.578-.303-1.011-.303-.354 0-.622.072-.806.216-.184.144-.276.325-.276.541 0 .188.075.36.227.514.152.155.364.29.638.406l.65.27c.461.188.811.394 1.05.617.238.224.356.523.356.899 0 .23-.048.432-.146.606-.097.173-.229.319-.395.438-.165.119-.366.21-.6.27-.235.062-.485.092-.752.092-.433 0-.787-.038-1.06-.113-.275-.076-.48-.182-.618-.32-.137-.136-.216-.292-.238-.465-.021-.173-.032-.397-.032-.67h.216c.058.353.21.63.455.832.245.202.598.304 1.06.304.412 0 .713-.073.904-.217.191-.144.287-.325.287-.541 0-.216-.081-.399-.244-.547-.162-.147-.406-.29-.73-.427l-.65-.27c-.41-.166-.73-.363-.957-.59-.228-.228-.341-.518-.341-.871 0-.231.045-.433.135-.606.09-.174.215-.32.374-.439.158-.119.346-.209.562-.27.217-.062.455-.092.714-.092zm43.464-1.948l2.381 5.79c.087.201.168.373.244.513.075.141.16.255.254.341.094.087.195.152.303.195.108.044.238.072.39.087v.216c-.123.036-.268.054-.433.054-.123 0-.266-.014-.428-.043-.162-.029-.328-.092-.498-.19-.17-.097-.335-.24-.498-.427-.162-.187-.3-.436-.416-.747l-.27-.703h-3.03l-.866 2.056h-.487l3.03-7.142h.324zm-24.043 1.948c.231 0 .457.027.677.08.22.055.416.156.59.304.173.148.312.348.416.6.105.253.157.574.157.964v3.246h-.974V34.54c0-.267-.034-.494-.103-.682-.068-.188-.158-.34-.27-.455-.112-.115-.238-.198-.379-.248-.14-.051-.287-.076-.438-.076-.217 0-.417.058-.6.173-.185.115-.345.249-.482.4v4.134h-.974V34c0-.325-.045-.587-.136-.785-.09-.198-.297-.298-.622-.298h-.216V32.7h.974c.274 0 .481.038.622.114.14.075.24.182.298.319h.054c.137-.137.324-.262.562-.373.238-.112.52-.168.844-.168zm-35.483-1.948c.715 0 1.339.083 1.872.249.534.166.976.4 1.326.703.35.303.613.673.79 1.11.177.436.265.925.265 1.466 0 .526-.084 1.012-.254 1.455-.17.444-.42.824-.752 1.142-.332.317-.745.566-1.24.747-.493.18-1.069.27-1.725.27H9.763v-5.843c0-.325-.045-.587-.135-.785-.09-.199-.298-.298-.622-.298h-.217v-.216h2.835zM33.005 32.7c.188 0 .345.016.47.049.127.032.228.097.304.194.076.098.128.231.157.4.029.17.043.389.043.656v3.787h-.974V34c0-.325-.045-.587-.135-.785-.09-.198-.298-.298-.622-.298h-.217V32.7h.974zm28.822-.108c.108 0 .223.012.346.038.122.025.224.066.303.124.08.058.148.126.205.206.058.08.116.173.174.281l-.433.325c-.08-.108-.197-.19-.352-.244-.155-.054-.326-.08-.514-.08-.216 0-.415.048-.595.145-.18.098-.325.23-.433.395v4.004h-.974V34c0-.325-.045-.587-.135-.785-.09-.198-.298-.298-.622-.298h-.109V32.7h.866c.274 0 .482.04.622.119.141.08.24.202.298.368h.054c.108-.137.27-.27.487-.4.216-.13.487-.195.812-.195zm17.251.433c-.166 0-.337.034-.514.102-.177.069-.348.143-.514.222v3.463c.108.166.25.316.427.45.177.133.413.2.71.2.216 0 .401-.058.556-.174.156-.115.286-.272.39-.47.105-.199.18-.433.227-.704.047-.27.07-.56.07-.87 0-.311-.025-.602-.075-.872-.05-.27-.13-.505-.238-.703-.108-.199-.247-.356-.417-.471-.17-.116-.377-.173-.622-.173zm-67.21-2.002c-.159 0-.328.014-.512.043-.182.029-.372.072-.565.13v6.07c.424.094.79.141 1.098.141.394 0 .763-.074 1.108-.221.344-.148.642-.361.893-.639.252-.278.449-.613.593-1.006.143-.394.215-.835.215-1.326 0-.476-.07-.91-.21-1.304-.14-.393-.335-.73-.587-1.012-.251-.281-.55-.498-.899-.65-.348-.15-.727-.226-1.134-.226zm75.462 4.274h-.324c-.541 0-.965.1-1.272.298-.306.198-.46.46-.46.784 0 .174.03.325.087.455.058.13.133.238.227.324.094.087.202.15.325.19.122.04.252.06.39.06.266 0 .477-.067.632-.2.156-.134.287-.284.395-.45v-1.46zm14.33 0h-.325c-.54 0-.965.1-1.271.298-.307.198-.46.46-.46.784 0 .174.029.325.086.455.058.13.134.238.228.324.093.087.202.15.324.19.123.04.253.06.39.06.267 0 .478-.067.633-.2.155-.134.287-.284.395-.45v-1.46zM39.255 32.97c-.151 0-.292.022-.422.065-.13.044-.243.114-.34.212-.098.097-.175.225-.233.384-.058.158-.087.353-.087.584 0 .23.03.426.087.584.058.16.135.287.233.385.097.097.21.167.34.21.13.044.27.065.422.065.152 0 .293-.021.422-.064.13-.044.244-.114.341-.211.098-.098.175-.226.233-.385.058-.158.087-.353.087-.584 0-.433-.105-.749-.314-.947-.21-.198-.466-.298-.769-.298zm31.408-.811l-1.352 3.138h2.65l-1.298-3.138zm-49.79.866c-.166 0-.318.048-.455.146-.137.097-.256.232-.357.406-.101.173-.18.378-.238.616-.058.239-.087.498-.087.78h2.273c0-.628-.094-1.11-.282-1.445-.187-.336-.472-.503-.855-.503zm33.318 0c-.166 0-.317.048-.454.146-.137.097-.256.232-.358.406-.1.173-.18.378-.238.616-.057.239-.086.498-.086.78h2.272c0-.628-.093-1.11-.28-1.445-.188-.336-.473-.503-.856-.503zM33.308 30.87c.166 0 .308.069.428.206.119.137.178.3.178.487 0 .151-.045.27-.135.357-.09.086-.211.13-.363.13-.166 0-.308-.069-.427-.206-.12-.137-.179-.3-.179-.487 0-.151.045-.27.136-.357.09-.087.21-.13.362-.13z" opacity=".5"/>
    </g>
</svg>
