<?xml version="1.0" encoding="iso-8859-1"?>
<!-- Generator: Adobe Illustrator 18.0.0, SVG Export Plug-In . SVG Version: 6.00 Build 0)  -->
<!DOCTYPE svg PUBLIC "-//W3C//DTD SVG 1.1//EN" "http://www.w3.org/Graphics/SVG/1.1/DTD/svg11.dtd">
<svg version="1.1" id="Capa_1" xmlns="http://www.w3.org/2000/svg" xmlns:xlink="http://www.w3.org/1999/xlink" x="0px" y="0px"
	 viewBox="0 0 490 490" style="enable-background:new 0 0 490 490;" xml:space="preserve">
    <g id="Delivery-Tablet">
        <path fill="#ae0701" d="m44 45a3 3 0 0 1 -3-3v-2a3 3 0 0 1 3-3v-3h-24v3a3 3 0 0 1 3 3v2a3 3 0 0 1 -3 3v5h24zm-4-1h-1.4l-1.7 3.442a1 1 0 0 1 -.9.558h-8a1 1 0 0 1 -.895-.553l-1.723-3.447h-1.382v-2h2.09a6.008 6.008 0 0 1 4.91-4.91v-1.09h2v1.09a6.008 6.008 0 0 1 4.91 4.91h2.09z" />
        <path fill="#ae0701" d="m40 14v2a1 1 0 0 0 0-2z" />
        <path fill="#ae0701" d="m32 39a4 4 0 0 0 -3.858 3h7.716a4 4 0 0 0 -3.858-3z" />
        <path fill="#ae0701" d="m28.618 46h6.76l.987-2h-8.747z" />
        <path fill="#ae0701" d="m40 60v-8h-16v8h7v-6h2v6z" />
        <path fill="#ae0701" d="m21 42v-2a1 1 0 0 0 -1-1h-3v4h3a1 1 0 0 0 1-1z" />
        <path fill="#ae0701" d="m37 4h-14.382l1.282 2.553a1 1 0 0 1 0 .894l-.683 1.353 2.2 2.2h3.919a7.051 7.051 0 0 0 4.2-1.4l1.864-1.4a1 1 0 0 1 .6-.2.98.98 0 0 1 .3.046 1 1 0 0 1 .651.638l.544 1.632a1 1 0 0 0 .948.684h.145l1.412-1.414v-2.586a3 3 0 0 0 -3-3z" />
        <path fill="#ae0701" d="m42.909 32a4.994 4.994 0 0 0 -2.875-3.666l-4.306-1.915a3.983 3.983 0 0 1 -7.456 0l-4.306 1.915a4.994 4.994 0 0 0 -2.875 3.666z" />
        <path fill="#ae0701" d="m35.6 10.949-.1-.316-.757.567a9.054 9.054 0 0 1 -5.4 1.8h-3.343v3a4.588 4.588 0 0 0 .031.579 5.992 5.992 0 0 0 1.726 3.664 5.865 5.865 0 0 0 1.665 1.171 6 6 0 0 0 8.542-4.8 4.6 4.6 0 0 0 .036-.614v-3.035a3 3 0 0 1 -2.4-2.016zm-5.6 5.051h-2v-2h2zm6 0h-2v-2h2z" />
        <path fill="#ae0701" d="m47 39h-3a1 1 0 0 0 -1 1v2a1 1 0 0 0 1 1h3z" />
        <path fill="#ae0701" d="m24 14a1 1 0 0 0 0 2z" />
        <path fill="#ae0701" d="m30 23.738v1.262a2 2 0 0 0 4 0v-1.262a7.765 7.765 0 0 1 -4 0z" />
    </g>
</svg>