<?xml version="1.0"?>
<svg xmlns="http://www.w3.org/2000/svg" xmlns:xlink="http://www.w3.org/1999/xlink" version="1.1" id="Capa_1" x="0px" y="0px" viewBox="0 0 512 512" style="enable-background:new 0 0 512 512;" xml:space="preserve" width="512px" height="512px" class=""><g><g>
	<g>
		<polygon points="180.572,271.12 180.572,321.148 150.572,321.148 150.572,271.12 90.072,271.12 90.072,392.12 241.072,392.12     241.072,271.12   " data-original="#000000" class="active-path" data-old_color="#000000" fill="#940303"/>
	</g>
</g><g>
	<g>
		<polygon points="361.428,271.12 361.428,321.148 331.428,321.148 331.428,271.12 270.928,271.12 270.928,392.12 421.928,392.12     421.928,271.12   " data-original="#000000" class="active-path" data-old_color="#000000" fill="#940303"/>
	</g>
</g><g>
	<g>
		<polygon points="180.572,30.024 180.572,80.051 150.572,80.051 150.572,30.024 90.072,30.024 90.072,151.024 241.072,151.024     241.072,30.024   " data-original="#000000" class="active-path" data-old_color="#000000" fill="#940303"/>
	</g>
</g><g>
	<g>
		<polygon points="361.428,30.024 361.428,80.051 331.428,80.051 331.428,30.024 270.928,30.024 270.928,151.024 421.928,151.024     421.928,30.024   " data-original="#000000" class="active-path" data-old_color="#000000" fill="#940303"/>
	</g>
</g><g>
	<g>
		<path d="M512,241.072v-60.048h-30h-0.023V0h-30v181.023H60.025V0h-30v181.023H30H0v60.048h30.025V422.12H30H0v60.048h30.025V512    h30v-29.832h391.952V512h30v-29.832H512V422.12h-30h-0.023V241.072H512z M451.977,422.12H60.025V241.072h391.952V422.12z" data-original="#000000" class="active-path" data-old_color="#000000" fill="#940303"/>
	</g>
</g></g> </svg>
